<svg width="55" height="55" fill="none" xmlns="http://www.w3.org/2000/svg"><g clip-path="url(#a)"><path fill-rule="evenodd" clip-rule="evenodd" d="M25.358 54.5c13.728 0 24.857-11.13 24.857-24.858S39.086 4.785 25.358 4.785C11.629 4.785.5 15.914.5 29.642.5 43.371 11.63 54.5 25.358 54.5Zm25.357-24.858C50.715 43.647 39.362 55 25.358 55 11.353 55 0 43.647 0 29.642 0 15.638 11.353 4.285 25.358 4.285c14.004 0 25.357 11.353 25.357 25.357Z" fill="#000"/><path fill-rule="evenodd" clip-rule="evenodd" d="M25.358 47.53c9.878 0 17.887-8.009 17.887-17.888 0-9.879-8.008-17.887-17.887-17.887-9.88 0-17.888 8.008-17.888 17.887 0 9.88 8.009 17.887 17.888 17.887Zm18.387-17.888c0 10.155-8.232 18.387-18.387 18.387-10.155 0-18.388-8.232-18.388-18.387 0-10.155 8.233-18.387 18.388-18.387 10.155 0 18.387 8.232 18.387 18.387Z" fill="#000"/><path fill-rule="evenodd" clip-rule="evenodd" d="M25.358 40.56c6.029 0 10.917-4.888 10.917-10.918 0-6.029-4.888-10.916-10.917-10.916-6.03 0-10.917 4.887-10.917 10.916 0 6.03 4.887 10.917 10.917 10.917Zm11.417-10.918c0 6.306-5.112 11.417-11.417 11.417-6.306 0-11.417-5.111-11.417-11.416 0-6.306 5.111-11.417 11.417-11.417 6.305 0 11.417 5.111 11.417 11.416Z" fill="#000"/><path d="M25.358 34.089a4.447 4.447 0 1 0 0-8.893 4.447 4.447 0 0 0 0 8.893Z" fill="url(#b)"/><path d="m48.865.116-5.563 5.563a1.177 1.177 0 0 0-.342.906l.322 5.133 6.554-6.554L49.535.37a.393.393 0 0 0-.67-.253Z" fill="url(#c)"/><path d="m54.885 6.135-5.563 5.563a1.18 1.18 0 0 1-.907.342l-5.133-.322 6.554-6.554 4.796.301c.337.021.492.43.253.67Z" fill="url(#d)"/><path fill-rule="evenodd" clip-rule="evenodd" d="M25.124 29.875a.327.327 0 0 0 .467 0l.255.256-.255-.256L53.3 2.165a.33.33 0 1 0-.467-.466l-27.71 27.71a.33.33 0 0 0 0 .466Zm28.53-28.53a.83.83 0 0 0-1.173 0l-27.71 27.71a.83.83 0 0 0 1.173 1.174l27.71-27.71a.83.83 0 0 0 0-1.173Z" fill="#000"/></g><defs><linearGradient id="b" x1="25.358" y1="25.196" x2="25.358" y2="34.089" gradientUnits="userSpaceOnUse"><stop stop-color="#4614E8"/><stop offset="1" stop-color="#BCA7FF"/></linearGradient><linearGradient id="c" x1="46.397" y1="0" x2="46.397" y2="11.718" gradientUnits="userSpaceOnUse"><stop stop-color="#4614E8"/><stop offset="1" stop-color="#BCA7FF"/></linearGradient><linearGradient id="d" x1="49.141" y1="5.164" x2="49.141" y2="12.043" gradientUnits="userSpaceOnUse"><stop stop-color="#4614E8"/><stop offset="1" stop-color="#BCA7FF"/></linearGradient><clipPath id="a"><path fill="#fff" d="M0 0h55v55H0z"/></clipPath></defs></svg>