<svg width="1021" height="364" fill="none" xmlns="http://www.w3.org/2000/svg"><path opacity=".5" fill-rule="evenodd" clip-rule="evenodd" d="M906.698 1.885a201.38 201.38 0 0 0-10.014.065l-.031-1a202.35 202.35 0 0 1 10.063-.065l-.018 1Zm19.913 1.468c-3.251-.431-6.563-.77-9.931-1.015l.073-.998c3.387.247 6.718.588 9.99 1.022l-.132.991Zm-39.953-.857c-3.293.254-6.621.583-9.983.988l-.119-.993a236.12 236.12 0 0 1 10.025-.992l.077.997Zm-19.873 2.38a268.68 268.68 0 0 0-9.868 1.777l-.195-.981a269.86 269.86 0 0 1 9.904-1.784l.159.987Zm79.471 2.426a139.069 139.069 0 0 0-9.746-2.31l.196-.98c3.347.669 6.62 1.444 9.816 2.327l-.266.963Zm-99.177 1.494a301.69 301.69 0 0 0-9.674 2.457l-.262-.965c3.254-.883 6.49-1.705 9.706-2.465l.23.973Zm117.943 5.358a114.472 114.472 0 0 0-9.235-3.815l.341-.94a115.22 115.22 0 0 1 9.316 3.849l-.422.906Zm-137.246-.12a330.421 330.421 0 0 0-9.587 3.095l-.322-.947a332.477 332.477 0 0 1 9.617-3.104l.292.956Zm154.418 10.252a96.653 96.653 0 0 0-8.331-5.492l.507-.861a97.556 97.556 0 0 1 8.417 5.549l-.593.805Zm-173.406-3.812a358.004 358.004 0 0 0-9.356 3.631l-.374-.927a358.868 358.868 0 0 1 9.381-3.642l.349.938Zm-18.618 7.523a384.19 384.19 0 0 0-9.112 4.117l-.423-.906a383.123 383.123 0 0 1 9.135-4.127l.4.916Zm206.657 9.796a87.776 87.776 0 0 0-6.937-7.162l.678-.735a88.995 88.995 0 0 1 7.016 7.244l-.757.653Zm-224.829-1.302a406.08 406.08 0 0 0-8.894 4.576l-.469-.883a404.585 404.585 0 0 1 8.917-4.588l.446.895Zm-17.702 9.383c-2.9 1.628-5.8 3.301-8.697 5.02l-.51-.86c2.904-1.723 5.81-3.4 8.717-5.032l.49.872Zm253.744 8.373a89.224 89.224 0 0 0-5.14-8.547l.83-.563a88.923 88.923 0 0 1 5.19 8.643l-.88.467Zm-936.084 1.59a45.76 45.76 0 0 1 4.705-1.324l.218.976a44.79 44.79 0 0 0-4.602 1.296l-.321-.947Zm665.093.261a441.931 441.931 0 0 0-8.478 5.433l-.549-.836a440.4 440.4 0 0 1 8.498-5.445l.529.848ZM54.873 65.191c2.678-2.034 5.403-3.828 8.16-5.361l.487.874c-2.713 1.508-5.398 3.276-8.042 5.284l-.605-.797Zm960.567 7.585a101.19 101.19 0 0 0-3.22-9.463l.93-.37c1.22 3.071 2.31 6.257 3.25 9.557l-.96.276Zm-295.157-5.668a458.643 458.643 0 0 0-8.221 5.802l-.585-.81a453.051 453.051 0 0 1 8.239-5.815l.567.823ZM40.744 78.615a104.599 104.599 0 0 1 6.693-7.05l.691.722A103.614 103.614 0 0 0 41.5 79.27l-.756-.655Zm663.276.24A467.354 467.354 0 0 0 696.069 85l-.62-.784a464.396 464.396 0 0 1 7.968-6.16l.603.798Zm315.2 13.524c-.37-3.378-.85-6.66-1.46-9.847l.98-.187c.61 3.214 1.11 6.523 1.47 9.927l-.99.107ZM29.174 94.261a140.864 140.864 0 0 1 5.498-8.04l.805.594a139.857 139.857 0 0 0-5.459 7.982l-.844-.536Zm659.104-2.967a472.214 472.214 0 0 0-7.674 6.472l-.653-.758c2.553-2.2 5.116-4.36 7.69-6.485l.637.771ZM1020 107.414c0-1.721-.03-3.421-.09-5.1l1-.034c.06 1.69.09 3.401.09 5.134 0 1.705-.02 3.389-.06 5.052l-1-.026c.04-1.654.06-3.329.06-5.026ZM19.761 111.302a170.991 170.991 0 0 1 4.453-8.66l.876.483a169.706 169.706 0 0 0-4.427 8.609l-.902-.432Zm653.315-6.913a487.552 487.552 0 0 0-3.731 3.387 1036.902 1036.902 0 0 1-3.461 3.413l-.701-.714c1.167-1.145 2.322-2.284 3.465-3.416l.007-.007.007-.007a491.265 491.265 0 0 1 3.745-3.4l.669.744Zm-14.346 13.747c-2.35 2.259-4.743 4.538-7.178 6.835l-.687-.728a1006.73 1006.73 0 0 0 7.172-6.828l.693.721ZM12.296 129.273c1.1-3.088 2.268-6.117 3.498-9.082l.924.383a190.139 190.139 0 0 0-3.48 9.034l-.942-.335Zm1006.084 2.6c.44-3.161.8-6.415 1.06-9.766l1 .078c-.27 3.37-.63 6.645-1.07 9.827l-.99-.139Zm-374.134-.076a1136.638 1136.638 0 0 1-7.292 6.69l-.673-.74c2.465-2.241 4.894-4.47 7.286-6.684l.679.734Zm-637.569 16.1c.79-3.169 1.652-6.298 2.582-9.38l.957.288a199.618 199.618 0 0 0-2.569 9.334l-.97-.242Zm1007.713 2.955c.88-3.049 1.66-6.204 2.34-9.47l.98.204c-.69 3.289-1.47 6.469-2.36 9.542l-.96-.276Zm-384.86-5.671a1189.432 1189.432 0 0 1-7.411 6.568l-.66-.752c2.5-2.196 4.969-4.384 7.405-6.562l.666.746ZM2.888 166.978a201.14 201.14 0 0 1 1.664-9.586l.98.195a199.977 199.977 0 0 0-1.655 9.538l-.99-.147Zm611.708-8.673a1200.771 1200.771 0 0 1-7.534 6.457l-.647-.762a1198.53 1198.53 0 0 0 7.527-6.452l.654.757Zm392.884 10.719c1.38-2.849 2.66-5.816 3.84-8.906l.93.355a107.506 107.506 0 0 1-3.87 8.987l-.9-.436Zm-408.029 2.156a1237.499 1237.499 0 0 1-7.658 6.352l-.635-.772a1241.35 1241.35 0 0 0 7.651-6.347l.642.767ZM.976 186.339c.158-3.251.398-6.487.716-9.704l.995.098a193.533 193.533 0 0 0-.712 9.654l-.999-.048Zm996.423-.748a97.484 97.484 0 0 0 5.461-8.066l.85.52a97.99 97.99 0 0 1-5.511 8.147l-.8-.601Zm-413.301-1.779a1211.312 1211.312 0 0 1-7.78 6.246l-.623-.782a1244.88 1244.88 0 0 0 7.774-6.241l.629.777Zm400.139 16.06a98.836 98.836 0 0 0 6.932-6.808l.735.678a99.517 99.517 0 0 1-7.002 6.877l-.665-.747Zm-415.696-3.671a1267.985 1267.985 0 0 1-7.898 6.136l-.61-.793c2.65-2.041 5.281-4.085 7.891-6.13l.617.787ZM1.037 205.795a183.824 183.824 0 0 1-.284-9.727l1-.003c.009 3.219.102 6.445.282 9.674l-.998.056Zm967.555 5.584a110.2 110.2 0 0 0 8.089-5.399l.592.806a111.145 111.145 0 0 1-8.163 5.448l-.518-.855Zm-415.812-3.035c-2.639 2-5.297 3.996-7.971 5.988l-.598-.802c2.673-1.99 5.328-3.985 7.965-5.983l.604.797ZM3.19 225.134a171.723 171.723 0 0 1-1.346-9.64l.994-.11c.355 3.199.8 6.396 1.338 9.583l-.986.167Zm948.008-5.029a131.824 131.824 0 0 0 8.866-4.026l.447.895a133.04 133.04 0 0 1-8.933 4.056l-.38-.925Zm-414.379.127a1156.5 1156.5 0 0 1-8.049 5.841l-.584-.812c2.696-1.939 5.378-3.885 8.043-5.836l.59.807Zm227.966-.111c.794.148 1.962.4 3.465.731l-.215.976a132.392 132.392 0 0 0-3.434-.725c-.39-.073-.67-.117-.847-.135a1.92 1.92 0 0 0-.101-.007h-.03a.36.36 0 0 0 .113-.035.474.474 0 0 0 .264-.426h-1c0-.28.2-.426.302-.475a.66.66 0 0 1 .227-.06 2.373 2.373 0 0 1 .322.008c.224.022.54.074.934.148Zm13.038 2.82a596.64 596.64 0 0 0 9.69 1.976l-.192.982c-3.585-.7-6.836-1.371-9.706-1.98l.208-.978Zm154.923 3.378a163.657 163.657 0 0 0 9.328-2.818l.318.948a163.48 163.48 0 0 1-9.385 2.835l-.261-.965Zm-135.69.373c3.054.539 6.27 1.08 9.628 1.608l-.155.988a520.315 520.315 0 0 1-9.647-1.611l.174-.985Zm116.62 3.724a203.382 203.382 0 0 0 9.59-1.808l.209.978a203.06 203.06 0 0 1-9.637 1.816l-.162-.986Zm-97.321-.692c3.145.431 6.383.844 9.703 1.228l-.115.993a465.963 465.963 0 0 1-9.724-1.23l.136-.991Zm-295.695 2.13a1136.621 1136.621 0 0 1-8.135 5.695l-.57-.822c2.724-1.889 5.433-3.786 8.128-5.69l.577.817Zm373.646.902a252.35 252.35 0 0 0 9.709-.971l.119.992c-3.242.39-6.493.713-9.747.975l-.081-.996Zm-58.518-.785c3.196.299 6.451.567 9.752.796l-.069.998c-3.31-.23-6.572-.499-9.776-.798l.093-.996Zm19.496 1.352c3.219.143 6.472.245 9.749.3l-.017 1a359.2 359.2 0 0 1-9.776-.301l.044-.999Zm19.512.323c3.243-.042 6.5-.133 9.764-.28l.045.999c-3.275.147-6.543.239-9.796.28l-.013-.999ZM7.558 244.096a160.249 160.249 0 0 1-2.468-9.414l.975-.224c.72 3.134 1.537 6.254 2.452 9.355l-.96.283Zm496.749-.901c-2.73 1.858-5.474 3.708-8.23 5.548l-.555-.832c2.753-1.838 5.494-3.686 8.223-5.543l.562.827ZM14.225 262.371a151.565 151.565 0 0 1-3.624-9.031l.94-.343a149.683 149.683 0 0 0 3.6 8.971l-.915.403Zm473.55-8.141a1054.908 1054.908 0 0 1-8.349 5.407l-.54-.842c2.792-1.789 5.572-3.59 8.341-5.402l.548.837Zm-16.746 10.733a1011.391 1011.391 0 0 1-8.455 5.248l-.524-.852a1036.64 1036.64 0 0 0 8.448-5.243l.531.847ZM23.207 279.625a145.628 145.628 0 0 1-4.777-8.479l.887-.461a144.875 144.875 0 0 0 4.744 8.42l-.854.52Zm430.866-4.255a956.376 956.376 0 0 1-8.555 5.072l-.506-.863a964.094 964.094 0 0 0 8.546-5.066l.515.857Zm-17.168 10.056a912.933 912.933 0 0 1-8.662 4.886l-.486-.874a901.413 901.413 0 0 0 8.652-4.881l.496.869Zm-402.49 10.115a145.682 145.682 0 0 1-5.873-7.773l.818-.576a144.79 144.79 0 0 0 5.833 7.72l-.777.629Zm385.111-.441a843.122 843.122 0 0 1-8.779 4.691l-.466-.885a841.141 841.141 0 0 0 8.769-4.685l.476.879ZM47.625 309.828a151.142 151.142 0 0 1-6.823-6.911l.734-.679a150.11 150.11 0 0 0 6.777 6.865l-.689.725Zm354.307-5.464a788.176 788.176 0 0 1-8.904 4.479l-.444-.897a769.82 769.82 0 0 0 8.893-4.473l.455.891Zm-17.84 8.829a725.425 725.425 0 0 1-9.006 4.235l-.42-.908c3.002-1.386 6-2.796 8.995-4.229l.431.902Zm-325.401 6.2a159.547 159.547 0 0 1-3.819-3.1l.642-.767a160.432 160.432 0 0 0 3.795 3.081 208.374 208.374 0 0 0 3.98 3.054l-.6.801a209.765 209.765 0 0 1-3.998-3.069Zm307.329 2.143a661.68 661.68 0 0 1-9.103 3.966l-.392-.92a659.653 659.653 0 0 0 9.089-3.96l.406.914ZM79.185 333.601a202.143 202.143 0 0 1-8.373-5.361l.56-.828a201.376 201.376 0 0 0 8.331 5.334l-.518.855Zm268.529-4.255a610.894 610.894 0 0 1-9.213 3.675l-.363-.931a619.693 619.693 0 0 0 9.198-3.67l.378.926Zm-18.542 7.219a555.083 555.083 0 0 1-9.348 3.365l-.33-.944a556.25 556.25 0 0 0 9.331-3.359l.347.938Zm-232.467 6.497a199.583 199.583 0 0 1-8.866-4.506l.475-.879a198.74 198.74 0 0 0 8.822 4.482l-.43.903Zm213.691.068a511.893 511.893 0 0 1-9.487 3.018l-.294-.956a502.43 502.43 0 0 0 9.468-3.012l.313.95Zm-195.316 7.607a202.294 202.294 0 0 1-9.273-3.607l.385-.923a201.93 201.93 0 0 0 9.228 3.589l-.34.941Zm176.306-1.77c-3.212.915-6.42 1.792-9.625 2.629l-.253-.967a462.286 462.286 0 0 0 9.604-2.623l.274.961Zm-157.272 7.623a212.656 212.656 0 0 1-9.582-2.698l.294-.956a210.62 210.62 0 0 0 9.536 2.685l-.248.969Zm138.034-2.597a412.73 412.73 0 0 1-9.756 2.19l-.207-.979a410.683 410.683 0 0 0 9.732-2.184l.231.973Zm-19.476 4.12a373.546 373.546 0 0 1-9.85 1.689l-.156-.988a371.588 371.588 0 0 0 9.824-1.685l.182.984Zm-99.065 2.541a225.232 225.232 0 0 1-9.79-1.813l.204-.979c3.229.673 6.478 1.273 9.747 1.805l-.161.987Zm79.39.554c-3.315.426-6.62.802-9.916 1.126l-.097-.995a332.96 332.96 0 0 0 9.885-1.123l.128.992Zm-59.619 1.808c-3.32-.259-6.624-.584-9.91-.976l.118-.993c3.273.39 6.563.714 9.87.972l-.078.997Zm39.799.134c-3.33.222-6.649.388-9.956.496l-.033-.999c3.295-.109 6.603-.274 9.923-.494l.066.997Zm-19.902.651a269.921 269.921 0 0 1-9.96-.204l.039-.999c3.293.129 6.601.196 9.923.203l-.002 1Z" fill="#404040"/></svg>