<svg width="231" height="161" fill="none" xmlns="http://www.w3.org/2000/svg"><g clip-path="url(#a)"><path d="M104.745 65.254H0V0h104.745v65.254Z" fill="#fff"/><path d="M104.745 65.254H0V0h104.745v65.254ZM.478 64.778h103.789V.476H.478v64.302Z" fill="#3F3D56"/><path d="M91.95 155.634H32.166V90.379H91.95v65.255Z" fill="#fff"/><path d="M91.95 155.634H32.166V90.379H91.95v65.255Zm-59.307-.477h58.83V90.856h-58.83v64.301Z" fill="#3F3D56"/><path d="M83.82 149.471H71.384v.502H83.82v-.502Zm0 1.506H71.384v.502H83.82v-.502Zm0 1.506H71.384v.502H83.82v-.502Z" fill="#3F3D56"/><path d="M62.058 102.049v5.24c3.121 0 6.173.922 8.768 2.649a15.732 15.732 0 0 1 5.814 7.054 15.656 15.656 0 0 1 .898 9.081 15.697 15.697 0 0 1-4.32 8.048l3.72 3.705a20.93 20.93 0 0 0 5.76-10.731 20.875 20.875 0 0 0-1.198-12.108 20.976 20.976 0 0 0-7.75-9.406 21.106 21.106 0 0 0-11.692-3.532Z" fill="#E6E6E6"/><path d="m76.939 137.826-3.72-3.705a15.824 15.824 0 0 1-20.71 1.398l-3.185 4.173a21.104 21.104 0 0 0 14.159 4.224 21.085 21.085 0 0 0 13.456-6.09Z" fill="#575A89"/><path d="M46.274 123.007c0-2.064.408-4.108 1.202-6.015a15.722 15.722 0 0 1 3.421-5.1 15.798 15.798 0 0 1 5.12-3.407 15.839 15.839 0 0 1 6.04-1.196v-5.24c-4.405 0-8.7 1.377-12.277 3.937a20.959 20.959 0 0 0-7.666 10.33 20.875 20.875 0 0 0-.173 12.844 20.954 20.954 0 0 0 7.383 10.532l3.184-4.172a15.71 15.71 0 0 1-4.592-5.528 15.638 15.638 0 0 1-1.642-6.985Z" fill="#6C63FF"/><path d="M46.274 123.007c0-2.064.408-4.108 1.202-6.015a15.722 15.722 0 0 1 3.421-5.1 15.798 15.798 0 0 1 5.12-3.407 15.839 15.839 0 0 1 6.04-1.196v-5.24c-4.405 0-8.7 1.377-12.277 3.937a20.959 20.959 0 0 0-7.666 10.33 20.875 20.875 0 0 0-.173 12.844 20.954 20.954 0 0 0 7.383 10.532l3.184-4.172a15.71 15.71 0 0 1-4.592-5.528 15.638 15.638 0 0 1-1.642-6.985Z" fill="url(#b)"/><path d="M180.434 115.148h-59.786V49.894h59.786v65.254Z" fill="#fff"/><path d="M140.019 89.784h-10.762v17.147h10.762V89.784Z" fill="#575A89"/><path d="M155.563 78.115h-10.762v28.816h10.762V78.115Z" fill="#E6E6E6"/><path d="M171.107 64.54h-10.761v42.391h10.761V64.54Z" fill="#6C63FF"/><path d="M171.107 64.54h-10.761v42.391h10.761V64.54Z" fill="url(#c)"/><path d="M174.695 107.408h-48.307V57.633h.478v49.298h47.829v.477Z" fill="#3F3D56"/><path d="M230.725 161h-51.327a.275.275 0 0 1-.275-.274.275.275 0 0 1 .275-.273h51.327a.275.275 0 0 1 .275.273.275.275 0 0 1-.275.274Z" fill="#fff"/><path fill-rule="evenodd" clip-rule="evenodd" d="M179.398 161h51.327a.275.275 0 0 0 .275-.274.275.275 0 0 0-.275-.273h-51.327a.275.275 0 0 0-.275.273.275.275 0 0 0 .275.274Z" fill="#000"/><path d="M90.198 51.607H14.547a.237.237 0 0 1-.237-.236v-36.11a.235.235 0 0 1 .236-.236.237.237 0 0 1 .237.236v35.874h75.415a.238.238 0 0 1 .22.146.236.236 0 0 1-.22.326Z" fill="#3F3D56"/><path d="M30.71 49.014h-6.88a.705.705 0 0 1-.703-.7v-9.446a.699.699 0 0 1 .702-.7h6.881a.705.705 0 0 1 .703.7v9.446a.699.699 0 0 1-.703.7Z" fill="url(#d)"/><path d="M43.258 49.014h-6.88a.705.705 0 0 1-.703-.7V29.908a.699.699 0 0 1 .702-.7h6.881a.705.705 0 0 1 .703.7v18.406a.699.699 0 0 1-.703.7Z" fill="url(#e)"/><path d="M55.806 49.014h-6.88a.705.705 0 0 1-.704-.7v-9.446a.7.7 0 0 1 .703-.7h6.881a.705.705 0 0 1 .703.7v9.446a.7.7 0 0 1-.703.7Z" fill="url(#f)"/><path d="M68.354 49.013h-6.88a.69.69 0 0 1-.703-.668V26.34a.684.684 0 0 1 .702-.668h6.881a.69.69 0 0 1 .703.668v22.005a.684.684 0 0 1-.703.668Z" fill="url(#g)"/><path d="M80.902 49.013h-6.88a.705.705 0 0 1-.703-.7V20.006a.699.699 0 0 1 .703-.7h6.88a.705.705 0 0 1 .703.7v28.309a.699.699 0 0 1-.703.7Z" fill="url(#h)"/><path d="M27.27 35.339c.784 0 1.42-.634 1.42-1.415s-.636-1.415-1.42-1.415c-.785 0-1.42.634-1.42 1.415s.635 1.415 1.42 1.415Zm12.548-9.196c.784 0 1.42-.633 1.42-1.414 0-.782-.636-1.415-1.42-1.415-.785 0-1.42.633-1.42 1.415 0 .78.635 1.414 1.42 1.414Zm12.548 9.196c.784 0 1.42-.634 1.42-1.415s-.636-1.415-1.42-1.415c-.785 0-1.42.634-1.42 1.415s.635 1.415 1.42 1.415Zm12.548-13.675c.784 0 1.42-.634 1.42-1.415s-.636-1.415-1.42-1.415c-.785 0-1.42.634-1.42 1.415s.635 1.415 1.42 1.415Zm12.548-5.188c.784 0 1.42-.633 1.42-1.414 0-.782-.636-1.415-1.42-1.415-.785 0-1.42.633-1.42 1.415 0 .78.635 1.414 1.42 1.414Z" fill="#3F3D56"/><path d="m52.395 34.24-12.576-9.38-12.406 9.254-.284-.378 12.69-9.466 12.518 9.338 12.44-13.557.05-.02 12.547-5.035.177.438-12.498 5.015L52.395 34.24Z" fill="#3F3D56"/><path d="M176.243 89.842a2.536 2.536 0 0 0 3.675-1.257l8.996.3-2.444-3.986-8.168.327a2.55 2.55 0 0 0-3.081 1.395 2.543 2.543 0 0 0 1.022 3.22Z" fill="#fff"/><path fill-rule="evenodd" clip-rule="evenodd" d="m176.474 89.397.028.017a2.03 2.03 0 0 0 2.462-.275c.214-.206.381-.457.487-.734l.128-.332 8.423.28-1.805-2.942-7.961.318-.082-.025a2.05 2.05 0 0 0-2.477 1.12 2.042 2.042 0 0 0 .797 2.573Zm-.731.055a2.574 2.574 0 0 0 1.54.74 2.534 2.534 0 0 0 2.635-1.607l8.996.3-2.444-3.986-8.168.327a2.55 2.55 0 0 0-3.081 1.395 2.543 2.543 0 0 0 .522 2.832Z" fill="#000"/><path d="M226.967 109.31a2.535 2.535 0 0 0 .599-2.056 2.527 2.527 0 0 0-1.194-1.779l1.87-8.796-4.354 1.706-1.109 8.092a2.547 2.547 0 0 0 4.188 2.833Z" fill="#fff"/><path fill-rule="evenodd" clip-rule="evenodd" d="m225.809 105.72 1.751-8.237-3.217 1.26-1.08 7.887-.04.076a2.04 2.04 0 0 0 .671 2.632 2.052 2.052 0 0 0 2.695-.355l.378.327a2.551 2.551 0 0 1-3.354.442 2.547 2.547 0 0 1-.834-3.275l1.109-8.092 4.354-1.706-1.87 8.796a2.54 2.54 0 0 1 1.194 1.779 2.535 2.535 0 0 1-.599 2.056l-.376-.33a2.026 2.026 0 0 0-.477-3.076l-.305-.184Z" fill="#000"/><path d="m205.893 155.156-3.088-.001-1.469-11.9h4.558l-.001 11.901Z" fill="#fff"/><path fill-rule="evenodd" clip-rule="evenodd" d="m205.893 155.156-3.088-.001-1.469-11.9h4.558l-.001 11.901Zm-.499-11.401h-3.493l1.346 10.9 2.146.001.001-10.901Z" fill="#000"/><path d="m206.681 158.147-9.958-.001v-.126a3.86 3.86 0 0 1 1.135-2.737 3.883 3.883 0 0 1 2.741-1.135l6.082.001v3.998Z" fill="#fff"/><path fill-rule="evenodd" clip-rule="evenodd" d="M200.599 154.148a3.888 3.888 0 0 0-2.741 1.135 3.88 3.88 0 0 0-1.135 2.731v.132l9.958.001v-3.998l-6.082-.001Zm0 .5a3.392 3.392 0 0 0-2.387.988 3.37 3.37 0 0 0-.968 2.01l8.937.001v-2.998l-5.582-.001Z" fill="#000"/><path d="m221.007 155.156-3.089-.001-1.469-11.9h4.558v11.901Z" fill="#fff"/><path fill-rule="evenodd" clip-rule="evenodd" d="m221.007 155.156-3.089-.001-1.469-11.9h4.558v11.901Zm-.5-11.401h-3.492l1.345 10.9 2.147.001v-10.901Z" fill="#000"/><path d="m221.794 158.147-9.957-.001v-.126a3.86 3.86 0 0 1 1.135-2.737 3.88 3.88 0 0 1 2.74-1.135h.001l6.081.001v3.998Z" fill="#fff"/><path fill-rule="evenodd" clip-rule="evenodd" d="M215.712 154.148a3.888 3.888 0 0 0-2.74 1.135 3.849 3.849 0 0 0-1.117 2.363 3.762 3.762 0 0 0-.018.368v.132l9.957.001v-3.998l-6.082-.001Zm.001.5a3.393 3.393 0 0 0-2.388.988 3.367 3.367 0 0 0-.967 2.01l8.936.001v-2.998l-5.581-.001Z" fill="#000"/><path d="m206.215 148.942-4.372-.175a1.132 1.132 0 0 1-1.087-1.166l1.231-40.361.081-.029c7.661-2.769 13.999-2.56 19.377.639l.06.036.738 39.31a1.145 1.145 0 0 1-.325.814 1.122 1.122 0 0 1-.809.34h-3.686a1.139 1.139 0 0 1-1.112-.914l-5.022-25.521a.377.377 0 0 0-.745.028l-3.159 26.003a1.14 1.14 0 0 1-1.125.996h-.045Z" fill="#fff"/><path fill-rule="evenodd" clip-rule="evenodd" d="m202.068 107.211-.081.029-1.231 40.361a1.132 1.132 0 0 0 1.087 1.166l4.372.175h.045a1.14 1.14 0 0 0 1.125-.995l3.159-26.004a.374.374 0 0 1 .361-.332.374.374 0 0 1 .384.304l5.022 25.521a1.135 1.135 0 0 0 1.112.914h3.686a1.122 1.122 0 0 0 .809-.34 1.145 1.145 0 0 0 .325-.814m-5.442.142a.634.634 0 0 0 .623.512h-.001v.499l.001-.499h3.685a.629.629 0 0 0 .453-.19.629.629 0 0 0 .181-.455l-.733-39.03c.06.034.119.069.178.105m.234-.392-.417.007.005.28c-5.119-2.969-11.162-3.193-18.533-.579l-1.222 40.018v.001a.635.635 0 0 0 .609.652h.001l4.366.175h.027a.641.641 0 0 0 .631-.557v-.001l3.158-26.001m6.754 25.455-5.021-25.519Zm4.621-39.45.023-.038-.023.038m-.233.392.06.035.256-.429-.083.002" fill="#000"/><path d="M210.468 71.844a6.184 6.184 0 0 0 6.186-6.18 6.184 6.184 0 0 0-6.186-6.182 6.184 6.184 0 0 0-6.187 6.181 6.184 6.184 0 0 0 6.187 6.181Z" fill="#fff"/><path fill-rule="evenodd" clip-rule="evenodd" d="M210.468 71.344a5.683 5.683 0 0 0 5.686-5.68 5.683 5.683 0 0 0-5.686-5.682 5.684 5.684 0 0 0-5.687 5.681 5.684 5.684 0 0 0 5.687 5.681Zm6.186-5.68a6.184 6.184 0 0 1-6.186 6.18 6.184 6.184 0 0 1-6.187-6.18 6.184 6.184 0 0 1 6.187-6.182 6.184 6.184 0 0 1 6.186 6.181Z" fill="#000"/><path d="M181.383 88.381a1.137 1.137 0 0 1-.001-.676l.641-2.052a1.14 1.14 0 0 1 1.032-.793l8.117-.359 13.168-6.744a3.657 3.657 0 0 1 3.902 1.122c.31.367.544.79.689 1.248a3.631 3.631 0 0 1-.238 2.784 3.64 3.64 0 0 1-2.14 1.8l-8.07 4.676a11.691 11.691 0 0 1-8.11 1.358l-8.127-1.59a1.132 1.132 0 0 1-.863-.774Z" fill="#fff"/><path fill-rule="evenodd" clip-rule="evenodd" d="M181.86 88.232a.627.627 0 0 0 .483.431l8.127 1.591c2.659.521 5.418.06 7.762-1.3l8.118-4.704.052-.016a3.157 3.157 0 0 0 1.847-1.553 3.154 3.154 0 0 0 .206-2.403 3.159 3.159 0 0 0-1.557-1.843 3.154 3.154 0 0 0-2.368-.213l-13.227 6.774-8.225.363s.001 0 0 0a.639.639 0 0 0-.578.444l-.64 2.051m1.195-2.994a1.14 1.14 0 0 0-1.032.793l-.641 2.052a1.137 1.137 0 0 0 .43 1.264c.13.091.278.155.434.185l8.127 1.591a11.69 11.69 0 0 0 8.11-1.358l8.07-4.677a3.646 3.646 0 0 0 2.537-3.167 3.631 3.631 0 0 0-.159-1.416 3.647 3.647 0 0 0-4.591-2.37l-13.168 6.744-8.117.359Zm-1.195 3.372a.633.633 0 0 1 0-.378Z" fill="#000"/><path d="M226.703 103.615a1.139 1.139 0 0 1-.676.029l-2.079-.552a1.132 1.132 0 0 1-.838-.996l-.704-8.087-7.305-12.857a3.63 3.63 0 0 1 .115-2.792 3.655 3.655 0 0 1 4.853-1.772 3.663 3.663 0 0 1 1.891 2.059l5.02 7.856a11.661 11.661 0 0 1 1.704 8.037l-1.245 8.18a1.138 1.138 0 0 1-.736.895Z" fill="#fff"/><path fill-rule="evenodd" clip-rule="evenodd" d="m222.406 94.009.704 8.087a1.136 1.136 0 0 0 .838.996l2.079.552a1.139 1.139 0 0 0 1.245-.482c.086-.134.143-.285.167-.442l1.245-8.18a11.661 11.661 0 0 0-1.704-8.037l-5.02-7.856a3.663 3.663 0 0 0-3.276-2.397 3.654 3.654 0 0 0-3.804 3.495c-.02.479.055.957.221 1.407l7.305 12.857Zm-6.85-13.067a3.14 3.14 0 0 1 .114-2.371 3.141 3.141 0 0 1 1.776-1.632 3.158 3.158 0 0 1 3.405.828c.28.305.497.662.639 1.051l.019.052 5.05 7.902a11.164 11.164 0 0 1 1.631 7.693l-1.245 8.18a.63.63 0 0 1-.411.499.634.634 0 0 1-.378.017m0 0-2.078-.552a.64.64 0 0 1-.47-.557s0-.001 0 0l-.714-8.195-7.338-12.915" fill="#000"/><path d="M203.701 76.64a10.53 10.53 0 0 1 8.447-3.412c.104.006.207.014.309.022h.001a10.521 10.521 0 0 1 7.596 4.189 10.656 10.656 0 0 1 1.896 8.593 33.272 33.272 0 0 0 .881 17.081l1.659 5.149a1.121 1.121 0 0 1-.145.989 1.132 1.132 0 0 1-.873.489l-8.485.455-2.171-3.747v3.864l-10.313.554-.061.002a1.136 1.136 0 0 1-1.129-1.224l1.165-14.44-1.462-9.808a10.587 10.587 0 0 1 2.685-8.756Z" fill="#fff"/><path fill-rule="evenodd" clip-rule="evenodd" d="M212.117 73.727a10.047 10.047 0 0 0-8.047 3.25l-.369-.337a10.53 10.53 0 0 1 8.447-3.412 10.521 10.521 0 0 1 7.906 4.21 10.656 10.656 0 0 1 1.896 8.594 33.272 33.272 0 0 0 .881 17.081l1.659 5.149a1.121 1.121 0 0 1-.145.989 1.132 1.132 0 0 1-.873.489l-8.485.455-2.171-3.747v3.864l-10.313.554-.061.002a1.136 1.136 0 0 1-1.129-1.224l1.165-14.44-1.462-9.808a10.587 10.587 0 0 1 2.685-8.756l.367.34a10.078 10.078 0 0 0-2.557 8.341l1.47 9.866-1.17 14.497a.623.623 0 0 0 .166.48.63.63 0 0 0 .465.204m9.874-.53v-5.25l2.95 5.092 8.179-.44a.633.633 0 0 0 .569-.825l-1.659-5.148a33.773 33.773 0 0 1-.894-17.339 10.17 10.17 0 0 0-.018-4.29 10.166 10.166 0 0 0-1.789-3.9 10.008 10.008 0 0 0-7.227-3.99h-.009c-.099-.008-.2-.015-.301-.021m.199 36.111-9.839.529h-.004l-.031.001" fill="#000"/><path d="M214.767 71.564c-.572.33-2.837.548-2.998-.092l-.003-.014c-.113-.47-.019-.96.013-1.44.032-.482-.015-1.01-.343-1.365-.612-.66-1.7-.31-2.584-.476a2.185 2.185 0 0 1-1.698-2.329c.013-.1.032-.2.055-.3a1.676 1.676 0 0 0-.367-1.45 1.68 1.68 0 0 0-1.378-.584c-.894.051-1.859.322-2.598-.34-.572-.511-.711-1.842-.46-2.567.422-1.217 3.127-1.855 4.308-2.205a10.24 10.24 0 0 1 8.672 1.422c.746.525 1.443 1.185 1.761 2.04.318.854.164 1.932-.553 2.496a4.612 4.612 0 0 1 1.07 4.481c-.354 1.14-2.044 2.233-2.897 2.723Z" fill="#7247FF"/><path fill-rule="evenodd" clip-rule="evenodd" d="M207.697 65.654v.002c-.02.09-.036.17-.046.246a1.682 1.682 0 0 0 1.302 1.785c.173.032.367.04.592.042l.228-.001c.159-.001.333-.003.49.003.486.016 1.09.098 1.539.583.479.516.509 1.233.476 1.737-.008.117-.019.234-.03.344l-.003.032c-.011.121-.022.233-.028.343-.01.193-.006.36.022.51a.77.77 0 0 0 .114.04c.179.047.442.07.749.062.301-.007.615-.043.883-.094.284-.055.465-.118.533-.157a11.479 11.479 0 0 0 1.565-1.069c.558-.464.97-.943 1.103-1.366a4.116 4.116 0 0 0-.955-3.992l-.376-.398.43-.339c.498-.391.659-1.214.393-1.93-.265-.712-.863-1.3-1.578-1.804a9.738 9.738 0 0 0-8.246-1.351c-.134.04-.282.081-.44.126-.575.163-1.288.366-1.951.635-.42.17-.795.358-1.082.562-.292.209-.446.401-.503.566-.092.265-.123.692-.057 1.124.069.444.22.765.378.907l-.332.37.332-.37c.25.223.542.302.918.31.192.003.395-.012.619-.034l.156-.016c.174-.017.361-.036.542-.047a2.186 2.186 0 0 1 1.788.757 2.181 2.181 0 0 1 .475 1.883Zm-2.233-2.14a1.683 1.683 0 0 1 1.732 1.266c.064.251.068.514.013.768-.023.1-.042.2-.055.3a2.18 2.18 0 0 0 1.698 2.329c.299.056.622.053.942.05.624-.005 1.237-.01 1.642.426.328.354.375.883.343 1.364-.008.11-.018.22-.029.33-.035.374-.071.749.016 1.11l.003.015c.161.64 2.426.422 2.998.092.853-.49 2.543-1.583 2.897-2.722a4.61 4.61 0 0 0-1.07-4.482c.08-.063.154-.132.22-.207.526-.595.615-1.53.333-2.29-.318-.854-1.015-1.514-1.761-2.04a10.234 10.234 0 0 0-8.672-1.421c-.125.037-.267.077-.422.121-1.306.37-3.509.995-3.886 2.084-.251.725-.112 2.056.46 2.567.599.537 1.347.46 2.085.385.172-.018.344-.035.513-.045Zm6.743 7.749.004.003-.004-.003Z" fill="#000"/></g><defs><linearGradient id="b" x1="40.9" y1="103.894" x2="62.834" y2="103.98" gradientUnits="userSpaceOnUse"><stop stop-color="#4614E8"/><stop offset="1" stop-color="#BCA7FF"/></linearGradient><linearGradient id="c" x1="162.355" y1="64.509" x2="179.678" y2="68.504" gradientUnits="userSpaceOnUse"><stop stop-color="#4614E8"/><stop offset="1" stop-color="#BCA7FF"/></linearGradient><linearGradient id="d" x1="24.674" y1="38.16" x2="34.155" y2="44.74" gradientUnits="userSpaceOnUse"><stop stop-color="#4614E8"/><stop offset="1" stop-color="#BCA7FF"/></linearGradient><linearGradient id="e" x1="37.222" y1="29.194" x2="49.496" y2="33.859" gradientUnits="userSpaceOnUse"><stop stop-color="#4614E8"/><stop offset="1" stop-color="#BCA7FF"/></linearGradient><linearGradient id="f" x1="49.77" y1="38.16" x2="59.251" y2="44.74" gradientUnits="userSpaceOnUse"><stop stop-color="#4614E8"/><stop offset="1" stop-color="#BCA7FF"/></linearGradient><linearGradient id="g" x1="62.318" y1="25.654" x2="75.042" y2="29.758" gradientUnits="userSpaceOnUse"><stop stop-color="#4614E8"/><stop offset="1" stop-color="#BCA7FF"/></linearGradient><linearGradient id="h" x1="74.866" y1="19.284" x2="88.066" y2="22.629" gradientUnits="userSpaceOnUse"><stop stop-color="#4614E8"/><stop offset="1" stop-color="#BCA7FF"/></linearGradient><clipPath id="a"><path fill="#fff" d="M0 0h231v161H0z"/></clipPath></defs></svg>