<svg width="42" height="62" fill="none" xmlns="http://www.w3.org/2000/svg"><path d="m21 0 7.485 9.356v24.576h5.614V13.099C34.099 5.864 28.234 0 21 0Z" fill="url(#a)"/><path d="M21 0C13.766 0 7.902 5.864 7.902 13.099V25.51c0 .517.419.936.935.936h5.614a.936.936 0 0 0 .935-.936v-1.87a.936.936 0 0 0-.935-.936h-.88c-1.04 0-1.922-.823-1.927-1.862-.002-.52.208-.992.548-1.332l2.92-2.92a.935.935 0 0 0 .274-.662V13.19c0-3.079 2.44-5.654 5.518-5.705a5.614 5.614 0 0 1 5.71 5.613v20.833h3.742V13.099C30.356 5.864 26.167 0 21 0Z" fill="url(#b)"/><path d="M7.278 52.644h27.445v7.485H7.278v-7.485Z" fill="#77839D"/><path d="M7.278 52.644h27.445v7.485H7.278v-7.485Z" fill="url(#c)"/><path d="M37.841 30.19H34.1V62h3.742a3.742 3.742 0 0 0 3.743-3.742V33.932a3.742 3.742 0 0 0-3.743-3.743Z" fill="url(#d)"/><path d="M37.841 58.258V33.932a3.742 3.742 0 0 0-3.742-3.743H4.159a3.742 3.742 0 0 0-3.742 3.743v24.326A3.742 3.742 0 0 0 4.159 62h5.113a.935.935 0 0 0 .778-.417l3.465-5.197h14.97l3.465 5.197c.173.26.465.417.778.417h1.37a3.742 3.742 0 0 0 3.743-3.742Z" fill="url(#e)"/><path d="M19.129 44.725v3.24a1.871 1.871 0 0 0 3.742 0v-3.24H19.13Z" fill="#626A7C"/><path d="M19.129 44.725v3.24a1.871 1.871 0 0 0 3.742 0v-3.24H19.13Z" fill="url(#f)"/><path d="M21 36.739a3.742 3.742 0 0 0-3.24 5.613l1.369 2.373c.831 1.44 2.91 1.44 3.742 0l1.37-2.373A3.742 3.742 0 0 0 21 36.738Z" fill="url(#g)"/><defs><linearGradient id="a" x1="23.825" y1="0" x2="34.099" y2="0" gradientUnits="userSpaceOnUse"><stop stop-color="#E1D8FF"/><stop offset="1" stop-color="#F4ECFF"/></linearGradient><linearGradient id="b" x1="12.745" y1="0" x2="30.356" y2="0" gradientUnits="userSpaceOnUse"><stop stop-color="#E1D8FF"/><stop offset="1" stop-color="#F4ECFF"/></linearGradient><linearGradient id="c" x1="9.565" y1="54.515" x2="35.751" y2="58.28" gradientUnits="userSpaceOnUse"><stop stop-color="#4614E8"/><stop offset="1" stop-color="#BCA7FF"/></linearGradient><linearGradient id="d" x1="35.713" y1="30.189" x2="41.584" y2="30.189" gradientUnits="userSpaceOnUse"><stop stop-color="#E1D8FF"/><stop offset="1" stop-color="#F4ECFF"/></linearGradient><linearGradient id="e" x1="19.129" y1="62" x2="19.129" y2="30.189" gradientUnits="userSpaceOnUse"><stop stop-color="#BBA6FF"/><stop offset="1" stop-color="#E3D7FA"/></linearGradient><linearGradient id="f" x1="19.441" y1="46.003" x2="23.082" y2="46.107" gradientUnits="userSpaceOnUse"><stop stop-color="#4614E8"/><stop offset="1" stop-color="#BCA7FF"/></linearGradient><linearGradient id="g" x1="18.732" y1="37.502" x2="26.292" y2="38.99" gradientUnits="userSpaceOnUse"><stop stop-color="#4614E8"/><stop offset="1" stop-color="#BCA7FF"/></linearGradient></defs></svg>