<svg width="75" height="58" fill="none" xmlns="http://www.w3.org/2000/svg"><path opacity=".7" d="M56.855 29c0 16.016-12.727 29-28.428 29C12.727 58 0 45.016 0 29S12.727 0 28.427 0s28.428 12.984 28.428 29Z" fill="url(#a)"/><path fill-rule="evenodd" clip-rule="evenodd" d="M28.427 50.064c11.315 0 20.59-9.374 20.59-21.064S39.741 7.936 28.426 7.936C17.113 7.936 7.84 17.31 7.84 29s9.274 21.064 20.588 21.064Zm0 3c13.028 0 23.59-10.774 23.59-24.064 0-13.29-10.562-24.064-23.59-24.064C15.4 4.936 4.84 15.71 4.84 29c0 13.29 10.56 24.064 23.588 24.064Z" fill="#CDBBEF" fill-opacity=".3"/><path opacity=".7" d="M75 29c0 16.016-12.727 29-28.427 29S18.145 45.016 18.145 29 30.873 0 46.573 0C62.273 0 75 12.984 75 29Z" fill="url(#b)"/><path fill-rule="evenodd" clip-rule="evenodd" d="M47.178 50.064c11.314 0 20.588-9.374 20.588-21.064S58.492 7.936 47.177 7.936C35.864 7.936 26.59 17.31 26.59 29s9.274 21.064 20.589 21.064Zm0 3c13.027 0 23.588-10.774 23.588-24.064 0-13.29-10.56-24.064-23.589-24.064C34.15 4.936 23.59 15.71 23.59 29c0 13.29 10.56 24.064 23.589 24.064Z" fill="#CDBBEF"/><path d="M46.065 40.54v-2.96c-2.981-.316-5.594-1.293-7.84-2.932l2.614-3.94c1.858 1.324 3.658 2.133 5.4 2.43v-3.555c-2.439-.572-4.23-1.342-5.371-2.31-1.123-.967-1.684-2.35-1.684-4.146 0-1.777.61-3.219 1.829-4.324 1.22-1.126 2.922-1.767 5.11-1.925V15.19h3.019v1.776a13.307 13.307 0 0 1 6.126 2.31l-2.38 3.97c-1.143-.83-2.44-1.422-3.891-1.778v3.436c2.4.573 4.151 1.352 5.255 2.34 1.122.987 1.683 2.379 1.683 4.176 0 1.777-.619 3.208-1.858 4.294-1.219 1.086-2.883 1.728-4.993 1.925v2.903h-3.02Zm2.903-7.226c1.296-.138 1.945-.661 1.945-1.57 0-.414-.145-.74-.436-.977-.27-.257-.774-.494-1.51-.71v3.257Zm-2.7-8.915v-3.198c-1.316.118-1.974.632-1.974 1.54 0 .395.135.72.406.977.29.237.813.464 1.568.681Z" fill="url(#c)"/><defs><linearGradient id="a" x1="12.263" y1="0" x2="56.855" y2="0" gradientUnits="userSpaceOnUse"><stop stop-color="#E1D8FF"/><stop offset="1" stop-color="#F4ECFF"/></linearGradient><linearGradient id="b" x1="30.408" y1="0" x2="75" y2="0" gradientUnits="userSpaceOnUse"><stop stop-color="#E1D8FF"/><stop offset="1" stop-color="#F4ECFF"/></linearGradient><linearGradient id="c" x1="47.081" y1="15.188" x2="47.081" y2="40.541" gradientUnits="userSpaceOnUse"><stop stop-color="#4614E8"/><stop offset="1" stop-color="#BCA7FF"/></linearGradient></defs></svg>