<svg width="58" height="58" fill="none" xmlns="http://www.w3.org/2000/svg"><g clip-path="url(#a)"><path d="M38.557 18.593a19.08 19.08 0 0 1 19.44 18.763 19.236 19.236 0 0 1-.446 4.52c-.542 2.458-.865 4.959-.865 7.476v4.865a1.35 1.35 0 0 1-1.35 1.35h-4.864c-2.517 0-5.019.322-7.476.864a19.25 19.25 0 0 1-4.52.446 19.08 19.08 0 0 1-18.763-19.439c.157-10.337 8.507-18.687 18.844-18.845Z" fill="url(#b)" fill-opacity=".5"/><path fill-rule="evenodd" clip-rule="evenodd" d="M54.997 37.414a16.08 16.08 0 0 0-16.394-15.821c-8.716.133-15.758 7.175-15.89 15.89a16.08 16.08 0 0 0 15.821 16.394 16.23 16.23 0 0 0 3.815-.375c2.63-.58 5.35-.935 8.123-.935h3.214v-3.215c0-2.772.355-5.492.935-8.122m-11.625 15.2a19.25 19.25 0 0 1-4.52.446 19.08 19.08 0 0 1-18.763-19.439C19.87 27.1 28.22 18.75 38.557 18.592a19.08 19.08 0 0 1 19.44 18.763 19.236 19.236 0 0 1-.446 4.52c-.542 2.458-.865 4.959-.865 7.476v4.865a1.35 1.35 0 0 1-1.35 1.35h-4.864c-2.517 0-5.019.322-7.476.864Zm12-19.017a16.227 16.227 0 0 1-.375 3.816Z" fill="#CDBBEF" fill-opacity=".2"/><path d="M23.687 1.122A23.245 23.245 0 0 0 .004 23.982a23.43 23.43 0 0 0 .543 5.505c.66 2.994 1.053 6.042 1.053 9.108v5.927c0 .908.736 1.644 1.645 1.644h5.927c3.066 0 6.113.393 9.107 1.053 1.769.39 3.613.58 5.506.543a23.245 23.245 0 0 0 22.86-23.682C46.451 11.487 36.28 1.315 23.686 1.122Z" fill="url(#c)"/><path d="M12.346 29.278a3.613 3.613 0 1 0 0-7.225 3.613 3.613 0 0 0 0 7.225Z" fill="#fff"/><path d="M12.346 29.278a3.613 3.613 0 1 0 0-7.225 3.613 3.613 0 0 0 0 7.225Z" fill="url(#d)"/><path d="M22.563 29.278a3.613 3.613 0 1 0 0-7.225 3.613 3.613 0 0 0 0 7.225Z" fill="#fff"/><path d="M22.563 29.278a3.613 3.613 0 1 0 0-7.225 3.613 3.613 0 0 0 0 7.225Z" fill="url(#e)"/><path d="M32.78 29.278a3.613 3.613 0 1 0 0-7.225 3.613 3.613 0 0 0 0 7.225Z" fill="#fff"/><path d="M32.78 29.278a3.613 3.613 0 1 0 0-7.225 3.613 3.613 0 0 0 0 7.225Z" fill="url(#f)"/></g><defs><linearGradient id="b" x1="27.969" y1="18.591" x2="58" y2="18.591" gradientUnits="userSpaceOnUse"><stop stop-color="#E1D8FF"/><stop offset="1" stop-color="#F4ECFF"/></linearGradient><linearGradient id="c" x1="10.061" y1="1.12" x2="46.647" y2="1.12" gradientUnits="userSpaceOnUse"><stop stop-color="#E1D8FF"/><stop offset="1" stop-color="#F4ECFF"/></linearGradient><linearGradient id="d" x1="12.346" y1="22.053" x2="12.346" y2="29.278" gradientUnits="userSpaceOnUse"><stop stop-color="#4614E8"/><stop offset="1" stop-color="#BCA7FF"/></linearGradient><linearGradient id="e" x1="22.563" y1="22.053" x2="22.563" y2="29.278" gradientUnits="userSpaceOnUse"><stop stop-color="#4614E8"/><stop offset="1" stop-color="#BCA7FF"/></linearGradient><linearGradient id="f" x1="32.78" y1="22.053" x2="32.78" y2="29.278" gradientUnits="userSpaceOnUse"><stop stop-color="#4614E8"/><stop offset="1" stop-color="#BCA7FF"/></linearGradient><clipPath id="a"><path fill="#fff" d="M0 0h58v58H0z"/></clipPath></defs></svg>