<svg width="45" height="62" fill="none" xmlns="http://www.w3.org/2000/svg"><path d="M4 9a5 5 0 0 1 5-5h31a5 5 0 0 1 5 5v48a5 5 0 0 1-5 5H9a5 5 0 0 1-5-5V9Z" fill="url(#a)"/><path d="M0 5a5 5 0 0 1 5-5h31a5 5 0 0 1 5 5v49a5 5 0 0 1-5 5H5a5 5 0 0 1-5-5V5Z" fill="url(#b)" fill-opacity=".5"/><path fill-rule="evenodd" clip-rule="evenodd" d="M40.935 50.51a3.17 3.17 0 0 0-.057.494c0 .16.026.333.055.516.058.366.117.744-.031 1.1-.148.358-.458.582-.757.8-.15.108-.292.21-.406.325-.107.106-.205.243-.31.388-.207.29-.443.618-.816.772-.171.07-.348.095-.523.095-.206 0-.41-.034-.6-.065a3.17 3.17 0 0 0-.494-.057h-.002c-.16 0-.332.027-.514.055-.366.058-.744.117-1.1-.031-.358-.148-.582-.458-.8-.757a3.396 3.396 0 0 0-.325-.406 3.163 3.163 0 0 0-.388-.31c-.29-.207-.618-.443-.772-.816-.154-.373-.088-.771-.03-1.123a3.06 3.06 0 0 0 .057-.494c0-.16-.027-.333-.055-.516-.058-.366-.117-.744.031-1.1.148-.358.458-.582.757-.8.15-.108.292-.21.406-.325.107-.106.205-.243.31-.388.207-.29.443-.618.816-.772.373-.154.771-.088 1.123-.03.176.03.343.057.494.057h.002c.16 0 .332-.027.514-.055.366-.058.744-.117 1.1.031.358.148.582.458.8.757.108.15.21.292.325.406.106.107.243.205.388.31.29.207.618.443.772.816.154.373.088.771.03 1.123Zm-6.824 1.71c.127.302.3.579.512.825l.333-.332a2.667 2.667 0 0 1 3.757-3.757l.332-.333A3.119 3.119 0 0 0 37 47.864a3.117 3.117 0 0 0-2.217.919A3.127 3.127 0 0 0 33.864 51c0 .423.083.834.247 1.22Zm5.106.997A3.125 3.125 0 0 0 40.136 51a3.116 3.116 0 0 0-.76-2.045l-.332.332a2.667 2.667 0 0 1-3.757 3.757l-.332.333a3.119 3.119 0 0 0 2.045.759 3.117 3.117 0 0 0 2.217-.919Z" fill="url(#c)"/><path fill-rule="evenodd" clip-rule="evenodd" d="M40.967 14.5a1.5 1.5 0 0 0-1.5-1.5H11.55a1.5 1.5 0 0 0 0 3h27.918a1.5 1.5 0 0 0 1.5-1.5Z" fill="url(#d)"/><path fill-rule="evenodd" clip-rule="evenodd" d="M40.967 20.5a1.5 1.5 0 0 0-1.5-1.5H11.55a1.5 1.5 0 0 0 0 3h27.918a1.5 1.5 0 0 0 1.5-1.5Z" fill="url(#e)"/><path fill-rule="evenodd" clip-rule="evenodd" d="M40.967 26.5a1.5 1.5 0 0 0-1.5-1.5H11.55a1.5 1.5 0 0 0 0 3h27.918a1.5 1.5 0 0 0 1.5-1.5Z" fill="url(#f)"/><path fill-rule="evenodd" clip-rule="evenodd" d="M40.967 32.5a1.5 1.5 0 0 0-1.5-1.5H11.55a1.5 1.5 0 0 0 0 3h27.918a1.5 1.5 0 0 0 1.5-1.5Z" fill="url(#g)"/><path fill-rule="evenodd" clip-rule="evenodd" d="M22.148 50.833a1.5 1.5 0 0 1-1.5 1.5h-9.099a1.5 1.5 0 1 1 0-3h9.099a1.5 1.5 0 0 1 1.5 1.5Z" fill="url(#h)"/><defs><linearGradient id="a" x1="12.843" y1="4" x2="45" y2="4" gradientUnits="userSpaceOnUse"><stop stop-color="#E1D8FF"/><stop offset="1" stop-color="#F4ECFF"/></linearGradient><linearGradient id="b" x1="8.843" y1="0" x2="41" y2="0" gradientUnits="userSpaceOnUse"><stop stop-color="#E1D8FF"/><stop offset="1" stop-color="#F4ECFF"/></linearGradient><linearGradient id="c" x1="37" y1="47" x2="37" y2="55" gradientUnits="userSpaceOnUse"><stop stop-color="#4614E8"/><stop offset="1" stop-color="#BCA7FF"/></linearGradient><linearGradient id="d" x1="38.279" y1="16" x2="13.746" y2="16" gradientUnits="userSpaceOnUse"><stop stop-color="#BBA6FF"/><stop offset="1" stop-color="#CDBBEF"/></linearGradient><linearGradient id="e" x1="38.279" y1="22" x2="13.746" y2="22" gradientUnits="userSpaceOnUse"><stop stop-color="#BBA6FF"/><stop offset="1" stop-color="#CDBBEF"/></linearGradient><linearGradient id="f" x1="38.279" y1="28" x2="13.746" y2="28" gradientUnits="userSpaceOnUse"><stop stop-color="#BBA6FF"/><stop offset="1" stop-color="#CDBBEF"/></linearGradient><linearGradient id="g" x1="38.279" y1="34" x2="13.746" y2="34" gradientUnits="userSpaceOnUse"><stop stop-color="#BBA6FF"/><stop offset="1" stop-color="#CDBBEF"/></linearGradient><linearGradient id="h" x1="21.096" y1="49.333" x2="11.496" y2="49.333" gradientUnits="userSpaceOnUse"><stop stop-color="#BBA6FF"/><stop offset="1" stop-color="#CDBBEF"/></linearGradient></defs></svg>