<svg width="44" height="62" fill="none" xmlns="http://www.w3.org/2000/svg"><path d="M0 5a5 5 0 0 1 5-5h28.383a5 5 0 0 1 5 5v44.597a5 5 0 0 1-5 5H5a5 5 0 0 1-5-5V5Z" fill="url(#a)" fill-opacity=".5"/><path d="M38.968 62H8.777c-2.775 0-5.032-2.262-5.032-5.042V9.67c0-2.781 2.257-5.043 5.032-5.043h30.191C41.743 4.627 44 6.889 44 9.67v47.288C44 59.738 41.743 62 38.968 62Z" fill="url(#b)"/><path d="M35.613 11.35H12.131c-.927 0-1.677.752-1.677 1.681v13.447c0 .93.75 1.68 1.677 1.68h23.482c.928 0 1.678-.75 1.678-1.68V13.031c0-.929-.75-1.68-1.678-1.68ZM15.486 31.52H12.13c-.927 0-1.677.752-1.677 1.681 0 .93.75 1.681 1.677 1.681h3.355c.927 0 1.677-.752 1.677-1.68 0-.93-.75-1.681-1.677-1.681Zm0 6.724H12.13c-.927 0-1.677.752-1.677 1.68 0 .93.75 1.682 1.677 1.682h3.355c.927 0 1.677-.752 1.677-1.681 0-.93-.75-1.681-1.677-1.681Zm6.709 3.362h3.355c.927 0 1.677-.752 1.677-1.681 0-.93-.75-1.681-1.677-1.681h-3.355c-.927 0-1.677.752-1.677 1.68 0 .93.75 1.682 1.677 1.682Zm13.418-3.362H32.26c-.927 0-1.678.752-1.678 1.68 0 .93.75 1.682 1.678 1.682h3.354c.928 0 1.678-.752 1.678-1.681 0-.93-.75-1.681-1.678-1.681Zm0 6.723H32.26c-.927 0-1.678.752-1.678 1.681 0 .93.75 1.681 1.678 1.681h3.354c.928 0 1.678-.752 1.678-1.68 0-.93-.75-1.682-1.678-1.682ZM22.195 48.33h3.355c.927 0 1.677-.752 1.677-1.68 0-.93-.75-1.682-1.677-1.682h-3.355c-.927 0-1.677.752-1.677 1.681 0 .93.75 1.681 1.677 1.681Zm-6.71-3.362h-3.354c-.927 0-1.677.752-1.677 1.681 0 .93.75 1.681 1.677 1.681h3.355c.927 0 1.677-.752 1.677-1.68 0-.93-.75-1.682-1.677-1.682Zm0 6.724h-3.354c-.927 0-1.677.752-1.677 1.68 0 .93.75 1.681 1.677 1.681h3.355c.927 0 1.677-.751 1.677-1.68 0-.93-.75-1.681-1.677-1.681Zm20.128 0H22.195c-.927 0-1.677.752-1.677 1.68 0 .93.75 1.681 1.677 1.681h13.418c.928 0 1.678-.751 1.678-1.68 0-.93-.75-1.681-1.678-1.681Zm-13.418-16.81h3.355c.927 0 1.677-.752 1.677-1.68 0-.93-.75-1.681-1.677-1.681h-3.355c-.927 0-1.677.751-1.677 1.68 0 .93.75 1.681 1.677 1.681Zm13.418-3.361H32.26c-.927 0-1.678.751-1.678 1.68 0 .93.75 1.681 1.678 1.681h3.354c.928 0 1.678-.752 1.678-1.68 0-.93-.75-1.681-1.678-1.681Z" fill="url(#c)"/><path d="M20.596 53.672a1.85 1.85 0 0 1 1.85-1.851h13.15a1.85 1.85 0 1 1 0 3.701h-13.15a1.85 1.85 0 0 1-1.85-1.85Z" fill="url(#d)"/><defs><linearGradient id="a" x1="8.279" y1="0" x2="38.383" y2="0" gradientUnits="userSpaceOnUse"><stop stop-color="#E1D8FF"/><stop offset="1" stop-color="#F4ECFF"/></linearGradient><linearGradient id="b" x1="12.427" y1="4.627" x2="44" y2="4.627" gradientUnits="userSpaceOnUse"><stop stop-color="#E1D8FF"/><stop offset="1" stop-color="#F4ECFF"/></linearGradient><linearGradient id="c" x1="23.872" y1="55.053" x2="23.872" y2="11.35" gradientUnits="userSpaceOnUse"><stop stop-color="#BBA6FF"/><stop offset="1" stop-color="#E3D7FA"/></linearGradient><linearGradient id="d" x1="22" y1="52.746" x2="37.904" y2="55.585" gradientUnits="userSpaceOnUse"><stop stop-color="#4614E8"/><stop offset="1" stop-color="#BCA7FF"/></linearGradient></defs></svg>