<svg width="40" height="40" fill="none" xmlns="http://www.w3.org/2000/svg"><path d="M18.579 9.219c0 5.09-4.16 9.218-9.29 9.218C4.16 18.437 0 14.31 0 9.22 0 4.127 4.159 0 9.29 0c5.13 0 9.289 4.127 9.289 9.219Z" fill="#F1F5F8"/><path fill-rule="evenodd" clip-rule="evenodd" d="M9.29 18.037c4.912 0 8.889-3.951 8.889-8.818C18.179 4.35 14.202.4 9.289.4 4.377.4.4 4.351.4 9.219c0 4.867 3.977 8.818 8.89 8.818Zm0 .4c5.13 0 9.289-4.127 9.289-9.218 0-5.092-4.16-9.219-9.29-9.219C4.16 0 0 4.127 0 9.219c0 5.09 4.159 9.218 9.29 9.218Z" fill="#000"/><path d="M18.579 30.782c0 5.09-4.16 9.218-9.29 9.218C4.16 40 0 35.873 0 30.782c0-5.092 4.159-9.22 9.29-9.22 5.13 0 9.289 4.128 9.289 9.22Z" fill="#F1F5F8"/><path fill-rule="evenodd" clip-rule="evenodd" d="M9.29 39.6c4.912 0 8.889-3.951 8.889-8.819 0-4.867-3.977-8.818-8.89-8.818C4.377 21.963.4 25.914.4 30.782c0 4.867 3.977 8.818 8.89 8.818Zm0 .4c5.13 0 9.289-4.127 9.289-9.218 0-5.092-4.16-9.22-9.29-9.22C4.16 21.563 0 25.69 0 30.783 0 35.871 4.159 40 9.29 40Z" fill="#000"/><path d="M40 9.219c0 5.09-4.159 9.218-9.29 9.218-5.13 0-9.289-4.127-9.289-9.218 0-5.092 4.16-9.219 9.29-9.219C35.84 0 40 4.127 40 9.219Z" fill="#F1F5F8"/><path fill-rule="evenodd" clip-rule="evenodd" d="M30.71 18.037c4.913 0 8.89-3.951 8.89-8.818C39.6 4.35 35.623.4 30.71.4c-4.912 0-8.889 3.951-8.889 8.819 0 4.867 3.977 8.818 8.89 8.818Zm0 .4c5.131 0 9.29-4.127 9.29-9.218C40 4.127 35.841 0 30.71 0c-5.13 0-9.289 4.127-9.289 9.219 0 5.09 4.16 9.218 9.29 9.218Z" fill="#000"/><path d="M40 30.782C40 35.871 35.841 40 30.71 40c-5.13 0-9.289-4.127-9.289-9.218 0-5.092 4.16-9.219 9.29-9.219 5.13 0 9.289 4.127 9.289 9.219Z" fill="url(#a)"/><path fill-rule="evenodd" clip-rule="evenodd" d="M9.266 2.638c-3.632 0-6.596 2.925-6.596 6.557 0 3.633 2.964 6.558 6.596 6.558v-3c-1.997 0-3.596-1.604-3.596-3.558 0-1.954 1.599-3.557 3.596-3.557v-3Z" fill="#F1F5F8"/><path fill-rule="evenodd" clip-rule="evenodd" d="M9.066 2.84C5.634 2.947 2.87 5.743 2.87 9.196c0 3.454 2.764 6.25 6.196 6.355v-2.602c-2.012-.103-3.596-1.753-3.596-3.753s1.584-3.649 3.596-3.752V2.84ZM2.47 9.196c0-3.744 3.055-6.757 6.796-6.757h.2v3.4h-.2c-1.888 0-3.396 1.515-3.396 3.357 0 1.842 1.508 3.358 3.396 3.358h.2v3.4h-.2c-3.741 0-6.796-3.013-6.796-6.758Z" fill="#000"/><path fill-rule="evenodd" clip-rule="evenodd" d="M30.346 2.638c-3.632 0-6.596 2.925-6.596 6.557 0 3.633 2.964 6.558 6.596 6.558v-3c-1.997 0-3.596-1.604-3.596-3.558 0-1.954 1.599-3.557 3.596-3.557v-3Z" fill="#F1F5F8"/><path fill-rule="evenodd" clip-rule="evenodd" d="M30.146 2.84c-3.431.106-6.196 2.902-6.196 6.355 0 3.454 2.765 6.25 6.196 6.355v-2.602c-2.012-.103-3.596-1.753-3.596-3.753s1.584-3.649 3.596-3.752V2.84ZM23.55 9.196c0-3.744 3.055-6.757 6.796-6.757h.2v3.4h-.2c-1.888 0-3.396 1.515-3.396 3.357 0 1.842 1.508 3.358 3.396 3.358h.2v3.4h-.2c-3.741 0-6.796-3.013-6.796-6.758Z" fill="#000"/><path fill-rule="evenodd" clip-rule="evenodd" d="M9.266 24.017c-3.632 0-6.596 2.925-6.596 6.558 0 3.632 2.964 6.557 6.596 6.557v-3c-1.997 0-3.596-1.603-3.596-3.557s1.599-3.558 3.596-3.558v-3Z" fill="#F1F5F8"/><path fill-rule="evenodd" clip-rule="evenodd" d="M9.066 24.22c-3.432.105-6.196 2.901-6.196 6.355 0 3.453 2.764 6.25 6.196 6.354v-2.602c-2.012-.103-3.596-1.752-3.596-3.752 0-2 1.584-3.65 3.596-3.753V24.22ZM2.47 30.575c0-3.745 3.055-6.758 6.796-6.758h.2v3.4h-.2c-1.888 0-3.396 1.516-3.396 3.358s1.508 3.357 3.396 3.357h.2v3.4h-.2c-3.741 0-6.796-3.013-6.796-6.757Z" fill="#000"/><defs><linearGradient id="a" x1="30.711" y1="21.563" x2="30.711" y2="40" gradientUnits="userSpaceOnUse"><stop stop-color="#4614E8"/><stop offset="1" stop-color="#BCA7FF"/></linearGradient></defs></svg>