<svg width="53" height="40" fill="none" xmlns="http://www.w3.org/2000/svg"><path d="M40.178 20c0 11.046-8.994 20-20.09 20C8.995 40 0 31.046 0 20S8.994 0 20.089 0c11.095 0 20.089 8.954 20.089 20Z" fill="#F4F7FA"/><path fill-rule="evenodd" clip-rule="evenodd" d="M20.089 39.6c10.875 0 19.689-8.777 19.689-19.6 0-10.823-8.814-19.6-19.69-19.6C9.214.4.4 9.177.4 20c0 10.823 8.813 19.6 19.689 19.6Zm0 .4c11.095 0 20.089-8.954 20.089-20S31.184 0 20.088 0C8.995 0 0 8.954 0 20s8.994 20 20.089 20Z" fill="#000"/><path fill-rule="evenodd" clip-rule="evenodd" d="M20.089 36.196c8.987 0 16.27-7.253 16.27-16.196 0-8.943-7.283-16.196-16.27-16.196-8.987 0-16.27 7.253-16.27 16.196 0 8.943 7.283 16.196 16.27 16.196Zm0 .4c9.206 0 16.67-7.43 16.67-16.596S29.294 3.404 20.088 3.404 3.418 10.834 3.418 20s7.464 16.596 16.67 16.596Z" fill="#000" fill-opacity=".3"/><path d="M53 20c0 11.046-8.994 20-20.089 20-11.095 0-20.089-8.954-20.089-20S21.816 0 32.911 0C44.006 0 53 8.954 53 20Z" fill="#F4F7FA"/><path fill-rule="evenodd" clip-rule="evenodd" d="M32.911 39.6C43.786 39.6 52.6 30.823 52.6 20 52.6 9.177 43.786.4 32.91.4S13.222 9.177 13.222 20c0 10.823 8.814 19.6 19.689 19.6Zm0 .4C44.006 40 53 31.046 53 20S44.006 0 32.91 0C21.816 0 12.822 8.954 12.822 20s8.994 20 20.089 20Z" fill="#000"/><path fill-rule="evenodd" clip-rule="evenodd" d="M33.339 36.196c8.987 0 16.27-7.253 16.27-16.196 0-8.943-7.283-16.196-16.27-16.196-8.987 0-16.27 7.253-16.27 16.196 0 8.943 7.283 16.196 16.27 16.196Zm0 .4c9.206 0 16.67-7.43 16.67-16.596S42.544 3.404 33.338 3.404 16.668 10.834 16.668 20s7.464 16.596 16.67 16.596Z" fill="#000"/><path d="M32.648 29.471v-2.218c-1.946-.248-3.674-.944-5.181-2.086l1.712-2.503c1.26.952 2.452 1.545 3.58 1.779v-3.491c-1.64-.44-2.84-1.01-3.602-1.713-.746-.717-1.12-1.713-1.12-2.986 0-1.2.418-2.181 1.252-2.943.834-.76 1.954-1.215 3.36-1.361v-1.274h2.283v1.318a9.176 9.176 0 0 1 4.084 1.625l-1.471 2.569c-.937-.63-1.844-1.062-2.723-1.296v3.316c1.684.454 2.899 1.054 3.645 1.8.747.732 1.12 1.72 1.12 2.965 0 1.2-.424 2.18-1.274 2.942-.834.761-1.961 1.222-3.38 1.383v2.174h-2.285Zm.11-11.813v-2.964c-1.01.131-1.515.6-1.515 1.405 0 .351.103.651.308.9.22.234.622.454 1.207.659Zm2.064 6.895c1.04-.161 1.56-.645 1.56-1.45 0-.38-.118-.688-.352-.922-.22-.249-.622-.483-1.208-.703v3.075Z" fill="url(#a)"/><defs><linearGradient id="a" x1="33.339" y1="15.319" x2="33.339" y2="24.681" gradientUnits="userSpaceOnUse"><stop stop-color="#4614E8"/><stop offset="1" stop-color="#BCA7FF"/></linearGradient></defs></svg>