<svg width="44" height="42" fill="none" xmlns="http://www.w3.org/2000/svg"><path d="M40 22c0 11.046-8.954 20-20 20S0 33.046 0 22 8.954 2 20 2s20 8.954 20 20Z" fill="#F4F7FA"/><path fill-rule="evenodd" clip-rule="evenodd" d="M20 41.6c10.825 0 19.6-8.775 19.6-19.6 0-10.825-8.775-19.6-19.6-19.6C9.175 2.4.4 11.175.4 22 .4 32.825 9.175 41.6 20 41.6Zm0 .4c11.046 0 20-8.954 20-20S31.046 2 20 2 0 10.954 0 22s8.954 20 20 20Z" fill="#000"/><g clip-path="url(#a)"><path d="m25.32 24.555-4.035-3.026v-6.163a1.12 1.12 0 1 0-2.241 0v6.724c0 .353.165.686.448.896l4.482 3.362c.202.152.438.225.672.225.342 0 .678-.154.898-.45a1.119 1.119 0 0 0-.225-1.568Z" fill="#F4F7FA"/><path fill-rule="evenodd" clip-rule="evenodd" d="m25.08 24.875-4.195-3.146v-6.363a.72.72 0 1 0-1.442 0v6.724c0 .227.107.441.288.576l4.483 3.362c.13.098.281.145.432.145.222 0 .436-.1.576-.288l.002-.003a.719.719 0 0 0-.145-1.007Zm.24-.32-4.035-3.026v-6.163a1.12 1.12 0 1 0-2.241 0v6.724c0 .353.165.686.448.896l4.482 3.362c.202.152.438.225.672.225.342 0 .678-.154.898-.45a1.119 1.119 0 0 0-.225-1.568Z" fill="#000"/><path d="M20.164 7.532c-7.978 0-14.468 6.49-14.468 14.468s6.49 14.468 14.468 14.468S34.632 29.978 34.632 22 28.142 7.532 20.164 7.532Zm0 26.695c-6.74 0-12.226-5.486-12.226-12.227 0-6.74 5.485-12.227 12.226-12.227 6.742 0 12.227 5.486 12.227 12.227 0 6.74-5.486 12.227-12.227 12.227Z" fill="#F4F7FA"/><path fill-rule="evenodd" clip-rule="evenodd" d="M20.164 7.932c-7.757 0-14.068 6.31-14.068 14.068 0 7.757 6.311 14.068 14.068 14.068 7.758 0 14.068-6.31 14.068-14.068 0-7.757-6.31-14.068-14.068-14.068Zm0 26.695c-6.962 0-12.626-5.665-12.626-12.627 0-6.962 5.664-12.627 12.626-12.627 6.963 0 12.627 5.665 12.627 12.627 0 6.962-5.665 12.627-12.627 12.627ZM5.696 22c0-7.978 6.49-14.468 14.468-14.468S34.632 14.022 34.632 22s-6.49 14.468-14.468 14.468S5.696 29.978 5.696 22Zm2.242 0c0 6.74 5.485 12.227 12.226 12.227 6.741 0 12.227-5.486 12.227-12.227 0-6.74-5.485-12.227-12.227-12.227-6.74 0-12.226 5.486-12.226 12.227Z" fill="#000"/></g><path fill-rule="evenodd" clip-rule="evenodd" d="M26.775.302c5.224 1.322 9.142 6.834 9.142 13.432 0 6.598-3.918 12.109-9.142 13.432.928.197 1.89.301 2.877.301 7.585 0 13.734-6.148 13.734-13.733C43.386 6.149 37.237 0 29.652 0c-.987 0-1.95.104-2.877.302Z" fill="#7247FF"/><path fill-rule="evenodd" clip-rule="evenodd" d="M26.775.302c5.224 1.322 9.142 6.834 9.142 13.432 0 6.598-3.918 12.109-9.142 13.432.928.197 1.89.301 2.877.301 7.585 0 13.734-6.148 13.734-13.733C43.386 6.149 37.237 0 29.652 0c-.987 0-1.95.104-2.877.302Z" fill="url(#b)"/><path fill-rule="evenodd" clip-rule="evenodd" d="M28.05.395c4.765 1.844 8.167 7.143 8.167 13.339 0 6.195-3.402 11.494-8.167 13.339.525.062 1.06.094 1.602.094 7.42 0 13.434-6.014 13.434-13.433C43.086 6.314 37.072.3 29.652.3c-.542 0-1.077.032-1.602.095Zm-.638.09a10.77 10.77 0 0 0-.637-.183A13.677 13.677 0 0 1 29.652 0c7.585 0 13.734 6.149 13.734 13.734s-6.149 13.733-13.734 13.733a13.832 13.832 0 0 1-2.877-.301c.214-.055.427-.116.637-.184 4.902-1.594 8.505-6.921 8.505-13.248 0-6.327-3.603-11.655-8.505-13.248Z" fill="#000"/><defs><linearGradient id="b" x1="35.08" y1="27.467" x2="35.08" y2="0" gradientUnits="userSpaceOnUse"><stop stop-color="#4614E8"/><stop offset="1" stop-color="#BCA7FF"/></linearGradient><clipPath id="a"><path fill="#fff" d="M5.696 7.532h28.936v28.936H5.696z"/></clipPath></defs></svg>