<svg width="135" height="24" fill="none" xmlns="http://www.w3.org/2000/svg"><path d="M5.165 23V5.432l-3.904.96L.237 2.36 6.669.44h3.36V23H5.165Z" fill="#fff"/><path d="M5.165 23V5.432l-3.904.96L.237 2.36 6.669.44h3.36V23H5.165Z" fill="url(#a)"/><path d="M31.817 20.088c-1.856 2.197-4.256 3.296-7.2 3.296s-5.334-1.099-7.168-3.296c-1.835-2.198-2.752-4.96-2.752-8.288 0-3.307.928-6.059 2.784-8.256 1.856-2.219 4.256-3.328 7.2-3.328 2.922 0 5.301 1.098 7.136 3.296C33.673 5.709 34.6 8.472 34.6 11.8c0 3.306-.928 6.07-2.784 8.288Zm-10.72-3.168c.917 1.344 2.112 2.016 3.584 2.016s2.645-.662 3.52-1.984c.896-1.344 1.344-3.062 1.344-5.152 0-2.048-.459-3.744-1.376-5.088-.918-1.366-2.102-2.048-3.552-2.048-1.45 0-2.624.672-3.52 2.016-.896 1.322-1.344 3.03-1.344 5.12 0 2.07.448 3.776 1.344 5.12Z" fill="#fff"/><path d="M31.817 20.088c-1.856 2.197-4.256 3.296-7.2 3.296s-5.334-1.099-7.168-3.296c-1.835-2.198-2.752-4.96-2.752-8.288 0-3.307.928-6.059 2.784-8.256 1.856-2.219 4.256-3.328 7.2-3.328 2.922 0 5.301 1.098 7.136 3.296C33.673 5.709 34.6 8.472 34.6 11.8c0 3.306-.928 6.07-2.784 8.288Zm-10.72-3.168c.917 1.344 2.112 2.016 3.584 2.016s2.645-.662 3.52-1.984c.896-1.344 1.344-3.062 1.344-5.152 0-2.048-.459-3.744-1.376-5.088-.918-1.366-2.102-2.048-3.552-2.048-1.45 0-2.624.672-3.52 2.016-.896 1.322-1.344 3.03-1.344 5.12 0 2.07.448 3.776 1.344 5.12Z" fill="url(#b)"/><path d="M64.785 20.088c-1.855 2.197-4.255 3.296-7.2 3.296-2.944 0-5.333-1.099-7.168-3.296-1.834-2.198-2.752-4.96-2.752-8.288 0-3.307.928-6.059 2.785-8.256 1.855-2.219 4.255-3.328 7.2-3.328 2.922 0 5.3 1.098 7.136 3.296 1.855 2.197 2.784 4.96 2.784 8.288 0 3.306-.928 6.07-2.784 8.288Zm-10.72-3.168c.918 1.344 2.113 2.016 3.585 2.016 1.471 0 2.645-.662 3.52-1.984.895-1.344 1.343-3.062 1.343-5.152 0-2.048-.458-3.744-1.375-5.088-.918-1.366-2.102-2.048-3.552-2.048-1.451 0-2.624.672-3.52 2.016-.897 1.322-1.345 3.03-1.345 5.12 0 2.07.449 3.776 1.345 5.12Z" fill="#fff"/><path d="M64.785 20.088c-1.855 2.197-4.255 3.296-7.2 3.296-2.944 0-5.333-1.099-7.168-3.296-1.834-2.198-2.752-4.96-2.752-8.288 0-3.307.928-6.059 2.785-8.256 1.855-2.219 4.255-3.328 7.2-3.328 2.922 0 5.3 1.098 7.136 3.296 1.855 2.197 2.784 4.96 2.784 8.288 0 3.306-.928 6.07-2.784 8.288Zm-10.72-3.168c.918 1.344 2.113 2.016 3.585 2.016 1.471 0 2.645-.662 3.52-1.984.895-1.344 1.343-3.062 1.343-5.152 0-2.048-.458-3.744-1.375-5.088-.918-1.366-2.102-2.048-3.552-2.048-1.451 0-2.624.672-3.52 2.016-.897 1.322-1.345 3.03-1.345 5.12 0 2.07.449 3.776 1.345 5.12Z" fill="url(#c)"/><path d="M88.16 20.088c-1.855 2.197-4.255 3.296-7.2 3.296-2.944 0-5.333-1.099-7.167-3.296-1.835-2.198-2.753-4.96-2.753-8.288 0-3.307.928-6.059 2.784-8.256 1.856-2.219 4.257-3.328 7.2-3.328 2.923 0 5.302 1.098 7.136 3.296 1.856 2.197 2.785 4.96 2.785 8.288 0 3.306-.928 6.07-2.784 8.288ZM77.44 16.92c.918 1.344 2.112 2.016 3.585 2.016 1.471 0 2.645-.662 3.52-1.984.895-1.344 1.343-3.062 1.343-5.152 0-2.048-.458-3.744-1.376-5.088-.917-1.366-2.1-2.048-3.552-2.048-1.45 0-2.623.672-3.52 2.016-.895 1.322-1.343 3.03-1.343 5.12 0 2.07.448 3.776 1.344 5.12Z" fill="#fff"/><path d="M88.16 20.088c-1.855 2.197-4.255 3.296-7.2 3.296-2.944 0-5.333-1.099-7.167-3.296-1.835-2.198-2.753-4.96-2.753-8.288 0-3.307.928-6.059 2.784-8.256 1.856-2.219 4.257-3.328 7.2-3.328 2.923 0 5.302 1.098 7.136 3.296 1.856 2.197 2.785 4.96 2.785 8.288 0 3.306-.928 6.07-2.784 8.288ZM77.44 16.92c.918 1.344 2.112 2.016 3.585 2.016 1.471 0 2.645-.662 3.52-1.984.895-1.344 1.343-3.062 1.343-5.152 0-2.048-.458-3.744-1.376-5.088-.917-1.366-2.1-2.048-3.552-2.048-1.45 0-2.623.672-3.52 2.016-.895 1.322-1.343 3.03-1.343 5.12 0 2.07.448 3.776 1.344 5.12Z" fill="url(#d)"/><path d="M111.536 20.088c-1.856 2.197-4.256 3.296-7.2 3.296s-5.334-1.099-7.168-3.296c-1.835-2.198-2.753-4.96-2.753-8.288 0-3.307.928-6.059 2.784-8.256C99.055 1.325 101.457.216 104.4.216c2.922 0 5.301 1.098 7.136 3.296 1.856 2.197 2.784 4.96 2.784 8.288 0 3.306-.928 6.07-2.784 8.288Zm-10.72-3.168c.917 1.344 2.112 2.016 3.584 2.016s2.645-.662 3.52-1.984c.896-1.344 1.344-3.062 1.344-5.152 0-2.048-.459-3.744-1.376-5.088-.918-1.366-2.102-2.048-3.552-2.048-1.451 0-2.624.672-3.52 2.016-.897 1.322-1.344 3.03-1.344 5.12 0 2.07.448 3.776 1.344 5.12Z" fill="#fff"/><path d="M111.536 20.088c-1.856 2.197-4.256 3.296-7.2 3.296s-5.334-1.099-7.168-3.296c-1.835-2.198-2.753-4.96-2.753-8.288 0-3.307.928-6.059 2.784-8.256C99.055 1.325 101.457.216 104.4.216c2.922 0 5.301 1.098 7.136 3.296 1.856 2.197 2.784 4.96 2.784 8.288 0 3.306-.928 6.07-2.784 8.288Zm-10.72-3.168c.917 1.344 2.112 2.016 3.584 2.016s2.645-.662 3.52-1.984c.896-1.344 1.344-3.062 1.344-5.152 0-2.048-.459-3.744-1.376-5.088-.918-1.366-2.102-2.048-3.552-2.048-1.451 0-2.624.672-3.52 2.016-.897 1.322-1.344 3.03-1.344 5.12 0 2.07.448 3.776 1.344 5.12Z" fill="url(#e)"/><path d="M124.031 19.704v-5.76h-5.792V9.528h5.792v-5.76h4.543v5.76h5.793v4.416h-5.793v5.76h-4.543Z" fill="#fff"/><path d="M124.031 19.704v-5.76h-5.792V9.528h5.792v-5.76h4.543v5.76h5.793v4.416h-5.793v5.76h-4.543Z" fill="url(#f)"/><defs><linearGradient id="a" x1="-32" y1="-21.5" x2="74" y2="23" gradientUnits="userSpaceOnUse"><stop stop-color="#4614E8"/><stop offset="1" stop-color="#BCA7FF"/></linearGradient><linearGradient id="b" x1="-32" y1="-21.5" x2="74" y2="23" gradientUnits="userSpaceOnUse"><stop stop-color="#4614E8"/><stop offset="1" stop-color="#BCA7FF"/></linearGradient><linearGradient id="c" x1="-32" y1="-21.5" x2="74" y2="23" gradientUnits="userSpaceOnUse"><stop stop-color="#4614E8"/><stop offset="1" stop-color="#BCA7FF"/></linearGradient><linearGradient id="d" x1="-32" y1="-21.5" x2="74" y2="23" gradientUnits="userSpaceOnUse"><stop stop-color="#4614E8"/><stop offset="1" stop-color="#BCA7FF"/></linearGradient><linearGradient id="e" x1="-32" y1="-21.5" x2="74" y2="23" gradientUnits="userSpaceOnUse"><stop stop-color="#4614E8"/><stop offset="1" stop-color="#BCA7FF"/></linearGradient><linearGradient id="f" x1="-32" y1="-21.5" x2="74" y2="23" gradientUnits="userSpaceOnUse"><stop stop-color="#4614E8"/><stop offset="1" stop-color="#BCA7FF"/></linearGradient></defs></svg>