<svg width="99" height="29" fill="none" xmlns="http://www.w3.org/2000/svg"><path d="M8.413 28.136v-3.232c-2.837-.363-5.355-1.376-7.552-3.04l2.496-3.648c1.835 1.387 3.573 2.25 5.216 2.592V15.72c-2.39-.64-4.139-1.472-5.248-2.496-1.088-1.045-1.632-2.496-1.632-4.352 0-1.75.608-3.179 1.824-4.288 1.216-1.11 2.848-1.77 4.896-1.984V.744h3.328v1.92c2.155.299 4.139 1.088 5.952 2.368L15.55 8.776c-1.365-.917-2.688-1.547-3.968-1.888v4.832c2.453.662 4.224 1.536 5.312 2.624 1.088 1.067 1.632 2.507 1.632 4.32 0 1.75-.619 3.179-1.856 4.288-1.216 1.11-2.859 1.781-4.928 2.016v3.168H8.413Zm.16-17.216V6.6c-1.472.192-2.208.875-2.208 2.048 0 .512.15.95.448 1.312.32.341.907.661 1.76.96Zm3.008 10.048c1.515-.235 2.272-.939 2.272-2.112 0-.555-.17-1.003-.512-1.344-.32-.363-.907-.704-1.76-1.024v4.48Z" fill="#fff"/><path d="M8.413 28.136v-3.232c-2.837-.363-5.355-1.376-7.552-3.04l2.496-3.648c1.835 1.387 3.573 2.25 5.216 2.592V15.72c-2.39-.64-4.139-1.472-5.248-2.496-1.088-1.045-1.632-2.496-1.632-4.352 0-1.75.608-3.179 1.824-4.288 1.216-1.11 2.848-1.77 4.896-1.984V.744h3.328v1.92c2.155.299 4.139 1.088 5.952 2.368L15.55 8.776c-1.365-.917-2.688-1.547-3.968-1.888v4.832c2.453.662 4.224 1.536 5.312 2.624 1.088 1.067 1.632 2.507 1.632 4.32 0 1.75-.619 3.179-1.856 4.288-1.216 1.11-2.859 1.781-4.928 2.016v3.168H8.413Zm.16-17.216V6.6c-1.472.192-2.208.875-2.208 2.048 0 .512.15.95.448 1.312.32.341.907.661 1.76.96Zm3.008 10.048c1.515-.235 2.272-.939 2.272-2.112 0-.555-.17-1.003-.512-1.344-.32-.363-.907-.704-1.76-1.024v4.48Z" fill="url(#a)"/><path d="M25.837 25V7.432l-3.904.96-1.024-4.032 6.432-1.92h3.36V25h-4.864Z" fill="#fff"/><path d="M25.837 25V7.432l-3.904.96-1.024-4.032 6.432-1.92h3.36V25h-4.864Z" fill="url(#b)"/><path d="M43.4 25.384c-3.242 0-6.037-1.12-8.383-3.36l2.976-3.552c1.792 1.621 3.573 2.432 5.344 2.432 1.173 0 2.09-.277 2.752-.832.66-.555.992-1.333.992-2.336 0-.939-.363-1.675-1.088-2.208-.726-.555-1.686-.832-2.88-.832-1.195 0-2.443.277-3.744.832L36.52 13.64l.64-11.04h13.76v4.32h-9.536l-.256 3.872a12.135 12.135 0 0 1 2.944-.384c2.325 0 4.213.598 5.664 1.792 1.45 1.195 2.176 3.008 2.176 5.44 0 2.368-.78 4.256-2.336 5.664-1.536 1.387-3.595 2.08-6.176 2.08Z" fill="#fff"/><path d="M43.4 25.384c-3.242 0-6.037-1.12-8.383-3.36l2.976-3.552c1.792 1.621 3.573 2.432 5.344 2.432 1.173 0 2.09-.277 2.752-.832.66-.555.992-1.333.992-2.336 0-.939-.363-1.675-1.088-2.208-.726-.555-1.686-.832-2.88-.832-1.195 0-2.443.277-3.744.832L36.52 13.64l.64-11.04h13.76v4.32h-9.536l-.256 3.872a12.135 12.135 0 0 1 2.944-.384c2.325 0 4.213.598 5.664 1.792 1.45 1.195 2.176 3.008 2.176 5.44 0 2.368-.78 4.256-2.336 5.664-1.536 1.387-3.595 2.08-6.176 2.08Z" fill="url(#c)"/><path d="M72.645 22.088c-1.856 2.197-4.256 3.296-7.2 3.296s-5.333-1.099-7.168-3.296-2.752-4.96-2.752-8.288c0-3.307.928-6.059 2.784-8.256 1.856-2.219 4.256-3.328 7.2-3.328 2.922 0 5.301 1.099 7.136 3.296 1.856 2.197 2.784 4.96 2.784 8.288 0 3.307-.928 6.07-2.784 8.288Zm-10.72-3.168c.917 1.344 2.112 2.016 3.584 2.016s2.645-.661 3.52-1.984c.896-1.344 1.344-3.061 1.344-5.152 0-2.048-.459-3.744-1.376-5.088-.918-1.365-2.102-2.048-3.552-2.048-1.45 0-2.624.672-3.52 2.016-.896 1.323-1.344 3.03-1.344 5.12 0 2.07.448 3.776 1.344 5.12Z" fill="#fff"/><path d="M72.645 22.088c-1.856 2.197-4.256 3.296-7.2 3.296s-5.333-1.099-7.168-3.296-2.752-4.96-2.752-8.288c0-3.307.928-6.059 2.784-8.256 1.856-2.219 4.256-3.328 7.2-3.328 2.922 0 5.301 1.099 7.136 3.296 1.856 2.197 2.784 4.96 2.784 8.288 0 3.307-.928 6.07-2.784 8.288Zm-10.72-3.168c.917 1.344 2.112 2.016 3.584 2.016s2.645-.661 3.52-1.984c.896-1.344 1.344-3.061 1.344-5.152 0-2.048-.459-3.744-1.376-5.088-.918-1.365-2.102-2.048-3.552-2.048-1.45 0-2.624.672-3.52 2.016-.896 1.323-1.344 3.03-1.344 5.12 0 2.07.448 3.776 1.344 5.12Z" fill="url(#d)"/><path d="M96.02 22.088c-1.856 2.197-4.256 3.296-7.2 3.296s-5.333-1.099-7.168-3.296S78.9 17.128 78.9 13.8c0-3.307.928-6.059 2.784-8.256 1.856-2.219 4.256-3.328 7.2-3.328 2.922 0 5.301 1.099 7.136 3.296 1.856 2.197 2.784 4.96 2.784 8.288 0 3.307-.928 6.07-2.784 8.288ZM85.3 18.92c.917 1.344 2.112 2.016 3.584 2.016s2.645-.661 3.52-1.984c.896-1.344 1.344-3.061 1.344-5.152 0-2.048-.459-3.744-1.376-5.088-.918-1.365-2.102-2.048-3.552-2.048-1.45 0-2.624.672-3.52 2.016-.896 1.323-1.344 3.03-1.344 5.12 0 2.07.448 3.776 1.344 5.12Z" fill="#fff"/><path d="M96.02 22.088c-1.856 2.197-4.256 3.296-7.2 3.296s-5.333-1.099-7.168-3.296S78.9 17.128 78.9 13.8c0-3.307.928-6.059 2.784-8.256 1.856-2.219 4.256-3.328 7.2-3.328 2.922 0 5.301 1.099 7.136 3.296 1.856 2.197 2.784 4.96 2.784 8.288 0 3.307-.928 6.07-2.784 8.288ZM85.3 18.92c.917 1.344 2.112 2.016 3.584 2.016s2.645-.661 3.52-1.984c.896-1.344 1.344-3.061 1.344-5.152 0-2.048-.459-3.744-1.376-5.088-.918-1.365-2.102-2.048-3.552-2.048-1.45 0-2.624.672-3.52 2.016-.896 1.323-1.344 3.03-1.344 5.12 0 2.07.448 3.776 1.344 5.12Z" fill="url(#e)"/><defs><linearGradient id="a" x1="80" y1="-8" x2="50" y2="29" gradientUnits="userSpaceOnUse"><stop stop-color="#4614E8"/><stop offset="1" stop-color="#BCA7FF"/></linearGradient><linearGradient id="b" x1="80" y1="-8" x2="50" y2="29" gradientUnits="userSpaceOnUse"><stop stop-color="#4614E8"/><stop offset="1" stop-color="#BCA7FF"/></linearGradient><linearGradient id="c" x1="80" y1="-8" x2="50" y2="29" gradientUnits="userSpaceOnUse"><stop stop-color="#4614E8"/><stop offset="1" stop-color="#BCA7FF"/></linearGradient><linearGradient id="d" x1="80" y1="-8" x2="50" y2="29" gradientUnits="userSpaceOnUse"><stop stop-color="#4614E8"/><stop offset="1" stop-color="#BCA7FF"/></linearGradient><linearGradient id="e" x1="80" y1="-8" x2="50" y2="29" gradientUnits="userSpaceOnUse"><stop stop-color="#4614E8"/><stop offset="1" stop-color="#BCA7FF"/></linearGradient></defs></svg>