<svg width="85" height="24" fill="none" xmlns="http://www.w3.org/2000/svg"><path d="M9.392 23.32c-2.517 0-4.586-.598-6.208-1.792-1.62-1.195-2.432-2.773-2.432-4.736 0-2.496 1.206-4.299 3.616-5.408C2.47 10.232 1.52 8.578 1.52 6.424c0-1.75.726-3.21 2.176-4.384C5.168.866 7.067.28 9.392.28c2.347 0 4.246.586 5.696 1.76 1.451 1.173 2.176 2.656 2.176 4.448 0 2.112-.949 3.744-2.848 4.896 1.216.64 2.123 1.365 2.72 2.176.598.81.896 1.867.896 3.168 0 2.026-.81 3.637-2.432 4.832-1.6 1.173-3.669 1.76-6.208 1.76ZM7.056 8.984c.598.512 1.376.768 2.336.768s1.728-.256 2.304-.768c.598-.512.896-1.184.896-2.016 0-.726-.298-1.344-.896-1.856-.576-.512-1.344-.768-2.304-.768-.98 0-1.76.256-2.336.768-.576.512-.864 1.141-.864 1.888 0 .79.288 1.45.864 1.984Zm2.336 10.272c1.195 0 2.134-.267 2.816-.8.704-.534 1.056-1.216 1.056-2.048 0-.854-.362-1.526-1.088-2.016-.704-.49-1.632-.736-2.784-.736s-2.09.256-2.816.768c-.704.49-1.056 1.173-1.056 2.048 0 .79.352 1.45 1.056 1.984.704.533 1.643.8 2.816.8Z" fill="#fff"/><path d="M9.392 23.32c-2.517 0-4.586-.598-6.208-1.792-1.62-1.195-2.432-2.773-2.432-4.736 0-2.496 1.206-4.299 3.616-5.408C2.47 10.232 1.52 8.578 1.52 6.424c0-1.75.726-3.21 2.176-4.384C5.168.866 7.067.28 9.392.28c2.347 0 4.246.586 5.696 1.76 1.451 1.173 2.176 2.656 2.176 4.448 0 2.112-.949 3.744-2.848 4.896 1.216.64 2.123 1.365 2.72 2.176.598.81.896 1.867.896 3.168 0 2.026-.81 3.637-2.432 4.832-1.6 1.173-3.669 1.76-6.208 1.76ZM7.056 8.984c.598.512 1.376.768 2.336.768s1.728-.256 2.304-.768c.598-.512.896-1.184.896-2.016 0-.726-.298-1.344-.896-1.856-.576-.512-1.344-.768-2.304-.768-.98 0-1.76.256-2.336.768-.576.512-.864 1.141-.864 1.888 0 .79.288 1.45.864 1.984Zm2.336 10.272c1.195 0 2.134-.267 2.816-.8.704-.534 1.056-1.216 1.056-2.048 0-.854-.362-1.526-1.088-2.016-.704-.49-1.632-.736-2.784-.736s-2.09.256-2.816.768c-.704.49-1.056 1.173-1.056 2.048 0 .79.352 1.45 1.056 1.984.704.533 1.643.8 2.816.8Z" fill="url(#a)"/><path d="M38.317 20.088c-1.856 2.197-4.256 3.296-7.2 3.296s-5.334-1.099-7.168-3.296c-1.835-2.198-2.752-4.96-2.752-8.288 0-3.307.928-6.059 2.784-8.256 1.856-2.219 4.256-3.328 7.2-3.328 2.922 0 5.301 1.098 7.136 3.296C40.173 5.709 41.1 8.472 41.1 11.8c0 3.306-.928 6.07-2.784 8.288Zm-10.72-3.168c.917 1.344 2.112 2.016 3.584 2.016s2.645-.662 3.52-1.984c.896-1.344 1.344-3.062 1.344-5.152 0-2.048-.459-3.744-1.376-5.088-.918-1.366-2.102-2.048-3.552-2.048-1.451 0-2.624.672-3.52 2.016-.896 1.322-1.344 3.03-1.344 5.12 0 2.07.448 3.776 1.344 5.12Z" fill="#fff"/><path d="M38.317 20.088c-1.856 2.197-4.256 3.296-7.2 3.296s-5.334-1.099-7.168-3.296c-1.835-2.198-2.752-4.96-2.752-8.288 0-3.307.928-6.059 2.784-8.256 1.856-2.219 4.256-3.328 7.2-3.328 2.922 0 5.301 1.098 7.136 3.296C40.173 5.709 41.1 8.472 41.1 11.8c0 3.306-.928 6.07-2.784 8.288Zm-10.72-3.168c.917 1.344 2.112 2.016 3.584 2.016s2.645-.662 3.52-1.984c.896-1.344 1.344-3.062 1.344-5.152 0-2.048-.459-3.744-1.376-5.088-.918-1.366-2.102-2.048-3.552-2.048-1.451 0-2.624.672-3.52 2.016-.896 1.322-1.344 3.03-1.344 5.12 0 2.07.448 3.776 1.344 5.12Z" fill="url(#b)"/><path d="M61.692 20.088c-1.856 2.197-4.256 3.296-7.2 3.296s-5.334-1.099-7.168-3.296c-1.835-2.198-2.752-4.96-2.752-8.288 0-3.307.928-6.059 2.784-8.256 1.856-2.219 4.256-3.328 7.2-3.328 2.922 0 5.301 1.098 7.136 3.296 1.856 2.197 2.784 4.96 2.784 8.288 0 3.306-.928 6.07-2.784 8.288Zm-10.72-3.168c.917 1.344 2.112 2.016 3.584 2.016s2.645-.662 3.52-1.984c.896-1.344 1.344-3.062 1.344-5.152 0-2.048-.459-3.744-1.376-5.088-.918-1.366-2.102-2.048-3.552-2.048-1.451 0-2.624.672-3.52 2.016-.896 1.322-1.344 3.03-1.344 5.12 0 2.07.448 3.776 1.344 5.12Z" fill="#fff"/><path d="M61.692 20.088c-1.856 2.197-4.256 3.296-7.2 3.296s-5.334-1.099-7.168-3.296c-1.835-2.198-2.752-4.96-2.752-8.288 0-3.307.928-6.059 2.784-8.256 1.856-2.219 4.256-3.328 7.2-3.328 2.922 0 5.301 1.098 7.136 3.296 1.856 2.197 2.784 4.96 2.784 8.288 0 3.306-.928 6.07-2.784 8.288Zm-10.72-3.168c.917 1.344 2.112 2.016 3.584 2.016s2.645-.662 3.52-1.984c.896-1.344 1.344-3.062 1.344-5.152 0-2.048-.459-3.744-1.376-5.088-.918-1.366-2.102-2.048-3.552-2.048-1.451 0-2.624.672-3.52 2.016-.896 1.322-1.344 3.03-1.344 5.12 0 2.07.448 3.776 1.344 5.12Z" fill="url(#c)"/><path d="M74.187 19.704v-5.76h-5.792V9.528h5.792v-5.76h4.544v5.76h5.792v4.416H78.73v5.76h-4.544Z" fill="#fff"/><path d="M74.187 19.704v-5.76h-5.792V9.528h5.792v-5.76h4.544v5.76h5.792v4.416H78.73v5.76h-4.544Z" fill="url(#d)"/><defs><linearGradient id="a" x1="61.5" y1="-24" x2="32" y2="27" gradientUnits="userSpaceOnUse"><stop stop-color="#4614E8"/><stop offset="1" stop-color="#BCA7FF"/></linearGradient><linearGradient id="b" x1="61.5" y1="-24" x2="32" y2="27" gradientUnits="userSpaceOnUse"><stop stop-color="#4614E8"/><stop offset="1" stop-color="#BCA7FF"/></linearGradient><linearGradient id="c" x1="61.5" y1="-24" x2="32" y2="27" gradientUnits="userSpaceOnUse"><stop stop-color="#4614E8"/><stop offset="1" stop-color="#BCA7FF"/></linearGradient><linearGradient id="d" x1="61.5" y1="-24" x2="32" y2="27" gradientUnits="userSpaceOnUse"><stop stop-color="#4614E8"/><stop offset="1" stop-color="#BCA7FF"/></linearGradient></defs></svg>