<svg width="121" height="29" fill="none" xmlns="http://www.w3.org/2000/svg"><path d="M8.366 28.136v-3.232c-2.837-.363-5.354-1.376-7.552-3.04l2.496-3.648c1.835 1.387 3.574 2.25 5.216 2.592V15.72c-2.39-.64-4.138-1.472-5.248-2.496-1.088-1.045-1.632-2.496-1.632-4.352 0-1.75.608-3.179 1.824-4.288 1.216-1.11 2.848-1.77 4.896-1.984V.744h3.328v1.92c2.155.299 4.139 1.088 5.952 2.368l-2.144 3.744c-1.365-.917-2.688-1.547-3.968-1.888v4.832c2.454.662 4.224 1.536 5.312 2.624 1.088 1.067 1.632 2.507 1.632 4.32 0 1.75-.618 3.179-1.856 4.288-1.216 1.11-2.858 1.781-4.928 2.016v3.168H8.366Zm.16-17.216V6.6c-1.472.192-2.208.875-2.208 2.048 0 .512.15.95.448 1.312.32.341.907.661 1.76.96Zm3.008 10.048c1.515-.235 2.272-.939 2.272-2.112 0-.555-.17-1.003-.512-1.344-.32-.363-.906-.704-1.76-1.024v4.48Z" fill="#fff"/><path d="M8.366 28.136v-3.232c-2.837-.363-5.354-1.376-7.552-3.04l2.496-3.648c1.835 1.387 3.574 2.25 5.216 2.592V15.72c-2.39-.64-4.138-1.472-5.248-2.496-1.088-1.045-1.632-2.496-1.632-4.352 0-1.75.608-3.179 1.824-4.288 1.216-1.11 2.848-1.77 4.896-1.984V.744h3.328v1.92c2.155.299 4.139 1.088 5.952 2.368l-2.144 3.744c-1.365-.917-2.688-1.547-3.968-1.888v4.832c2.454.662 4.224 1.536 5.312 2.624 1.088 1.067 1.632 2.507 1.632 4.32 0 1.75-.618 3.179-1.856 4.288-1.216 1.11-2.858 1.781-4.928 2.016v3.168H8.366Zm.16-17.216V6.6c-1.472.192-2.208.875-2.208 2.048 0 .512.15.95.448 1.312.32.341.907.661 1.76.96Zm3.008 10.048c1.515-.235 2.272-.939 2.272-2.112 0-.555-.17-1.003-.512-1.344-.32-.363-.906-.704-1.76-1.024v4.48Z" fill="url(#a)"/><path d="M21.662 25v-3.904l7.456-6.112c1.472-1.216 2.485-2.187 3.04-2.912.554-.746.832-1.568.832-2.464 0-.917-.278-1.632-.832-2.144-.555-.512-1.28-.768-2.176-.768-.832 0-1.59.235-2.272.704-.662.448-1.43 1.216-2.304 2.304L21.95 6.92c1.173-1.6 2.378-2.773 3.616-3.52 1.258-.747 2.837-1.12 4.736-1.12 2.325 0 4.192.64 5.6 1.92 1.408 1.259 2.112 2.944 2.112 5.056 0 1.216-.235 2.315-.704 3.296a9.487 9.487 0 0 1-1.824 2.56c-.747.726-1.867 1.664-3.36 2.816l-3.648 2.816h9.76V25H21.662Z" fill="#fff"/><path d="M21.662 25v-3.904l7.456-6.112c1.472-1.216 2.485-2.187 3.04-2.912.554-.746.832-1.568.832-2.464 0-.917-.278-1.632-.832-2.144-.555-.512-1.28-.768-2.176-.768-.832 0-1.59.235-2.272.704-.662.448-1.43 1.216-2.304 2.304L21.95 6.92c1.173-1.6 2.378-2.773 3.616-3.52 1.258-.747 2.837-1.12 4.736-1.12 2.325 0 4.192.64 5.6 1.92 1.408 1.259 2.112 2.944 2.112 5.056 0 1.216-.235 2.315-.704 3.296a9.487 9.487 0 0 1-1.824 2.56c-.747.726-1.867 1.664-3.36 2.816l-3.648 2.816h9.76V25H21.662Z" fill="url(#b)"/><path d="M51.801 25V7.848h4.928l4.64 7.2 4.704-7.2h4.928V25h-4.928V14.696l-4.768 7.04-4.704-6.944V25h-4.8Z" fill="#fff"/><path d="M51.801 25V7.848h4.928l4.64 7.2 4.704-7.2h4.928V25h-4.928V14.696l-4.768 7.04-4.704-6.944V25h-4.8Z" fill="url(#c)"/><path d="M77.412 7.848h13.791V25H86.34V12.008h-4.352c0 2.262-.085 4.17-.255 5.728-.171 1.558-.406 2.827-.704 3.808-.3.982-.715 1.739-1.249 2.272-.533.534-1.109.896-1.727 1.088-.62.192-1.387.288-2.305.288-.874 0-1.695-.096-2.463-.288l.32-3.936c.383.064.725.096 1.023.096.513 0 .918-.117 1.217-.352.298-.256.576-.81.832-1.664.277-.874.469-2.208.575-4 .107-1.813.16-4.213.16-7.2Z" fill="#fff"/><path d="M77.412 7.848h13.791V25H86.34V12.008h-4.352c0 2.262-.085 4.17-.255 5.728-.171 1.558-.406 2.827-.704 3.808-.3.982-.715 1.739-1.249 2.272-.533.534-1.109.896-1.727 1.088-.62.192-1.387.288-2.305.288-.874 0-1.695-.096-2.463-.288l.32-3.936c.383.064.725.096 1.023.096.513 0 .918-.117 1.217-.352.298-.256.576-.81.832-1.664.277-.874.469-2.208.575-4 .107-1.813.16-4.213.16-7.2Z" fill="url(#d)"/><path d="M111.263 7.848V25h-4.864v-6.56h-5.984V25h-4.864V7.848h4.864v6.592h5.984V7.848h4.864Z" fill="#fff"/><path d="M111.263 7.848V25h-4.864v-6.56h-5.984V25h-4.864V7.848h4.864v6.592h5.984V7.848h4.864Z" fill="url(#e)"/><path d="M115.422 25v-5.12h5.184V25h-5.184Z" fill="#fff"/><path d="M115.422 25v-5.12h5.184V25h-5.184Z" fill="url(#f)"/><defs><linearGradient id="a" x1="-11.5" y1="-4" x2="112.5" y2="29" gradientUnits="userSpaceOnUse"><stop stop-color="#4614E8"/><stop offset="1" stop-color="#BCA7FF"/></linearGradient><linearGradient id="b" x1="-11.5" y1="-4" x2="112.5" y2="29" gradientUnits="userSpaceOnUse"><stop stop-color="#4614E8"/><stop offset="1" stop-color="#BCA7FF"/></linearGradient><linearGradient id="c" x1="-11.5" y1="-4" x2="112.5" y2="29" gradientUnits="userSpaceOnUse"><stop stop-color="#4614E8"/><stop offset="1" stop-color="#BCA7FF"/></linearGradient><linearGradient id="d" x1="-11.5" y1="-4" x2="112.5" y2="29" gradientUnits="userSpaceOnUse"><stop stop-color="#4614E8"/><stop offset="1" stop-color="#BCA7FF"/></linearGradient><linearGradient id="e" x1="-11.5" y1="-4" x2="112.5" y2="29" gradientUnits="userSpaceOnUse"><stop stop-color="#4614E8"/><stop offset="1" stop-color="#BCA7FF"/></linearGradient><linearGradient id="f" x1="-11.5" y1="-4" x2="112.5" y2="29" gradientUnits="userSpaceOnUse"><stop stop-color="#4614E8"/><stop offset="1" stop-color="#BCA7FF"/></linearGradient></defs></svg>