<svg width="145" height="145" fill="none" xmlns="http://www.w3.org/2000/svg"><path d="M70.745 129.745c30.928 0 56-25.072 56-56s-25.072-56-56-56c-11.914 0-22.958 3.72-32.036 10.063-7.988 4.146-23.964 19.138-23.964 45.938 0 30.927 25.072 55.999 56 55.999Z" fill="#F4F7FA"/><path d="M0 72.5C0 112.32 32.679 145 72.5 145S145 112.321 145 72.5C145 35.594 116.931 4.823 81.121.515 76.385-.055 72.5 3.867 72.5 8.638c0 4.77 3.892 8.566 8.605 9.307 26.378 4.144 46.62 27.031 46.62 54.555 0 30.45-24.775 55.224-55.225 55.224-30.45 0-55.225-24.774-55.225-55.224a54.891 54.891 0 0 1 8.113-28.787c2.502-4.08 2.099-9.534-1.584-12.592-3.618-3.004-9.027-2.563-11.638 1.348C4.488 43.965 0 57.742 0 72.499Z" fill="url(#a)"/><defs><linearGradient id="a" x1="135" y1="26" x2="-19.5" y2="53.5" gradientUnits="userSpaceOnUse"><stop stop-color="#4614E8"/><stop offset="1" stop-color="#BCA7FF"/></linearGradient></defs></svg>