<svg width="438" height="488" fill="none" xmlns="http://www.w3.org/2000/svg"><path opacity=".4" d="M399.173 237.158c21.444 0 38.827-10.046 38.827-22.438s-17.383-22.438-38.827-22.438c-21.443 0-38.827 10.046-38.827 22.438s17.384 22.438 38.827 22.438Z" fill="#D6D8E5"/><path d="m399.297 31.858 6.238-18.085c.161-.247.461-.505.897-.745.446-.246 1.016-.463 1.679-.629 1.325-.332 3-.453 4.747-.197 3.488.51 7.246 2.516 9.109 7.32.35.904.604 2.173.805 3.678.201 1.5.347 3.22.486 5.015l.088 1.16c.247 3.246.504 6.636 1.047 9.324.611 3.02 1.633 5.382 2.623 7.583l.179.4c.926 2.053 1.796 3.981 2.27 6.23.502 2.377.342 5.559-1.36 8.322-1.697 2.753-4.948 5.128-10.706 5.862-5.781.737-10.908.075-14.927-1.23-4.027-1.308-6.915-3.252-8.248-5.054-1.331-1.8-2.03-4.65-2.033-7.6-.002-2.946.691-5.937 2.089-8.01 2.862-4.248 5.074-7.752 5.017-13.344Z" fill="#7247FF" stroke="#000" stroke-width=".5"/><path d="m396.134 80.302.002.029.009.027 1.24 4.084.002.022.011.14.036.526c.028.447.064 1.069.09 1.773.052 1.41.068 3.135-.076 4.423-.072.65-.182 1.159-.331 1.46-.075.151-.143.216-.187.238-.028.014-.071.027-.164-.022-.104-.055-.245-.176-.422-.404a6.875 6.875 0 0 1-.598-.954c-.449-.833-.989-2.061-1.635-3.784-2.573-6.868-3.183-15.128-3.145-21.686a102.2 102.2 0 0 1 .375-8.148 77.4 77.4 0 0 1 .239-2.375c.032-.277.059-.49.077-.635l.018-.135.061-.06.325-.316c.272-.262.639-.61 1.023-.955.385-.347.782-.688 1.114-.938a4.03 4.03 0 0 1 .426-.288.992.992 0 0 1 .166-.073c.227.023.652.17.994.359.173.095.299.186.363.257l.005.006a.612.612 0 0 0-.053.114c-.02.058-.037.125-.051.195a5.691 5.691 0 0 0-.068.533c-.038.422-.066.994-.098 1.67l-.005.098c-.064 1.345-.148 3.104-.356 5.002-.217 1.976-.062 6.943.145 11.39.104 2.228.221 4.335.312 5.885.045.774.085 1.41.112 1.852l.033.51.008.134.003.035v.011l.25-.016-.25.016Z" fill="#F4F4F4" stroke="#000" stroke-width=".5"/><path d="m412.59 12.159-.345.668c-.312.602-.759 1.462-1.303 2.493a332.5 332.5 0 0 1-4.101 7.55c-1.542 2.742-3.148 5.473-4.505 7.503-.678 1.016-1.289 1.849-1.795 2.42a4.576 4.576 0 0 1-.655.633c-.194.144-.3.167-.338.163-.956-.09-1.8-.97-2.511-2.273-.7-1.283-1.223-2.887-1.572-4.255l-.001-.003a12.712 12.712 0 0 1 3.653-12.672c2.575-2.295 6-2.843 8.814-2.806a21.926 21.926 0 0 1 4.58.56l.079.019Z" fill="#7247FF" stroke="#000" stroke-width=".5"/><path d="M398.67 53.392c-.312-2.2.373-4.163 1.312-5.738.91-1.527 2.052-2.676 2.722-3.298a18.115 18.115 0 0 1 2.621-.06l.246.013.016-.247.282-4.543a496.948 496.948 0 0 0 6.793-2.245 838.828 838.828 0 0 0 3.347-1.137l-.003.05a636.236 636.236 0 0 0-.237 4.546 200.983 200.983 0 0 0-.142 3.56 44.3 44.3 0 0 0-.021 1.28c.001.167.004.311.01.425.005.107.014.208.032.279.045.172.183.3.311.394.137.1.315.195.512.286.394.183.908.368 1.435.554l.173.06c.477.169.959.338 1.387.513.484.197.868.39 1.089.574.003.004.016.027.02.09.007.084-.005.207-.043.372-.075.33-.242.773-.488 1.3-.49 1.054-1.274 2.403-2.193 3.775-.919 1.371-1.967 2.758-2.982 3.89-1.024 1.139-1.988 1.99-2.739 2.326-.734.328-1.896.375-3.274.154-1.366-.22-2.907-.695-4.371-1.37-1.466-.674-2.845-1.542-3.896-2.538-1.054-.998-1.759-2.107-1.919-3.265Z" fill="#F4F4F4" stroke="#000" stroke-width=".5"/><path d="M423.647 50.605v.002c.245.844.639 3.31.676 6.353.036 3.04-.285 6.623-1.45 9.71-2.337 6.195-3.914 10.147-5.263 12.825l-.047.019a14.95 14.95 0 0 1-.384.149c-.337.125-.831.299-1.453.489a31 31 0 0 1-5.057 1.089c-4.079.521-9.296.316-13.961-2.538l-.016-.17-.076-.809c-.063-.684-.147-1.633-.232-2.695-.17-2.125-.345-4.691-.365-6.477l-.001-.112-.084-.074c-2.161-1.888-3.304-3.871-3.706-5.888-.403-2.02-.068-4.1.774-6.19 1.678-4.165 5.349-8.312 9.052-11.97a15.14 15.14 0 0 1 2.078-.026c-.173.224-.41.542-.679.933-.556.811-1.251 1.943-1.802 3.221-1.093 2.539-1.654 5.76.77 8.136l.107.104.142-.044c4.976-1.522 7.967-3.405 10.113-5.134a43.075 43.075 0 0 0 2.209-1.937l.499-.458c.758-.689 1.436-1.267 2.173-1.692a13.4 13.4 0 0 1 3.84 1.247c.574.297 1.07.621 1.444.957.376.338.612.67.699.98ZM398.386 23.78v-.005c.961-6.152 5.379-10.74 11.657-10.369h.001a12.155 12.155 0 0 1 8.4 4.05 12.169 12.169 0 0 1 3.068 8.812 12.057 12.057 0 0 1-5.341 9.304l-.083.055-.022.096a12.706 12.706 0 0 1-.942 2.65c-1.108 1.267-3.129 2.327-5.155 3.075-2.036.752-4.016 1.168-4.974 1.178-.779 0-1.526-.358-2.294-1.065-.77-.71-1.543-1.755-2.368-3.09-3.323-5.498-2.483-11.613-1.947-14.692Z" fill="#F4F4F4" stroke="#000" stroke-width=".5"/><path d="M411.605 12c4.516.888 8.666 3.263 9.895 7.704.839 3.055 1.063 9.03 0 11.489L421 33l-4.5 3s-3.661-2.347-2.871-8.584a4.503 4.503 0 0 0-.77-2.362 7.108 7.108 0 0 1-.751-1.884 7.082 7.082 0 0 0-3.54-3.835c-4.077-2.284-9.134-.165-9.963.665 1.146-2.478 2.549-5.3 5-6.5 1.841-.901 5.342-2.116 8-1.5Z" fill="#7247FF"/><path d="M424.258 92.574c.975-6.325 2.926-10.434 2.029-13.908a126.515 126.515 0 0 0-7.686-20.496c-1.95-3.904-1.395-6.676.673-8.228 2.331-1.747 4.555-.976 6.652 3.377 2.633 5.485 5.608 11.117 7.051 19.286.712 3.962 1.083 7.808-.195 15.947-.897 5.69-2.701 8.882-4.876 14.221-.595 1.454-4.565-4.831-3.648-10.2Z" fill="#F4F4F4"/><path fill-rule="evenodd" clip-rule="evenodd" d="M424.751 92.658c-.435 2.549.29 5.356 1.218 7.364.464 1.004.96 1.768 1.351 2.183.075.08.143.142.2.189.454-1.108.889-2.12 1.301-3.079 1.549-3.602 2.776-6.458 3.467-10.84 1.269-8.086.899-11.876.197-15.782v-.001c-1.302-7.37-3.859-12.647-6.299-17.685-.239-.492-.476-.982-.711-1.472-1.035-2.147-2.051-3.296-2.999-3.74-.89-.415-1.831-.256-2.902.547-.927.696-1.508 1.654-1.646 2.887-.14 1.249.172 2.82 1.12 4.717l.004.008a126.893 126.893 0 0 1 7.716 20.577l.003.01c.481 1.862.19 3.862-.308 6.118a115.96 115.96 0 0 1-.475 2.031c-.423 1.765-.89 3.715-1.236 5.96l-.001.008Zm-5.477-42.716c2.331-1.747 4.555-.976 6.652 3.377.235.49.472.98.711 1.473 2.441 5.037 5.026 10.372 6.34 17.813.712 3.962 1.083 7.808-.195 15.947-.701 4.45-1.958 7.371-3.512 10.986-.433 1.008-.89 2.071-1.364 3.235-.595 1.454-4.565-4.831-3.648-10.2.35-2.266.824-4.248 1.248-6.019.76-3.169 1.356-5.66.781-7.888a126.515 126.515 0 0 0-7.686-20.496c-1.95-3.904-1.395-6.676.673-8.228Z" fill="#000"/><path d="M414.369 211.588c-1.171 1.16-2.61 2.242-4.067 3.278-.419.299-.84.593-1.256.885-1.061.742-2.095 1.466-3.018 2.191l8.341-6.354Zm0 0 .06.007c.093.011.217.032.373.059l.091.016c.394.067.938.155 1.551.19 1.161.065 2.613-.061 3.796-.928.055.098.118.241.188.424.154.403.323.962.476 1.565.154.602.29 1.242.378 1.802.09.57.126 1.032.095 1.294l-7.008-4.429Zm6.16 5.919c.216-.169.414-.354.588-.563-.197.415-.485.736-.834 1.018a8.005 8.005 0 0 1-.991.66l-.343.198c-.264.151-.539.309-.812.48-.954.591-1.856 1.295-2.745 1.989l-.453.352c-1.043.809-2.082 1.578-3.209 2.147-1.117.564-3.167 1.137-5.029 1.111-.93-.014-1.79-.176-2.46-.544a2.836 2.836 0 0 1-.508-.352c.909.494 2.067.643 3.21.604 1.832-.064 3.745-.614 4.856-1.172l.001-.001c1.183-.602 2.272-1.411 3.335-2.233l.475-.37c.903-.704 1.795-1.398 2.733-1.985.276-.171.548-.324.817-.476l.32-.182a8.625 8.625 0 0 0 1.049-.681ZM404.225 207.4l.026.249c-.094.01-.14-.048-.124-.032a.462.462 0 0 1 .054.077l.022.039c.061-.044.121-.091.181-.14l-.159-.193Zm-5.282 1.14.056-.056-.177-.176.177.176c-.041.041-.082.052-.089.054l-.013.002h.004a.283.283 0 0 1 .042 0Zm-10.496 9.96-.246.046.246-.046Zm16.536-4.925a2.743 2.743 0 0 1-.662.747 7.144 7.144 0 0 1-.905.602l-.331.191c-.236.135-.483.276-.727.427l-.004.002c-.808.518-1.591 1.129-2.369 1.736l-.516.402c-.955.738-1.914 1.443-2.945 1.969-1.019.519-2.893 1.043-4.595 1.019-.85-.012-1.635-.16-2.244-.494a2.644 2.644 0 0 1-.392-.261c.832.417 1.866.543 2.882.508 1.678-.057 3.42-.554 4.428-1.058l.003-.002c1.06-.548 2.059-1.287 3.038-2.04l.409-.316c.844-.652 1.678-1.297 2.549-1.841.24-.15.477-.286.712-.421l.328-.19c.337-.199.667-.403.962-.639.134-.106.261-.219.379-.341Z" fill="#F4F4F4" stroke="#000" stroke-width=".5"/><path d="M392.155 101.076v.001c-1.002 7.864-1.197 29.573-.613 39.569.508 8.673.911 10.995 1.353 13.534.067.386.135.778.205 1.197v.004c.361 2.422 3.024 21.026 4.263 29.809l.001.008.001.007 1.83 22.899a5.752 5.752 0 0 0 4.944-.673l3.116-22.776.001-.009v.001c.76-4.465.507-11.11.032-16.939-.35-4.308-.817-8.131-1.082-10.298-.094-.768-.163-1.327-.191-1.626v-.001c-.128-1.38-.705-3.022-1.26-4.334a31.203 31.203 0 0 0-1.048-2.213l-.018-.032-.004-.008-.001-.002-.036-.067.006-.076.249.023-.249-.023h.001v-.003l.001-.01.004-.041.015-.164.064-.662c.058-.592.149-1.49.277-2.711.256-2.442.663-6.179 1.268-11.357.604-5.173.972-9.853 1.189-13.24a223.788 223.788 0 0 0 .268-5.1l.011-.283.002-.071.001-.018v-.006l.25.007-.25-.007v-.006l.283-5.173.499-.005-.249.019.249-.018v.004l.002.015.004.06.017.231.065.885.237 3.199.748 10.076a6883.68 6883.68 0 0 0 1.394 18.546c.309 3.907.853 7.498 1.27 10.243.162 1.07.305 2.011.407 2.794.361 2.775 1.61 13.887 2.088 20.882.167 2.549.394 5.923.614 9.198l.43 6.418.001.011-.001.01-.309 18.488c1.128.739 2.479.577 3.606.188a8.732 8.732 0 0 0 1.857-.913l.06-.04 2.618-18.913.002-.012c1.443-7.662 2.716-15.916 2.765-20.772a62.74 62.74 0 0 0-2.71-17.378l-.016-.052.008-.054.247.033-.247-.033v-.006l.003-.018.009-.072.037-.282.142-1.077.51-3.904c.425-3.266.999-7.702 1.595-12.384 1.193-9.369 2.472-19.716 2.823-23.658 1.056-11.992-3.32-18.853-5.572-21.976l.203-.147a77.276 77.276 0 0 1-4.642-7.193l-25.647 18.477Zm0 0c.486-3.926 1.46-8.75 2.313-12.597a260.664 260.664 0 0 1 1.455-6.2l.054-.215a23.588 23.588 0 0 0 8.597 2.073c2.565.133 5.887-.192 8.558-.547a100.888 100.888 0 0 0 4.354-.679l.187-.034-25.518 18.199Z" fill="#F4F4F4" stroke="#000" stroke-width=".5"/><mask id="a" fill="#fff"><path d="m417.792 79.69 6.827 13.664s10.348 15.167-.371 54.139l1.961 11.995s-20.306 13.039-33.892 0c0 0-4.711-36.014-2.204-52.626a190.321 190.321 0 0 1 6.329-28.216s3.326 3.68 20.482 1.25"/></mask><path d="m417.792 79.69 6.827 13.664s10.348 15.167-.371 54.139l1.961 11.995s-20.306 13.039-33.892 0c0 0-4.711-36.014-2.204-52.626a190.321 190.321 0 0 1 6.329-28.216s3.326 3.68 20.482 1.25" fill="#F4F4F4"/><path d="m424.619 93.354-.447.224.015.03.019.028.413-.282Zm-.371 54.139-.482-.133-.029.106.018.108.493-.081Zm1.961 11.995.27.421.276-.178-.053-.324-.493.081Zm-33.892 0-.496.065.023.174.127.122.346-.361Zm-2.204-52.626.494.075v-.003l-.494-.072Zm6.329-28.216-.225-.447-.19.097-.063.204.478.146Zm20.902 1.268 6.828 13.664.894-.447-6.827-13.664-.895.447Zm7.275 13.44-.414.282h.001l.004.006a10.988 10.988 0 0 1 .391.676c.254.474.608 1.201 1.002 2.199.789 1.995 1.737 5.07 2.355 9.364 1.236 8.585 1.152 22.05-4.192 41.479l.964.266c5.375-19.542 5.476-33.147 4.218-41.888-.629-4.37-1.598-7.522-2.415-9.589a22.505 22.505 0 0 0-1.049-2.302 12.419 12.419 0 0 0-.324-.572l-.091-.147-.026-.039-.007-.01a.027.027 0 0 0-.003-.004l-.001-.002-.413.281Zm-.864 54.22 1.96 11.995.987-.162-1.96-11.995-.987.162Zm2.454 11.914-.27-.421-.001.001-.002.001-.01.006a1.282 1.282 0 0 1-.041.026l-.167.103c-.149.09-.369.221-.656.384-.573.327-1.409.78-2.455 1.283-2.095 1.009-5.023 2.216-8.367 3.021-6.694 1.61-14.959 1.587-21.577-4.765l-.692.722c6.968 6.688 15.648 6.664 22.503 5.015 3.432-.826 6.429-2.063 8.566-3.092a42.501 42.501 0 0 0 2.517-1.314c.295-.168.524-.305.68-.399l.178-.11.046-.029.013-.008.003-.002.001-.001-.269-.421Zm-33.892 0 .495-.065v-.006a2.464 2.464 0 0 0-.013-.097l-.039-.303c-.033-.267-.083-.661-.144-1.169a447.845 447.845 0 0 1-1.843-18.482c-.865-11.085-1.41-24.187-.166-32.429l-.989-.149c-1.263 8.369-.706 21.58.158 32.655a447.99 447.99 0 0 0 1.992 19.699l.039.306.01.078.003.02.001.005v.002l.496-.065Zm-1.71-52.554a189.854 189.854 0 0 1 6.313-28.142l-.956-.292a190.791 190.791 0 0 0-6.346 28.29l.989.144Zm6.335-28.288c-.32.467-.87.336-.87.336l.001.002.003.002a4.721 4.721 0 0 0 .92.639c.628.332 1.625.73 3.152 1.047 3.051.631 8.233.938 16.846-.282l-.14-.99c-8.543 1.21-13.602.893-16.503.292-1.449-.3-2.355-.67-2.887-.95a3.799 3.799 0 0 1-.54-.339 1.305 1.305 0 0 1-.101-.084.137.137 0 0 1-.015-.014l.002.002.001.002h.001c.001.001-.549-.13-.87.337h1Z" fill="#000" mask="url(#a)"/><path d="m417.222 55.864-.002-.008-.003-.007-.001-.002-.003-.009-.012-.036a6.867 6.867 0 0 1-.183-.697 7.174 7.174 0 0 1-.149-1.805c.07-1.39.621-3.001 2.556-3.974.967-.486 1.932-.577 2.875-.31.949.267 1.895.903 2.804 1.905 1.803 1.987 3.418 5.37 4.582 9.96l-.104.096a15.43 15.43 0 0 1-.6.515c-.521.424-1.274.985-2.199 1.527-1.816 1.066-4.271 2.046-6.927 1.818l-2.634-8.973Zm-16.197-11.608c.139-.008.263-.007.37-.003-1.642 1.62-3.707 4.3-5.4 6.632a147.778 147.778 0 0 0-3.11 4.458l-1.737-1.056c2.814-5.798 5.522-8.278 7.499-9.316.999-.525 1.817-.684 2.378-.715Z" fill="#F4F4F4" stroke="#000" stroke-width=".5"/><path opacity=".4" d="M38.827 328.414c21.443 0 38.827-10.046 38.827-22.438s-17.384-22.438-38.827-22.438C17.383 283.538 0 293.584 0 305.976s17.383 22.438 38.827 22.438Z" fill="#D6D8E5"/><path d="m18.897 299.433.018-.028c1.44 1.075 3.166 1.105 4.539.9a14.088 14.088 0 0 0 1.804-.41l.126-.035a9.146 9.146 0 0 1 .501-.132 125.086 125.086 0 0 0 10.215 8.506l.464.362c.772.6 1.627 1.264 2.295 2.034.8.924 1.291 1.957 1.05 3.163l-.001.004c-.206 1.095-.792 1.823-1.602 2.289-.82.472-1.88.682-3.024.704-2.293.045-4.832-.665-6.212-1.365-1.391-.705-2.66-1.644-3.924-2.623l-.572-.446c-1.069-.834-2.146-1.675-3.287-2.386l-.002-.001a32.666 32.666 0 0 0-.942-.548 42.596 42.596 0 0 1-.483-.277c-.45-.261-.858-.517-1.213-.806-.699-.569-1.193-1.27-1.33-2.4-.035-.325.023-.908.15-1.625.124-.709.311-1.522.519-2.289.207-.768.434-1.484.638-2.001.102-.26.195-.46.273-.59Zm.088-.12.004-.003-.004.003Z" fill="#F4F7FA" stroke="#000" stroke-width=".5"/><path d="m17.383 304.952-.494.003a4.652 4.652 0 0 0-.031 1.032v.009c.156 1.28.73 2.092 1.512 2.73.387.314.823.586 1.277.851l.499.285c.3.17.605.343.916.533 1.12.699 2.183 1.526 3.26 2.364.189.147.378.295.569.442 1.268.981 2.569 1.946 3.991 2.67 1.434.73 4.02 1.45 6.38 1.417 1.181-.017 2.328-.223 3.25-.73.932-.513 1.625-1.33 1.886-2.536l-.464-.173c-.844 1.541-2.794 2.051-4.96 1.976-2.15-.074-4.396-.724-5.67-1.366-1.391-.706-2.682-1.661-3.973-2.661l-.57-.443c-1.099-.856-2.209-1.721-3.376-2.448a31.159 31.159 0 0 0-1.019-.608l-.382-.222a10.55 10.55 0 0 1-1.212-.801c-.708-.563-1.22-1.242-1.389-2.324Zm33.247-14.564c.04-.011.071-.019.096-.024a109.989 109.989 0 0 0 9.108 8.223l.002.002.454.353c.78.603 1.643 1.271 2.315 2.046.8.923 1.289 1.956 1.042 3.162v.004c-.206 1.095-.792 1.823-1.602 2.289-.82.472-1.88.682-3.024.704-2.293.045-4.832-.665-6.212-1.365-1.391-.705-2.66-1.644-3.923-2.623l-.574-.446c-1.068-.834-2.145-1.674-3.286-2.386l-.002-.001a34.639 34.639 0 0 0-.935-.544l-.489-.28c-.447-.261-.855-.517-1.209-.807-.695-.568-1.187-1.268-1.326-2.397-.024-.319.059-.856.22-1.506.161-.644.392-1.371.643-2.053.25-.683.519-1.314.752-1.768a3.76 3.76 0 0 1 .307-.514l.028-.036c1.462 1.091 3.394 1.012 4.941.709a18.328 18.328 0 0 0 2.203-.596c.195-.062.352-.113.471-.146Zm-7.544-.038-.003.002.003-.002Z" fill="#F4F7FA" stroke="#000" stroke-width=".5"/><path d="m40.963 295.728-.248-.033a4.544 4.544 0 0 0-.02 1.032v.007c.156 1.281.74 2.093 1.526 2.73.388.314.824.586 1.275.85.142.084.286.166.43.249.317.182.638.366.962.569v.001c1.132.702 2.2 1.535 3.283 2.378l.55.428c1.267.981 2.566 1.946 3.988 2.67 1.434.73 4.022 1.45 6.385 1.416 1.182-.016 2.33-.222 3.254-.73.932-.512 1.626-1.329 1.886-2.535l-.463-.173c-.844 1.54-2.796 2.051-4.966 1.976-2.151-.074-4.4-.724-5.674-1.366-1.386-.706-2.675-1.661-3.966-2.661l-.545-.424c-1.108-.862-2.228-1.735-3.408-2.467-.346-.219-.692-.42-1.023-.613l-.373-.217a10.633 10.633 0 0 1-1.21-.801c-.708-.563-1.223-1.243-1.396-2.326l-.247.04Zm-19.467-45.687.243.058.007-.03v-.03l-.25.002Zm0 0 .25-.003v-.034l-.002-.1a246.2 246.2 0 0 0-.029-1.859 616.658 616.658 0 0 0-.11-5.112c-.108-4.157-.289-9.529-.581-14.379-.23-3.81-.572-8.937-.91-14.013-.509-7.65-1.01-15.183-1.112-17.919l38.14-9.807.003.285.022 1.709a123276.001 123276.001 0 0 1 .316 25.002c.173 13.912.346 28.327.346 30.355 0 1.514-.46 5.171-1.158 9.83-.696 4.649-1.625 10.273-2.554 15.706a1846.699 1846.699 0 0 1-3.632 20.509l-.062.339-.002.011a7.144 7.144 0 0 1-7.226.31l-.011-.205c-.012-.224-.03-.555-.051-.978a1043.315 1043.315 0 0 1-.658-14.681c-.157-4.191-.288-8.569-.33-12.277-.042-3.716.007-6.74.207-8.234v-.005a41.566 41.566 0 0 1 1.862-8.392l.016-.048-.004-.05-2.926-37.215-.017-.217-.217-.013-1.112-.068-.244-.015-.02.243.249.021-.25-.021v.006l-.001.018-.006.071-.024.277-.09 1.057a2076.427 2076.427 0 0 1-1.434 15.927c-.858 9.126-1.877 19.116-2.518 22.636-.395 2.148-.694 4.244-1.015 6.497a468.6 468.6 0 0 1-.363 2.514 165.388 165.388 0 0 1-2.112 11.672 5040.418 5040.418 0 0 0-4.024 18.695c-.685 3.202-1.305 6.11-1.754 8.217l-.532 2.497-.145.68-.029.133a6.334 6.334 0 0 1-6.652.014l-.007-.164-.032-.843a675.16 675.16 0 0 1-.361-12.954c-.136-7.572-.135-16.153.403-20.269.54-4.131 1.227-7.956 1.779-10.749a164.862 164.862 0 0 1 .894-4.232l.054-.237.014-.06.004-.015v-.004l.001-.001-.243-.058Zm7.593-134.517.287.098 1.693.576a986.98 986.98 0 0 0 5.262 1.766 378.41 378.41 0 0 0 5.602 1.819c1.625.51 2.906.887 3.38.961.358.056.78.348 1.219.906.432.55.854 1.326 1.217 2.28.726 1.906 1.209 4.486 1.108 7.294-.048 1.334-.765 2.618-1.91 3.779-1.145 1.159-2.697 2.174-4.365 2.967-1.667.792-3.438 1.355-5.013 1.618-1.585.264-2.928.216-3.768-.169-1.777-.815-4.535-3.055-6.716-5.23-1.087-1.085-2.018-2.14-2.603-2.979-.294-.421-.49-.773-.58-1.037-.097-.288-.035-.358-.023-.368.332-.276.893-.691 1.537-1.166.475-.351.996-.735 1.5-1.121a26.731 26.731 0 0 0 1.582-1.285c.215-.194.402-.378.543-.542.134-.156.254-.325.295-.487.034-.135.048-.398.054-.717a36.33 36.33 0 0 0-.003-1.249c-.016-.976-.057-2.199-.104-3.396a390.59 390.59 0 0 0-.193-4.291l-.001-.027Zm24.534 10.749c-.26-1.763-.278-3.365.776-4.831 2.117 2.166 3.663 5.179 4.816 8.731 1.188 3.662 1.954 7.881 2.503 12.303.541 4.359.87 8.905 1.19 13.301l.013.188c.322 4.45.637 8.742 1.153 12.507l.01.08.057.059c3.378 3.538 8.454 7.039 13.147 9.859 4.697 2.821 9.03 4.973 10.944 5.813.349.157.63.302.812.482.164.162.247.352.194.64-.482 2.583-1.194 3.712-2.605 5.947l-.387.615a504.37 504.37 0 0 0-1.975-.844c-7.85-3.346-14.08-6.001-24.278-15.697a24.288 24.288 0 0 1-2.778-3.64c-1.578-4.713-2.571-12.854-3.054-20.71-.484-7.87-.453-15.409.002-18.873.213-1.603-.067-3.187-.33-4.671-.075-.429-.15-.849-.21-1.259Z" fill="#F4F7FA" stroke="#000" stroke-width=".5"/><path d="m43.697 137.865.118.012.085-.084c.776-.777 1.356-2.014 1.734-3.456.38-1.447.562-3.126.525-4.813-.038-1.686-.296-3.39-.804-4.885-.47-1.378-1.156-2.593-2.094-3.448a16.038 16.038 0 0 1 1.904-1.221c.615-.334 1.302-.646 1.985-.839.67-.189 1.32-.258 1.891-.136a12.895 12.895 0 0 1 5.581 7.15l.003.007a59.616 59.616 0 0 1 3.253 21.139v.003c-.078 4.883-.078 14.748-.058 23.389a6001.58 6001.58 0 0 0 .052 14.771l.005.959v.251l.001.057a3.211 3.211 0 0 1-.062.237 9.4 9.4 0 0 1-.255.756 14.674 14.674 0 0 1-1.34 2.627c-1.353 2.123-3.744 4.833-7.9 7.149-8.339 4.648-14.518 5.093-20.136 3.781-4.672-1.086-8.425-2.712-9.996-5.964.13-2.038.485-5.024.893-8.447.277-2.325.578-4.851.848-7.418.67-6.367 1.15-12.984.575-17.303-.49-3.676-1.098-6.957-1.67-10.046a868.41 868.41 0 0 1-.284-1.536c-.65-3.54-1.215-6.864-1.458-10.314-.244-3.466-.005-5.097.671-6.167.338-.534.794-.944 1.395-1.376.302-.217.635-.437 1.005-.681l.014-.009c.366-.241.766-.504 1.198-.806l.007-.006a54.717 54.717 0 0 1 6.337-4.146l.178.248c.203.276.501.67.889 1.146a34.364 34.364 0 0 0 3.325 3.542c2.838 2.616 6.869 5.38 11.585 5.877Z" fill="#F4F4F4" stroke="#000" stroke-width=".5"/><path d="M49.308 101.542v.005c.301 1.741.64 4.468.603 7.454-.037 2.99-.452 6.222-1.648 8.986-.684 1.562-1.396 2.615-2.276 3.328-.878.712-1.946 1.105-3.38 1.306-.523.068-1.404.013-2.49-.165a27.264 27.264 0 0 1-3.613-.871c-1.273-.399-2.552-.9-3.67-1.486-1.11-.582-2.046-1.241-2.663-1.957a13.87 13.87 0 0 1-1.107-3.032l-.023-.095-.08-.054a13.768 13.768 0 0 1-6.045-10.65 13.918 13.918 0 0 1 3.52-10.046 13.898 13.898 0 0 1 9.586-4.614c7.175-.4 12.208 4.87 13.286 11.891Z" fill="#F4F7FA" stroke="#000" stroke-width=".5"/><path d="m29.238 108.993-.632 5.832c-3.452-1.289-5.445-3.781-6.614-6.448-1.204-2.745-1.53-5.667-1.66-7.626a13.693 13.693 0 0 1 3.416-9.324 13.675 13.675 0 0 1 8.824-4.558l.006-.001c4.995-.644 9.582.22 12.61 1.885 1.513.833 2.62 1.856 3.205 2.972.58 1.107.656 2.32.086 3.576-.598 1.317-1.16 2.236-1.777 2.858-.61.613-1.282.945-2.124 1.075-.852.132-1.885.057-3.214-.16-1.066-.174-2.306-.437-3.78-.749l-1.124-.238c-3.039-.638-5.058-.3-6.352.637-1.296.939-1.8 2.432-1.916 3.955-.116 1.525.154 3.12.448 4.325a20.127 20.127 0 0 0 .564 1.894l.034.095Z" fill="#7247FF" stroke="#000" stroke-width=".5"/><path d="m27.987 174.299.007.051.027.044c1.267 2.096 3.383 4.363 5.828 6.579 2.449 2.219 5.241 4.398 7.874 6.316a158.08 158.08 0 0 0 9.805 6.579c.04.33.042.6 0 .858-.046.287-.146.571-.32.917-.229.456-.57.992-1.054 1.752-.239.375-.513.805-.824 1.306-8.824-3.814-16.247-7.156-27.291-17.648a3.25 3.25 0 0 0-.603-.424 4.77 4.77 0 0 1-.165-.1c-.225-.142-.37-.273-.435-.475v-.002c-1.587-4.773-3.267-14.007-4.435-22.935-.583-4.461-1.038-8.839-1.289-12.536-.244-3.59-.294-6.52-.09-8.262 1.581-.444 1.777-.483 1.868-.501h.001c.116-.023.138-.03 1.307-.388 4.39 4.374 6.335 10.292 7.429 17.01.551 3.385.885 6.964 1.209 10.643l.081.924c.297 3.383.6 6.842 1.07 10.292Z" fill="#F4F7FA" stroke="#000" stroke-width=".5"/><path d="m65.217 167.831 31.646-12.769-13.29 45.475-28.99 11.595 10.634-44.301Z" fill="#D4C7FF" stroke="#000" stroke-width=".5"/><path d="m58.733 193.677-.003.25h.005l.014.001h.054l.207.002.743.006c.618.004 1.45.009 2.3.009.852 0 1.726-.005 2.428-.018.352-.006.662-.015.906-.026.228-.011.418-.024.526-.045a.846.846 0 0 1 .846.434.843.843 0 0 1-.101.952l-.442.514.67-.104.439-.068.007-.002.008-.001c.503-.111.868.206.982.619a.816.816 0 0 1-.04.577c-.079.157-.23.295-.495.356-.277.061-.56.097-.862.136l-.198.026-.057.481c.33.126.55.472.572.813a.649.649 0 0 1-.107.423c-.076.107-.205.2-.418.236l-.332.059-.024.004-.022.008a.846.846 0 0 1-.37.053l-.009-.001h-.519l.06.299a.914.914 0 0 1-.765 1.08c-.467.062-.96.141-1.47.223-1.248.2-2.601.416-3.946.446-1.887.04-3.687-.293-5.052-1.534l-.06-.055-.083-.009a17.753 17.753 0 0 1-5.654-1.529c-.798-.38-1.198-.965-1.347-1.675-.153-.725-.045-1.595.214-2.521.102-.365.238-.589.383-.727a.834.834 0 0 1 .516-.222c.21-.021.456.008.739.073.256.058.528.142.818.23l.078.024a7.707 7.707 0 0 0 4.505.389l.011-.002.011-.003c.654-.205 1.207-.584 1.715-.985a26 26 0 0 0 .503-.409c.324-.268.636-.526.972-.752a3.782 3.782 0 0 1 1.506-.505c-.068.3-.179.75-.29 1.188-.08.317-.159.622-.217.848l-.07.27-.02.075-.005.019-.002.005v.002l.242.063Zm0 0-.003.25-.32-.003.081-.31.242.063Zm20.694-3.166h1.165l-.57-.446a.843.843 0 0 1 .468-1.506c.11-.001.305-.026.542-.062a37 37 0 0 0 .93-.16c.723-.131 1.621-.306 2.497-.48.876-.175 1.73-.349 2.366-.48l.765-.158.212-.045.056-.012.015-.003h.004v-.001l-.05-.244.05.244.147-.03.042-.144.736-2.523c.084.039.184.091.29.148a11.838 11.838 0 0 1 .54.312l.038.023.006.003.006.005.007.004a4.244 4.244 0 0 1 1.896 3.145 6.867 6.867 0 0 1-1.88 4.954 6.343 6.343 0 0 1-4.343 1.876v-.001l-.009.001-.59.035c-.592.034-1.165.067-1.687.111a.904.904 0 0 1-.636-.27.91.91 0 0 1-.264-.649l.002-.252h-.487l-.027.006a.797.797 0 0 1-.364 0l-.028-.006h-.37c-.229 0-.384-.07-.489-.164a.667.667 0 0 1-.202-.397.987.987 0 0 1 .387-.937l.64-.454h-.785c-.192 0-.385.018-.564.034l-.005.001c-.186.017-.357.033-.523.033h-.008l-.008.001c-.287.017-.47-.075-.584-.198a.73.73 0 0 1-.173-.52c.014-.405.296-.797.84-.794Zm.002-.25h.082c.06.073.128.139.203.197l.154-.197v-.25l-.44.25Z" fill="#F4F7FA" stroke="#000" stroke-width=".5"/><path d="m57.898 137.914-.03-.167a139.117 139.117 0 0 0-.875-4.583c-.568-2.725-1.34-5.959-2.144-7.93l-.004-.009a16.497 16.497 0 0 0-4.738-6.099c3.768.846 6.66 3.989 8.69 7.449 2.163 3.687 3.302 7.658 3.463 9.368-.664.88-1.77 1.382-2.755 1.662a9.682 9.682 0 0 1-1.607.309Zm-33.613-.609v.001l.006.021.035.124.133.472a297.808 297.808 0 0 1 1.85 6.922c.487 1.927.951 3.886 1.252 5.434.15.775.26 1.441.31 1.947.025.253.035.46.03.616a1.273 1.273 0 0 1-.028.226c-2.997 2.44-6.62 2.943-9.52 2.825a20.746 20.746 0 0 1-3.625-.475 17.533 17.533 0 0 1-1.294-.338c-.004-.023-.01-.047-.014-.074a79.882 79.882 0 0 1-.462-2.882c-.266-1.881-.562-4.419-.68-7.049-.116-2.633-.054-5.345.388-7.579.447-2.251 1.263-3.939 2.587-4.636 1.379-.726 2.618-.809 3.704-.536 1.094.274 2.051.912 2.847 1.655.796.742 1.42 1.58 1.845 2.234a12.932 12.932 0 0 1 .605 1.033l.03.059Z" fill="#EDEDED" stroke="#000" stroke-width=".5"/><path opacity=".4" d="M102.114 394.509c2.78 0 5.033-1.302 5.033-2.908 0-1.607-2.253-2.909-5.033-2.909-2.779 0-5.032 1.302-5.032 2.909 0 1.606 2.253 2.908 5.032 2.908Zm94.254 53.787c2.779 0 5.033-1.302 5.033-2.908 0-1.606-2.254-2.909-5.033-2.909-2.779 0-5.033 1.303-5.033 2.909 0 1.606 2.254 2.908 5.033 2.908Zm163.373-99.708c2.78 0 5.033-1.302 5.033-2.908 0-1.607-2.253-2.909-5.033-2.909-2.779 0-5.032 1.302-5.032 2.909 0 1.606 2.253 2.908 5.032 2.908Z" fill="#D6D8E5"/><path d="M105.483 293.353v97.652a1.481 1.481 0 0 1-.834 1.209l-.005.003a5.2 5.2 0 0 1-4.718 0l-.006-.003a1.464 1.464 0 0 1-.832-1.209v-97.652h6.395Zm88.082 151.481V331.456h5.615v113.377a1.518 1.518 0 0 1-.77 1.225l-.004.003a4.003 4.003 0 0 1-4.076 0l-.003-.002a1.52 1.52 0 0 1-.762-1.225Zm168.979-192.308v92.404a1.502 1.502 0 0 1-.768 1.214l-.007.004a3.982 3.982 0 0 1-4.065 0l-.007-.004a1.502 1.502 0 0 1-.768-1.214v-92.404h5.615Z" fill="#F4F4F4" stroke="#000" stroke-width=".5"/><path d="M196.118 353.525v6.41L92.982 300.347v-6.421l103.136 59.599Z" fill="#F4F4F4" stroke="#000" stroke-width=".5"/><path d="m267.458 193.039 103.146 59.589-174.255 100.678-103.146-59.589 174.255-100.678Z" fill="#F4F4F4"/><path d="m267.458 193.039 103.146 59.589-174.255 100.678-103.146-59.589 174.255-100.678Z" fill="#F4F4F4"/><path d="m267.458 193.039 103.146 59.589-174.255 100.678-103.146-59.589 174.255-100.678Z" stroke="#000" stroke-width=".5"/><path d="M370.873 252.846v6.411L196.618 359.935v-6.41l174.255-100.679Z" fill="#F4F4F4"/><path d="M370.873 252.846v6.411L196.618 359.935v-6.41l174.255-100.679Z" fill="#F4F4F4"/><path d="M370.873 252.846v6.411L196.618 359.935v-6.41l174.255-100.679Z" stroke="#000" stroke-width=".5"/><path d="m321.246 232.483-27.864 23.356-25.456-10.141 27.865-23.355 25.455 10.14Z" fill="#F4F4F4"/><path d="m292.923 221.226 21.357 12.341-34.211 19.768-21.357-12.341 34.211-19.768Z" fill="#F4F4F4" stroke="#000" stroke-width=".5"/><path d="m282.39 248.207-2.126 1.229-14.415-8.325 2.126-1.23 14.415 8.326Zm4.779-2.763-2.126 1.23-14.406-8.325 2.127-1.23 14.405 8.325Zm4.603-2.654-2.126 1.22-14.405-8.316 2.126-1.23 14.405 8.326Zm10.807-6.247-2.126 1.23-8.388-4.841 2.126-1.23 8.388 4.841Zm4.603-2.654-2.126 1.22-8.388-4.841 2.127-1.23 8.387 4.851Z" fill="#D6D8E5"/><path d="M283.999 252.101c.576-.244 30.781-18.544 30.781-18.544l-31.551 18.251.77.293Z" fill="#D6D6D6"/><path opacity=".2" d="M296.253 275.984c0 1.08-.76 2.105-2.092 2.875-1.325.765-3.173 1.247-5.227 1.247-2.054 0-3.901-.482-5.226-1.247-1.332-.77-2.092-1.795-2.092-2.875 0-1.081.76-2.106 2.092-2.876 1.325-.765 3.172-1.247 5.226-1.247s3.902.482 5.227 1.247c1.332.77 2.092 1.795 2.092 2.876Z" fill="#000" stroke="#000" stroke-width=".5"/><path d="M296.994 263.952v11.395a3.51 3.51 0 0 1-2.075 2.877l-.012.006a11.565 11.565 0 0 1-10.496.003c-1.668-.964-2.281-2.226-2.03-3.367l.005-.027V264.32l14.608-.368Z" fill="#F4F4F4" stroke="#000" stroke-width=".5"/><path d="M296.994 263.696c0 1.08-.76 2.106-2.092 2.875-1.325.766-3.172 1.247-5.226 1.247s-3.902-.481-5.227-1.247c-1.332-.769-2.092-1.795-2.092-2.875 0-1.081.76-2.106 2.092-2.876 1.325-.765 3.173-1.247 5.227-1.247 2.054 0 3.901.482 5.226 1.247 1.332.77 2.092 1.795 2.092 2.876Z" fill="#F4F4F4" stroke="#000" stroke-width=".5"/><path d="M289.666 266.608h-.005a9.492 9.492 0 0 1-4.624-1.092c-.998-.571-1.49-1.256-1.49-1.83 0-.573.491-1.249 1.49-1.831a9.502 9.502 0 0 1 4.624-1.091h.49c1.446.029 2.866.4 4.142 1.081 1.02.601 1.501 1.277 1.501 1.851 0 .575-.483 1.26-1.489 1.83a9.188 9.188 0 0 1-4.144 1.082h-.495Z" fill="#F4F4F4" stroke="#000" stroke-width=".5"/><path opacity=".07" d="M295.794 263.696c0 .575-.484 1.261-1.491 1.831a8.518 8.518 0 0 1-8.289.001c-.999-.572-1.492-1.258-1.492-1.832 0-.574.492-1.25 1.493-1.833a8.52 8.52 0 0 1 8.287.001c1.009.581 1.492 1.257 1.492 1.832Z" fill="#F4F4F4" stroke="#000" stroke-width=".5"/><path d="m297.421 277.574-.366.207.035-.153-.222-.068a2.365 2.365 0 0 1-.502-.221l-.002-.001-1.562-.903v-.294l-.125-.072-.408-.234.284-.167 1.561.903c.063.036.161.092.27.135a.802.802 0 0 0 .398.063.54.54 0 0 0 .411-.29c.088-.158.125-.37.125-.632v-4.292l-.231.193c-.244-.45-.511-.887-.802-1.308v-.349l-.125-.073-1.377-.796v-.293l-.126-.072-.407-.235.284-.167 1.473.849a4.291 4.291 0 0 1 1.816 3.27v3.913l.002.016a1.234 1.234 0 0 1-.404 1.071Z" fill="#F4F4F4" stroke="#000" stroke-width=".5"/><path d="m294.002 276.271 1.312.759.003.001.006.004c.06.033.154.086.258.126a.808.808 0 0 0 .397.062.547.547 0 0 0 .414-.29c.088-.159.127-.372.127-.637v-3.915l-.001-.011a2.48 2.48 0 0 0-1.085-1.845l-.007-.004-.007-.005-1.407-.816v-.623l1.226.706a4.285 4.285 0 0 1 1.834 3.223v3.893c-.01.509-.135.886-.342 1.057-.175.145-.511.217-1.165-.159h-.001l-1.562-.904v-.622Z" fill="#F4F4F4" stroke="#000" stroke-width=".5"/><path opacity=".2" d="M146.943 291.717c0 1.08-.76 2.106-2.092 2.875-1.325.766-3.172 1.247-5.226 1.247s-3.902-.481-5.227-1.247c-1.332-.769-2.092-1.795-2.092-2.875 0-1.081.76-2.106 2.092-2.876 1.325-.765 3.173-1.247 5.227-1.247 2.054 0 3.901.482 5.226 1.247 1.332.77 2.092 1.795 2.092 2.876Z" fill="#000" stroke="#000" stroke-width=".5"/><path d="M147.684 279.685v11.396a3.498 3.498 0 0 1-2.074 2.876l-.007.003-.006.003a11.56 11.56 0 0 1-10.496.003c-1.658-.954-2.281-2.216-2.03-3.367l.006-.027v-10.519l14.607-.368Z" fill="#F4F4F4" stroke="#000" stroke-width=".5"/><path d="M147.684 279.429c0 1.08-.76 2.106-2.091 2.875-1.326.766-3.173 1.247-5.227 1.247-2.054 0-3.901-.481-5.227-1.247-1.331-.769-2.091-1.795-2.091-2.875 0-1.081.76-2.106 2.091-2.876 1.326-.765 3.173-1.247 5.227-1.247 2.054 0 3.901.482 5.227 1.247 1.331.77 2.091 1.795 2.091 2.876Z" fill="#F4F4F4" stroke="#000" stroke-width=".5"/><path d="M140.366 282.341h-.005a9.502 9.502 0 0 1-4.624-1.091c-1.008-.582-1.49-1.257-1.49-1.831 0-.575.484-1.26 1.49-1.84a9.496 9.496 0 0 1 4.623-1.082h.491a9.23 9.23 0 0 1 4.142 1.071c1 .602 1.492 1.287 1.492 1.861 0 .573-.491 1.248-1.491 1.831a9.35 9.35 0 0 1-4.143 1.081h-.485Z" fill="#F4F4F4" stroke="#000" stroke-width=".5"/><path opacity=".07" d="M146.485 279.429c0 .573-.492 1.249-1.493 1.832a8.52 8.52 0 0 1-8.284.001c-.469-.286-.848-.602-1.107-.922-.261-.322-.388-.631-.388-.911 0-.575.493-1.26 1.492-1.842a8.527 8.527 0 0 1 8.287 0c1 .582 1.493 1.267 1.493 1.842Z" fill="#fff" stroke="#000" stroke-width=".5"/><path d="m145.222 284.187 1.465.849a4.28 4.28 0 0 1 1.787 3.261v3.914l.002.016a1.211 1.211 0 0 1-.412 1.079l-.38.216.033-.161-.215-.068a2.292 2.292 0 0 1-.493-.22l-.003-.001-1.562-.904v-.293l-.125-.072-.413-.24.287-.163 1.561.903c.062.037.158.093.265.136a.792.792 0 0 0 .396.063.543.543 0 0 0 .411-.29c.087-.158.124-.37.124-.632v-4.362l-.235.236a13.047 13.047 0 0 0-.775-1.262l.031-.182.03-.171-.151-.087-1.377-.797v-.292l-.124-.073-.414-.24.287-.163Z" fill="#F4F4F4" stroke="#000" stroke-width=".5"/><path d="M147.199 288.154v-.012l-.001-.012a2.554 2.554 0 0 0-1.081-1.85l-.009-.006-.01-.006-1.415-.806v-.621l1.223.742a4.282 4.282 0 0 1 1.837 3.224v3.895c0 .472-.12.832-.324.999-.176.143-.515.217-1.166-.143l-1.57-.903v-.633l1.32.759c.061.037.157.093.263.137a.802.802 0 0 0 .396.067.542.542 0 0 0 .413-.291c.087-.158.124-.371.124-.636v-3.904Z" fill="#F4F4F4" stroke="#000" stroke-width=".5"/><path opacity=".2" d="m236.239 262.827-22.433-12.971a1.266 1.266 0 0 0-1.287 0l-39.383 22.76 23.066 13.352 40.037-23.141Z" fill="#000"/><path d="m237.302 260.28-22.432-12.971a1.27 1.27 0 0 0-1.288 0l-39.383 22.76 23.096 13.342 40.007-23.131Z" fill="#F4F4F4"/><path fill-rule="evenodd" clip-rule="evenodd" d="m213.582 247.309-39.383 22.76 23.096 13.342 40.007-23.131-22.432-12.971a1.27 1.27 0 0 0-1.288 0Zm22.721 12.971-21.687-12.541a.777.777 0 0 0-.78 0l-.004.003-38.633 22.327 22.095 12.764 39.009-22.553Z" fill="#000"/><path d="m196.231 278.638-1.716.976c-.137.088-.117.225 0 .322l1.638.976a.607.607 0 0 0 .547 0l1.706-.976c.137-.078.127-.214 0-.312l-1.628-.976a.646.646 0 0 0-.547-.01Zm2.419-1.395-1.707.976c-.146.078-.126.224 0 .312l1.629.976a.633.633 0 0 0 .546 0l1.707-.976c.147-.078.127-.225 0-.312l-1.629-.976a.568.568 0 0 0-.546 0Zm2.448-1.416-1.706.976c-.137.078-.127.225 0 .313l1.628.976a.641.641 0 0 0 .546 0l1.717-.976c.137-.078.117-.225 0-.313l-1.639-.976a.573.573 0 0 0-.546 0Zm2.399-1.386-1.716.976c-.137.079-.117.225 0 .313l1.638.976a.58.58 0 0 0 .547 0l1.706-.976c.147-.078.127-.225 0-.313l-1.628-.976a.647.647 0 0 0-.547 0Zm2.419-1.405-1.706.976c-.137.078-.127.215 0 .312l1.628.976a.633.633 0 0 0 .546 0l1.717-.976c.136-.087.117-.224 0-.322l-1.639-.976a.602.602 0 0 0-.546.01Zm2.429-1.396-1.717.976c-.136.088-.117.225 0 .322l1.639.976a.565.565 0 0 0 .546 0l1.707-.976c.136-.078.126-.224 0-.312l-1.629-.976a.645.645 0 0 0-.546-.01Zm2.419-1.395-1.707.976c-.147.078-.127.224 0 .312l1.629.976a.627.627 0 0 0 .546 0l1.706-.976c.147-.078.127-.224 0-.312l-1.628-.976a.568.568 0 0 0-.546 0Zm2.418-1.406-1.707.976c-.136.088-.126.225 0 .322l1.629.976a.604.604 0 0 0 .546 0l1.717-.976c.137-.078.117-.214 0-.312l-1.639-.976a.639.639 0 0 0-.546-.01Zm2.429-1.415-1.717.976c-.136.078-.117.225 0 .312l1.639.976a.6.6 0 0 0 .546 0l1.707-.976c.146-.078.127-.224 0-.312l-1.629-.976a.58.58 0 0 0-.546 0Zm2.419-1.386-1.707.976c-.137.078-.127.215 0 .312l1.629.976a.627.627 0 0 0 .546 0l1.716-.976c.137-.087.117-.224 0-.322l-1.638-.976a.61.61 0 0 0-.546.01Zm2.389-1.396-1.716.976c-.137.079-.118.225 0 .313l1.638.976a.58.58 0 0 0 .546 0l1.707-.976c.137-.078.127-.225 0-.313l-1.629-.976a.64.64 0 0 0-.546 0Zm2.458-1.405-1.707.976c-.146.078-.127.215 0 .312l1.629.976a.627.627 0 0 0 .546 0l1.707-.976c.146-.088.127-.224 0-.322l-1.629-.976a.602.602 0 0 0-.546.01Zm2.419-1.396-1.707.976c-.137.088-.127.225 0 .322l1.629.976a.6.6 0 0 0 .546 0l1.716-.976c.137-.078.117-.214 0-.312l-1.638-.976a.645.645 0 0 0-.546-.01Zm3.598-2.069-2.925 1.659c-.137.078-.118.225 0 .313l1.638.976a.645.645 0 0 0 .546 0l2.926-1.659c.137-.079.117-.225 0-.313l-1.638-.976a.56.56 0 0 0-.547 0Zm-31.424 15.46-1.707.976c-.136.078-.126.215 0 .312l1.629.976a.63.63 0 0 0 .546 0l1.717-.976c.136-.088.117-.224 0-.322l-1.668-.966a.608.608 0 0 0-.517 0Zm2.468-1.425-1.707.976c-.146.078-.127.225 0 .312l1.629.976a.627.627 0 0 0 .546 0l1.716-.976c.137-.078.117-.224 0-.312l-1.638-.976a.58.58 0 0 0-.546 0Zm2.389-1.405-1.707.976c-.146.087-.126.224 0 .322l1.629.976a.603.603 0 0 0 .546 0l1.707-.976c.146-.078.127-.225 0-.313l-1.629-.976a.623.623 0 0 0-.272-.066.619.619 0 0 0-.274.057Zm2.429-1.406-1.717.976c-.136.078-.117.215 0 .312l1.639.976a.627.627 0 0 0 .546 0l1.707-.976c.136-.087.126-.224 0-.322l-1.629-.976a.608.608 0 0 0-.546.01Zm2.409-1.386-1.717.976c-.136.078-.117.225 0 .313l1.639.976a.576.576 0 0 0 .546 0l1.707-.976c.136-.078.126-.225 0-.313l-1.629-.976a.645.645 0 0 0-.546 0Zm2.428-1.405-1.716.976c-.137.088-.117.224 0 .322l1.638.976a.583.583 0 0 0 .537 0l1.716-.976c.137-.078.117-.215 0-.312l-1.638-.976a.625.625 0 0 0-.537-.01Zm2.419-1.406-1.707.976c-.136.078-.127.215 0 .313l1.629.976a.641.641 0 0 0 .546 0l1.717-.976c.136-.088.117-.225 0-.322l-1.639-.976a.603.603 0 0 0-.546.009Zm2.428-1.395-1.706.976c-.147.078-.127.224 0 .312l1.628.976a.58.58 0 0 0 .547 0l1.706-.976c.147-.078.127-.224 0-.312l-1.628-.976a.633.633 0 0 0-.547 0Zm2.429-1.406-1.707.976c-.146.088-.127.225 0 .322l1.629.976a.604.604 0 0 0 .546 0l1.707-.976c.146-.078.127-.214 0-.312l-1.629-.976a.639.639 0 0 0-.546-.01Zm2.428-1.405-1.716.976c-.137.078-.117.215 0 .312l1.638.976a.635.635 0 0 0 .547 0l1.706-.976c.137-.088.127-.224 0-.322l-1.628-.976a.61.61 0 0 0-.547.01Zm2.429-1.396-1.717.976c-.136.078-.117.225 0 .312l1.639.976a.568.568 0 0 0 .546 0l1.707-.976c.136-.078.127-.224 0-.312l-1.629-.976a.627.627 0 0 0-.546 0Zm2.428-1.405-1.716.976c-.137.088-.117.224 0 .322l1.629.976a.6.6 0 0 0 .546 0l1.716-.976c.137-.078.117-.215 0-.313l-1.638-.976a.62.62 0 0 0-.537-.009Zm-29.093 16.816-2.926 1.659c-.136.088-.117.225 0 .322l1.639.976a.6.6 0 0 0 .546 0l2.877-1.669c.137-.078.117-.224 0-.312l-1.639-.976a.606.606 0 0 0-.497 0Zm33.716-16.933-1.716.976a.583.583 0 0 1-.507 0l-1.727-.976c-.136-.079-.136-.205 0-.293l.137-.078c.127-.069.127-.196 0-.274l-1.824-1.044c-.146-.088-.146-.215 0-.302l1.092-.625a.574.574 0 0 1 .508 0l1.706.976.352.205.253.146.263.147 1.463.849c.137.088.137.234 0 .293Zm-41.928 13.527-1.717.976c-.136.078-.117.215 0 .312l1.639.976a.609.609 0 0 0 .536 0l1.717-.976c.136-.088.117-.224 0-.322l-1.639-.976a.582.582 0 0 0-.536.01Zm2.409-1.396-1.707.976c-.136.078-.126.215 0 .313l1.629.976a.645.645 0 0 0 .546 0l1.717-.976c.136-.088.117-.225 0-.322l-1.639-.976a.59.59 0 0 0-.546.009Zm2.419-1.395-1.707.976c-.146.078-.127.214 0 .312l1.629.976a.627.627 0 0 0 .546 0l1.707-.976c.146-.088.126-.225 0-.322l-1.629-.976a.606.606 0 0 0-.546.01Zm20.569-11.878-1.707.976c-.136.078-.127.224 0 .312l1.629.976a.63.63 0 0 0 .546 0l1.717-.976c.136-.078.117-.224 0-.312l-1.639-.976a.568.568 0 0 0-.546 0Zm2.419-1.396-1.707.976c-.146.078-.127.224 0 .312l1.629.976a.627.627 0 0 0 .546 0l1.707-.976c.146-.078.126-.224 0-.312l-1.629-.976a.58.58 0 0 0-.546 0Zm2.418-1.425-1.716.976c-.137.078-.117.225 0 .312l1.638.976a.635.635 0 0 0 .547 0l1.706-.976c.137-.078.127-.224 0-.312l-1.628-.976a.58.58 0 0 0-.547 0Zm2.41-1.366-1.707.976c-.137.078-.127.224 0 .312l1.629.976a.627.627 0 0 0 .546 0l1.716-.976c.137-.078.117-.225 0-.312l-1.638-.976a.568.568 0 0 0-.546 0Zm-24.773 14.318-2.341 1.346c-.136.079-.117.215 0 .313l1.639.976a.641.641 0 0 0 .546 0l2.331-1.347c.136-.078.117-.225 0-.312l-1.639-.976a.546.546 0 0 0-.536 0Zm15.117-8.736-2.341 1.347c-.136.078-.117.215 0 .313l1.639.976a.64.64 0 0 0 .546 0l2.331-1.347c.136-.078.127-.225 0-.313l-1.629-.976a.58.58 0 0 0-.546 0Zm-3.072 1.747-11.372 6.579c-.147.078-.127.224 0 .312l1.628.976a.635.635 0 0 0 .547 0l11.381-6.569c.137-.087.117-.224-.048-.322l-1.629-.976a.617.617 0 0 0-.507 0Zm-10.982 11.79-1.707.976c-.146.079-.127.215 0 .313l1.629.976a.6.6 0 0 0 .546 0l1.717-.976c.136-.078.117-.215 0-.313l-1.639-.976a.616.616 0 0 0-.546 0Zm2.419-1.395-1.707.976c-.137.088-.127.224 0 .322l1.629.976a.6.6 0 0 0 .546 0l1.716-.976c.137-.078.117-.215 0-.312l-1.638-.976a.63.63 0 0 0-.546-.01Zm2.418-1.396-1.706.976c-.137.078-.127.225 0 .312l1.628.976a.568.568 0 0 0 .547 0l1.716-.976c.137-.078.117-.224 0-.312l-1.638-.976a.607.607 0 0 0-.547 0Zm2.429-1.396-1.717.976c-.136.078-.117.225 0 .313l1.639.976a.619.619 0 0 0 .536 0l1.717-.976c.136-.088.117-.225 0-.322l-1.639-.976a.56.56 0 0 0-.536.009Zm2.419-1.405-1.717.976c-.136.078-.117.215 0 .312l1.639.976a.6.6 0 0 0 .546 0l1.707-.976c.136-.078.126-.214 0-.312l-1.629-.976a.603.603 0 0 0-.546 0Zm2.418-1.425-1.716.976c-.137.088-.117.224 0 .322l1.638.976a.606.606 0 0 0 .547 0l1.706-.976c.137-.078.127-.215 0-.312l-1.628-.976a.646.646 0 0 0-.547-.01Zm2.419-1.366-1.716.976c-.137.078-.117.224 0 .312l1.638.976a.58.58 0 0 0 .546 0l1.707-.976c.146-.078.127-.225 0-.312l-1.629-.976a.6.6 0 0 0-.546 0Zm2.419-1.406-1.707.976c-.146.078-.127.215 0 .312l1.629.976a.627.627 0 0 0 .546 0l1.707-.976c.146-.087.127-.224 0-.322l-1.629-.976a.602.602 0 0 0-.546.01Zm2.419-1.395-1.707.975c-.146.079-.127.215 0 .313l1.629.976a.6.6 0 0 0 .546 0l1.707-.976c.146-.078.126-.215 0-.313l-1.629-.975a.604.604 0 0 0-.546 0Zm2.418-1.396-1.706.976c-.137.088-.127.224 0 .322l1.628.976a.606.606 0 0 0 .547 0l1.716-.976c.137-.078.117-.215 0-.312l-1.638-.976a.634.634 0 0 0-.547-.01Zm2.419-1.396-1.707.976c-.136.078-.126.225 0 .312l1.629.976a.604.604 0 0 0 .546 0l1.717-.976c.136-.078.117-.224 0-.312l-1.639-.976a.576.576 0 0 0-.546 0Z" fill="#2B303F"/><path d="m222.37 258.084-1.717.976c-.136.078-.117.214 0 .312l1.639.976a.606.606 0 0 0 .536 0l1.717-.976c.136-.088.117-.224 0-.322l-1.639-.976a.585.585 0 0 0-.536.01Zm-29.006 16.787-3.54 2.04c-.137.078-.117.224 0 .312l1.638.976a.583.583 0 0 0 .537 0l3.54-2.04c.146-.088.127-.224 0-.312l-1.629-.976a.576.576 0 0 0-.546 0Zm-1.131-2.069-1.707.976c-.146.078-.127.214 0 .312l1.629.976a.627.627 0 0 0 .546 0l1.716-.976c.137-.088.117-.224 0-.322l-1.638-.976a.608.608 0 0 0-.546.01Zm2.419-1.396-1.707.976c-.137.088-.127.225 0 .322l1.628.976a.607.607 0 0 0 .547 0l1.716-.976c.137-.078.117-.215 0-.312l-1.638-.976a.63.63 0 0 0-.546-.01Zm2.418-1.396-1.707.976c-.136.078-.126.225 0 .313l1.629.976a.58.58 0 0 0 .546 0l1.717-.976c.136-.078.117-.225 0-.313l-1.639-.976a.64.64 0 0 0-.546 0Zm2.429-1.395-1.717.976c-.136.078-.117.224 0 .312l1.639.976a.606.606 0 0 0 .536 0l1.717-.976c.136-.078.117-.224 0-.312l-1.639-.976a.546.546 0 0 0-.536 0Zm2.389-1.406-1.716.976c-.137.078-.117.215 0 .313l1.638.976a.625.625 0 0 0 .537 0l1.716-.976c.137-.088.117-.225 0-.322l-1.638-.976a.587.587 0 0 0-.537.009Zm2.448-1.395-1.716.976c-.137.078-.117.214 0 .312l1.638.976a.603.603 0 0 0 .546 0l1.707-.976c.137-.078.127-.215 0-.312l-1.629-.976a.6.6 0 0 0-.546 0Zm2.429-1.396-1.717.976c-.136.088-.117.224 0 .322l1.639.976a.6.6 0 0 0 .546 0l1.707-.976c.136-.078.126-.215 0-.312l-1.629-.976a.631.631 0 0 0-.546-.01Zm2.409-1.396-1.717.976c-.136.078-.117.225 0 .313l1.639.976a.58.58 0 0 0 .546 0l1.707-.976c.136-.079.127-.225 0-.313l-1.629-.976a.603.603 0 0 0-.546 0Zm2.467-1.395-1.716.976c-.137.078-.117.224 0 .312l1.638.976a.633.633 0 0 0 .546 0l1.707-.976c.147-.078.127-.225 0-.312l-1.628-.976a.569.569 0 0 0-.547 0Zm2.37-1.406-1.707.976c-.146.078-.126.215 0 .312l1.629.976a.63.63 0 0 0 .546 0l1.707-.976c.146-.087.127-.224 0-.322l-1.629-.976a.602.602 0 0 0-.546.01Zm2.419-1.396-1.707.976c-.146.088-.127.225 0 .323l1.629.976a.616.616 0 0 0 .546 0l1.707-.976c.146-.079.127-.215 0-.313l-1.629-.976a.639.639 0 0 0-.546-.01Zm5.413-3.113-4.701 2.713c-.146.078-.127.225 0 .313l1.629.976a.576.576 0 0 0 .546 0l4.711-2.714c.136-.078.117-.224 0-.312l-1.658-.976a.578.578 0 0 0-.527 0Zm-32.029 18.544-2.331 1.347c-.137.078-.127.215 0 .312l1.629.976a.627.627 0 0 0 .546 0l2.341-1.347c.136-.078.117-.224-.049-.312l-1.629-.976a.573.573 0 0 0-.507 0Zm41.509-13.088-34.37 19.861c-.136.079-.117.215 0 .313l.82.468a.6.6 0 0 0 .546 0l34.36-19.861c.146-.078.126-.215 0-.313l-.81-.468a.6.6 0 0 0-.546 0Z" fill="#2B303F"/><path d="m191.111 262.056.224.127 5.94 3.435 10.553-6.1.224-.127-6.164-3.552-10.777 6.217Z" fill="#BFBFBF"/><path d="m191.335 262.183 5.94 3.435 10.553-6.1-5.94-3.425-10.553 6.09Z" fill="#E5E5E5"/><path fill-rule="evenodd" clip-rule="evenodd" d="m197.275 265.041 9.553-5.522-4.94-2.849-9.553 5.513 4.94 2.858Zm0 .577 10.553-6.1-5.94-3.425-10.553 6.09 5.94 3.435Z" fill="#000"/><path d="M174.18 270.069v.527a2.164 2.164 0 0 0 1.082 1.874l20.93 12.093c.329.192.703.293 1.083.292.38-.001.754-.102 1.083-.292l37.861-21.882a2.163 2.163 0 0 0 1.083-1.874v-.527l-39.988 23.131-23.134-13.342Z" fill="#E5E5E5"/><path fill-rule="evenodd" clip-rule="evenodd" d="M237.302 260.28v.527l-.001.051a2.152 2.152 0 0 1-1.082 1.823l-37.861 21.882c-.329.19-.703.291-1.083.292-.38.001-.754-.1-1.083-.292l-20.93-12.093a2.169 2.169 0 0 1-1.082-1.823v-.578l23.134 13.342 39.988-23.131Zm-.54.889-39.448 22.819-22.594-13.03a1.673 1.673 0 0 0 .793 1.079l20.933 12.094c.251.148.537.225.827.224.293-.001.581-.078.834-.225l37.863-21.883a1.652 1.652 0 0 0 .792-1.078Z" fill="#000"/><path d="M197.88 283.733a2.554 2.554 0 0 0 2.214-.176l37.705-21.784a2.567 2.567 0 0 0 1.248-1.796l4.126-24.624a3.27 3.27 0 0 0 0-.42 2.569 2.569 0 0 0-.751-1.825l-39.159 22.604a1.962 1.962 0 0 0-.916 1.327l-4.467 26.694Z" fill="#F4F4F4"/><path fill-rule="evenodd" clip-rule="evenodd" d="m200.094 283.557 37.705-21.784a2.567 2.567 0 0 0 1.248-1.796l4.126-24.624a3.27 3.27 0 0 0 0-.42 2.569 2.569 0 0 0-.751-1.825l-39.159 22.604a1.962 1.962 0 0 0-.916 1.327l-4.467 26.694a2.554 2.554 0 0 0 2.214-.176Zm-1.647-.183a2.057 2.057 0 0 0 1.395-.249l.002-.001 37.704-21.784a2.068 2.068 0 0 0 1.006-1.446l.001-.001 4.121-24.597c.006-.11.005-.22-.002-.33l-.001-.017v-.017a2.068 2.068 0 0 0-.365-1.181l-38.791 22.392a1.452 1.452 0 0 0-.678.982v.003l-4.392 26.246Z" fill="#000"/><path d="m197.275 283.411.254.146c.113.067.23.125.351.176l4.467-26.664a1.953 1.953 0 0 1 .916-1.328l39.188-22.633a2.657 2.657 0 0 0-.526-.4l-39.266 22.682a1.942 1.942 0 0 0-.917 1.327l-4.467 26.694Z" fill="#E5E5E5"/><path opacity=".4" d="M394.482 488c21.443 0 38.827-10.046 38.827-22.438 0-12.393-17.384-22.438-38.827-22.438-21.444 0-38.827 10.045-38.827 22.438 0 12.392 17.383 22.438 38.827 22.438Z" fill="#D6D8E5"/><path d="m413.424 336.245-2.078-9.282 8.678-8.471.092-.09-.019-.126-2.398-16.13 8.068-6.632c.156 1.038.491 2.631.904 4.527l.306 1.397c.412 1.88.872 3.981 1.304 6.117.543 2.685 1.04 5.421 1.339 7.84.3 2.427.398 4.51.156 5.9-.235 1.351-1.359 2.975-2.974 4.675-1.606 1.689-3.659 3.414-5.688 4.966a100.313 100.313 0 0 1-5.516 3.911c-.745.492-1.363.888-1.795 1.161l-.379.237Z" fill="#F4F4F4" stroke="#000" stroke-width=".5"/><path d="m419.55 304.045-5.509-25.33a6.633 6.633 0 0 1 8.277 2.639c.563.934 1.142 2.454 1.696 4.264.554 1.805 1.078 3.879 1.537 5.906.895 3.948 1.54 7.699 1.676 8.924l-.084.107a11.198 11.198 0 0 1-2.043 1.918c-1.361.985-3.27 1.867-5.55 1.572Z" fill="#EDEDED" stroke="#000" stroke-width=".5"/><path d="M368.129 462.898c.402-1.065 1.451-1.586 2.962-1.723 1.507-.137 3.392.119 5.323.527 1.737.368 3.49.855 5.012 1.278l.491.136c.812.225 1.547.425 2.157.566.562.13 1.04.215 1.381.218a13.733 13.733 0 0 0 10.173 1.275c.399.583.72 1.402.949 2.353.246 1.023.382 2.18.4 3.32.018 1.141-.082 2.258-.302 3.201-.223.951-.561 1.693-.993 2.12h-.001c-.747.739-1.737 1.053-2.808 1.125-1.072.072-2.204-.1-3.206-.314h-.001c-.655-.136-1.457-.443-2.41-.863a93.976 93.976 0 0 1-1.93-.887c-.421-.197-.861-.403-1.32-.615-2.43-1.118-5.373-2.375-8.766-3.196-1.5-.365-3.68-1.503-5.283-3.067-1.608-1.568-2.57-3.491-1.828-5.454Z" fill="#F4F4F4" stroke="#000" stroke-width=".5"/><path d="M367.643 464.591c.12.356.278.703.468 1.039a4.268 4.268 0 0 1-.22-1.087 4.563 4.563 0 0 1-.21-.884c-.049.314-.06.625-.038.932Zm7.597 6.838h-.001l-.058.242.059-.242Zm20.441 4.75-.005.005-.005.005.186.167-.176-.177Zm.53-.767c.134-.081.265-.167.394-.256.053-.134.1-.271.14-.41a7.484 7.484 0 0 1-.345.247 3.855 3.855 0 0 1-.189.419Zm-6.666.892.009.002.01.002.051-.244-.07.24Zm-14.424-5.571.001.001.059-.243-.06.242Zm14.709-17.566c.402-1.065 1.451-1.586 2.962-1.723 1.506-.136 3.392.119 5.322.529 1.745.37 3.507.861 5.034 1.286l.469.131c.812.225 1.548.426 2.157.568.562.13 1.041.217 1.382.22a13.779 13.779 0 0 0 10.171 1.267c.387.583.699 1.401.923 2.351.24 1.023.373 2.181.391 3.322.018 1.141-.079 2.258-.294 3.202-.216.95-.545 1.693-.966 2.119-.748.739-1.735 1.052-2.804 1.125-1.071.074-2.202-.096-3.21-.305-.655-.138-1.457-.447-2.41-.868a98.643 98.643 0 0 1-1.908-.879c-.427-.201-.875-.41-1.343-.626-2.429-1.12-5.372-2.377-8.766-3.198-1.5-.364-3.679-1.503-5.283-3.066-1.607-1.569-2.569-3.492-1.827-5.455Z" fill="#F4F4F4" stroke="#000" stroke-width=".5"/><path d="M411.206 466.576a8.335 8.335 0 0 0 6.656-.902 3.832 3.832 0 0 1-.534.769c-.747.736-1.733 1.048-2.8 1.121-1.071.074-2.202-.096-3.21-.305-.655-.138-1.457-.447-2.41-.868a96.01 96.01 0 0 1-1.907-.879c-.428-.201-.875-.41-1.344-.626-2.429-1.12-5.372-2.377-8.766-3.198-1.4-.341-3.389-1.344-4.951-2.744-.999-.896-1.798-1.93-2.174-3.035.568 1.001 1.417 1.904 2.355 2.661 1.518 1.228 3.314 2.11 4.652 2.433 3.346.829 6.263 2.072 8.687 3.184.448.206.881.408 1.297.602.705.328 1.361.634 1.962.898.951.417 1.787.74 2.487.889Z" fill="#F4F4F4" stroke="#000" stroke-width=".5"/><path d="m417.397 418.889.001.004c.596 4.563.51 13.774.272 21.866a640.91 640.91 0 0 1-.608 14.706l-.008.144-.101.031c-.169.053-.418.126-.73.205-.624.158-1.502.343-2.517.449-2.001.207-4.499.101-6.624-1.095l-.013-.117-.082-.693-.302-2.553a2778.47 2778.47 0 0 0-1.023-8.465c-.813-6.636-1.818-14.598-2.584-19.891-.848-5.858-1.653-10.27-2.332-13.997l-.086-.468c-.697-3.826-1.254-6.934-1.579-10.197l-.001-.002a503.82 503.82 0 0 0-1.272-10.788 626.123 626.123 0 0 0-.485-3.715l-.143-1.056-.038-.281-.01-.072-.002-.018-.001-.004v-.002l-.248.034.248-.034-.497.014-.907 11.459v.004l-1.395 23.014.306.069c.013.036.027.089.043.169a.236.236 0 0 1-.259-.061c-.021-.024-.027-.042-.023-.033.017.042.061.21.118.705.112.971.268 3.099.439 7.725v.001c.146 3.783.297 13.58.412 22.437a6430.423 6430.423 0 0 1 .178 15.388l.011 1.017.001.154-.056.011c-.164.033-.404.078-.707.124-.605.092-1.459.189-2.449.206-1.952.033-4.41-.243-6.543-1.447l-.02-.16-.101-.812-.375-2.978c-.318-2.51-.763-5.966-1.269-9.75-1.012-7.567-2.269-16.455-3.245-21.718a122.378 122.378 0 0 1-1.869-15.156l-.001-.006c-.282-3.273-1.057-18.448-1.762-32.814a13019.073 13019.073 0 0 1-1.228-25.563l-.082-1.73-.019-.4 41.465-9.226c1.761 5.302 1.518 10.884.752 16.839a237.174 237.174 0 0 1-.802 5.546c-.666 4.374-1.362 8.941-1.546 13.698-.229 5.985-.576 12.134-.864 16.787a921.364 921.364 0 0 1-.48 7.243l-.03.421-.008.108-.002.028-.001.007v.002l.25.018-.239.074a80.257 80.257 0 0 1 3.072 14.595Zm-5.806-139.845h.001c.435-.022.767.171 1.014.549.255.392.415.98.458 1.712.086 1.46-.297 3.392-1.145 5.17l-.001.002c-.737 1.574-2.466 3.098-4.662 4.281-2.19 1.18-4.809 2.001-7.283 2.193-2.453.191-5.58-.666-7.714-1.807-1.073-.574-1.852-1.197-2.184-1.759-.163-.275-.205-.511-.154-.713.051-.203.21-.423.557-.637 1.528-.943 2.371-1.653 2.781-2.346.424-.719.364-1.386.21-2.152a264.316 264.316 0 0 1-.659-3.5l-.053-.293-.014-.078-.003-.021-.001-.005v-.001h-.001l-.246.044.246-.044-.042-.24-.241.036a38.712 38.712 0 0 1-4.723.416c-.741-.259-1.516-1.03-2.276-2.216-.766-1.197-1.49-2.771-2.131-4.538-2.222-6.157-.684-13.135.194-17.115l.069-.314.001-.004c1.571-7.715 7.437-13.312 15.383-12.489 8.44.89 13.04 8.278 12.154 16.806-.526 5.003-1.784 9.257-5.686 11.661l-.08.05-.028.09v.001l-.001.002-.002.008-.011.034-.04.127a25.814 25.814 0 0 1-.622 1.76l-.022.055.005.059a41.62 41.62 0 0 0 .736 5.018l.005.022.009.021c.146.357.469.52.839.585.365.065.828.045 1.35-.006.361-.036.754-.087 1.178-.142.832-.107 1.782-.23 2.835-.282Z" fill="#F4F4F4" stroke="#000" stroke-width=".5"/><path d="M407.25 279.476a73.449 73.449 0 0 1 7.507-.695c1.744-.043 3.193.21 4.446 1.528 1.273 1.339 2.374 3.81 3.298 8.306 2.034 9.908.21 16.328-3.641 29.886-.37 1.3-.758 2.666-1.163 4.107l.241.067-.241-.067c-1.017 3.621-1.158 5.951-1.032 8.936.039.905.101 1.866.171 2.941.16 2.454.358 5.497.393 9.799-.861 1.416-2.382 2.952-4.329 4.476-1.972 1.542-4.366 3.061-6.922 4.42-5.118 2.722-10.853 4.786-15.106 5.134-4.231.345-8.01-1.131-10.741-2.705a25.34 25.34 0 0 1-3.219-2.206c-.378-.306-.67-.562-.868-.741-.098-.089-.173-.16-.223-.207l-.013-.012c-.224-1.904-.326-7.992-.303-15.39.023-7.504.174-16.328.452-23.435.244-6.158.765-11.03 1.668-14.671.905-3.649 2.183-6.015 3.902-7.221 1.415-.987 4.308-2.479 6.864-3.732a223.528 223.528 0 0 1 4.509-2.141c.028.051.063.106.105.165.171.235.463.509.948.714.966.405 2.669.521 5.686-.438 3.012-.957 5.112-2.119 6.352-3.342 1.143-1.128 1.577-2.337 1.259-3.476Z" fill="#F4F4F4" stroke="#000" stroke-width=".5"/><path d="M389.108 297.973c-1.346 8.999-3.101 15.313-6.466 25.961m6.466-25.961c1.131-7.613-1.795-10.492-5.208-9.126m5.208 9.126-.247-.037m.247.037-.247-.037m-6.219 25.998-10.807-4.928c.983-3.911 1.767-7.655 2.479-11.055.913-4.363 1.708-8.16 2.651-11.013 1.951-5.973 4.038-6.92 6.935-8.091m-1.258 35.087c-.878 2.782-2.848 7.721-5.794 10.112m5.794-10.112-5.794 10.112m7.052-45.199.093.232m-.093-.232.094.232h-.001m0 0c-1.449.586-2.65 1.1-3.738 2.19-1.089 1.09-2.083 2.779-3.052 5.747v.001c-.834 2.522-1.553 5.792-2.346 9.561l-.299 1.424c-.712 3.4-1.497 7.149-2.48 11.065-.463 1.838-1.122 3.939-2.592 5.346-1.493 1.428-3.77 2.096-7.357 1.189-6.719-1.691-10.611-3.744-12.38-5.653m34.244-30.87c.814-.326 1.581-.391 2.255-.211.672.179 1.275.609 1.753 1.315.965 1.424 1.422 3.97.86 7.753m0 0c-1.343 8.979-3.094 15.279-6.458 25.923-.436 1.382-1.143 3.298-2.105 5.163-.964 1.869-2.174 3.666-3.607 4.829m0 0c-3.543 2.844-8.907 2.774-17.211.704-1.747-.434-3.585-1.175-5.831-2.203-1.17-.535-2.44-1.144-3.861-1.825-1.316-.63-2.761-1.322-4.375-2.076m31.278 5.4h.001l.156.195m-.157-.195v.001l.157.194m-31.435-5.595c-.755-.353-1.441-.656-2.235-1.007l-.473-.209a199.279 199.279 0 0 1-3.934-1.79c-3.418-1.599-6.975-4.258-8.746-6.825-.896-1.3-1.394-2.254-1.623-2.939-.233-.696-.171-1.056-.053-1.23v.001l.006-.011a.73.73 0 0 1 .3-.295c.1-.046.218-.06.364-.028.303.068.703.334 1.171.868m15.223 13.465-.106.227m.106-.227-.106.227m-15.117-13.692a19.301 19.301 0 0 0 5.143 4.758l.313-.385-.18.174m-5.276-4.547-.006-.008.201-.15-.188.165-.007-.007Zm5.276 4.547.18-.174-.001-.001-.001-.001-.005-.005-.018-.019-.073-.076a77.687 77.687 0 0 1-1.167-1.233c-.709-.762-1.564-1.706-2.163-2.445l-.001-.001a18.98 18.98 0 0 1-2.636-4.313m5.885 8.268-.179.174-.001-.001-.001-.001-.005-.005-.019-.02-.073-.076a77.53 77.53 0 0 1-.271-.282l-.425-.449.165-.189m.809.849.134-.212a18.755 18.755 0 0 1-.943-.637m-5.076-7.419c-.279-.673-.129-1.482.207-1.996.168-.257.361-.407.532-.451.15-.039.327-.008.524.206.455.496.801.997 1.238 1.631l.083.12a33.66 33.66 0 0 0 1.977 2.622m-4.561-2.132.001.002-.231.097m.23-.099-.001-.002-.229.101m4.791 2.033a18.756 18.756 0 0 0 3.311 3.164l.351-.348a35.801 35.801 0 0 1-2.993-4.846l-.004-.007-.003-.006a7.749 7.749 0 0 1-1.068-4.243m.406 6.286-.001-.001.194-.159m-.193.16.001.001.192-.161m-.599-6.126c.02-.306.255-.65.573-.761a.696.696 0 0 1 .524.029c.201.088.436.276.682.628l.002.003c.32.446.595.969.912 1.573.155.295.32.609.505.943.556 1.002 1.272 2.131 2.399 3.308l.001.001c.81.841 1.568 1.511 2.135 1.915.279.199.531.347.73.41.093.03.221.057.344.015a.358.358 0 0 0 .243-.326c.017-.199-.077-.404-.174-.583-.07-.129-.163-.279-.263-.442a14.128 14.128 0 0 1-.143-.233 8.916 8.916 0 0 1-.98-2.162c-.275-.934-.273-1.89-.078-2.631.2-.76.575-1.207.972-1.289.282-.058.439-.089.551-.087a.227.227 0 0 1 .092.016.199.199 0 0 1 .066.052c.065.075.139.211.259.476l.122.273c.096.216.213.48.359.791.351.745.781 1.415 1.226 2.109l.335.524c.562.892 1.139 1.881 1.637 3.196m-13.031-7.748v.003l-.25-.016m.25.013v-.003l-.25-.01m13.281 7.761a12.252 12.252 0 0 0 2.982 5.09m-2.982-5.09-.003-.009.24-.07-.234.088-.003-.009Zm2.982 5.09-.002-.003.183-.169-.179.174-.002-.002Zm-16.263-12.851a8.004 8.004 0 0 0 1.102 4.383m-1.102-4.383c.049-.8 1.18-1.747 2.234-.234.33.46.618 1.009.941 1.623.629 1.198 1.389 2.646 2.853 4.175l-4.926-1.181m0 0a36.262 36.262 0 0 0 2.5 4.16m-2.5-4.16 2.5 4.16m0 0c.217.178.438.351.664.519l-.15.201-.202.148c-.168-.23-.334-.462-.497-.696a18.497 18.497 0 0 1-2.568-2.576m2.753 2.404-2.431 3.043m-.322-5.447c-.968-1.159-1.559-2.017-2.05-2.728-.434-.63-.789-1.145-1.256-1.654-.995-1.083-2.312.986-1.678 2.509m0 0a19.276 19.276 0 0 0 2.672 4.372c.744.918 1.874 2.142 2.634 2.948m10.65 9.994c1.607.75 3.053 1.442 4.37 2.073 4.166 1.996 7.053 3.379 9.743 4.046m-14.113-6.119c-.752-.352-1.436-.654-2.23-1.005-1.1-.486-2.412-1.066-4.412-2.001-3.443-1.611-7.042-4.295-8.846-6.91-1.804-2.616-2.048-3.904-1.677-4.451l31.278 20.486m0 0c8.3 2.069 13.781 2.177 17.428-.751m-17.428.751 17.428-.751" fill="#F4F4F4" stroke="#000" stroke-width=".5"/><path d="m388.189 312.994-.006.025a3.15 3.15 0 0 1-.332.318c-.261.217-.67.497-1.25.738-1.158.48-3.02.812-5.793.14l.001-.001-.008-.001a12.525 12.525 0 0 1-7.672-5.047l.039-.155.192-.76a368.869 368.869 0 0 1 3.27-11.975c1.037-3.555 2.371-5.816 3.994-7.106 1.612-1.283 3.545-1.635 5.853-1.295 1.406.207 2.419.778 3.143 1.584.728.811 1.179 1.876 1.425 3.091.495 2.436.157 5.411-.33 7.952a686.817 686.817 0 0 1-1.637 8.198 1237.649 1237.649 0 0 1-.838 4.047l-.051.247Z" fill="#EDEDED" stroke="#000" stroke-width=".5"/><path d="M411.984 254.831c.408 3.822-.564 7.729-2.074 11.086-1.499 3.333-3.517 6.101-5.203 7.681-1.617.557-5.103.914-9.687-1.168a56.749 56.749 0 0 1-.211-6.13l.04-.092a11.776 11.776 0 0 0 .58-1.765c.277-1.133.473-2.659.129-4.188-.346-1.538-1.237-3.068-3.112-4.195-1.845-1.108-4.625-1.814-8.74-1.78l-.004-.006a12.442 12.442 0 0 1-.814-1.643c-.439-1.08-.853-2.53-.778-4.041.074-1.503.632-3.072 2.146-4.413 1.522-1.346 4.03-2.481 8.038-3.063 11.494-1.638 18.846 5.776 19.69 13.717Z" fill="#7247FF" stroke="#000" stroke-width=".5"/><path d="M249.838 198.06c0 9.338-7.565 16.908-16.896 16.908s-16.896-7.57-16.896-16.908c0-9.339 7.565-16.908 16.896-16.908s16.896 7.569 16.896 16.908Z" fill="#D6D8E5" stroke="#000" stroke-width=".5"/><path d="M215.785 201.884c-3.711-2.143-5.727-4.8-5.727-7.24 0-2.44 2.044-5.097 5.727-7.241 4.43-2.569 10.636-4.046 17.157-4.046 6.521 0 12.717 1.487 17.157 4.047 3.711 2.142 5.727 4.8 5.727 7.24 0 2.439-2.035 5.097-5.727 7.24h-.001c-4.4 2.569-10.693 4.046-17.156 4.046-6.473 0-12.727-1.477-17.157-4.046Z" fill="#F4F4F4" stroke="#000" stroke-width=".5"/><path d="M215.785 198.936c-3.711-2.142-5.727-4.8-5.727-7.24 0-2.439 2.044-5.097 5.727-7.25 4.43-2.559 10.636-4.036 17.157-4.036 6.521 0 12.717 1.477 17.157 4.036 3.711 2.153 5.727 4.801 5.727 7.25s-2.035 5.097-5.727 7.241c-4.4 2.559-10.694 4.036-17.157 4.036-6.473 0-12.727-1.477-17.157-4.037Z" fill="#D6D8E5" stroke="#000" stroke-width=".5"/><path d="M232.942 200.308c-8.393 0-16.501-1.945-22.308-5.247-4.851-2.787-7.491-6.244-7.491-9.455 0-3.21 2.667-6.629 7.493-9.446 5.756-3.331 13.873-5.247 22.306-5.247 8.432 0 16.502 1.945 22.308 5.248 4.852 2.777 7.501 6.235 7.501 9.445 0 3.209-2.677 6.628-7.503 9.456-5.795 3.33-13.913 5.246-22.306 5.246Z" fill="#F4F4F4" stroke="#000" stroke-width=".5"/><path d="M232.942 196.482c-8.393 0-16.502-1.945-22.308-5.247-4.851-2.777-7.491-6.244-7.491-9.445 0-3.2 2.667-6.629 7.493-9.456 5.756-3.331 13.873-5.247 22.306-5.247 8.432 0 16.501 1.945 22.308 5.248 4.852 2.787 7.501 6.244 7.501 9.455 0 3.209-2.677 6.628-7.503 9.446-5.795 3.33-13.913 5.246-22.306 5.246Z" fill="#D6D8E5" stroke="#000" stroke-width=".5"/><path d="M205.758 163.384c7.035-4.062 16.937-6.408 27.184-6.408s20.14 2.346 27.184 6.408c5.877 3.393 9.159 7.622 9.159 11.564s-3.283 8.171-9.16 11.574c-7.034 4.062-16.946 6.398-27.183 6.398-10.247 0-20.149-2.336-27.184-6.398-5.877-3.403-9.159-7.632-9.159-11.574s3.282-8.171 9.159-11.564Z" fill="#F4F4F4" stroke="#000" stroke-width=".5"/><path d="M205.758 181.856c-5.876-3.392-9.159-7.631-9.159-11.573s3.282-8.171 9.159-11.564c7.035-4.063 16.937-6.398 27.184-6.398s20.14 2.335 27.184 6.398c5.876 3.392 9.159 7.631 9.159 11.573 0 3.943-3.282 8.172-9.159 11.564h-.001c-7.034 4.063-16.946 6.399-27.183 6.399-10.247 0-20.149-2.336-27.184-6.399Z" fill="#D6D8E5" stroke="#000" stroke-width=".5"/><path d="M201.711 176.088c-6.755-3.89-10.535-8.763-10.535-13.311 0-4.547 3.799-9.41 10.535-13.321 8.078-4.667 19.463-7.344 31.221-7.344 11.759 0 23.154 2.677 31.231 7.354v.001c6.755 3.89 10.535 8.763 10.535 13.31 0 4.547-3.799 9.411-10.535 13.311-8.077 4.677-19.462 7.355-31.221 7.355-11.769 0-23.144-2.677-31.231-7.355Z" fill="#F4F4F4" stroke="#000" stroke-width=".5"/><path d="M201.711 170.74c-6.755-3.891-10.535-8.764-10.535-13.311 0-4.547 3.799-9.421 10.535-13.321 8.078-4.667 19.463-7.355 31.221-7.355 11.759 0 23.154 2.688 31.231 7.355 6.755 3.89 10.535 8.773 10.535 13.321 0 4.547-3.799 9.41-10.535 13.311-8.077 4.696-19.462 7.354-31.221 7.354-11.768 0-23.144-2.687-31.231-7.354Z" fill="#D6D8E5" stroke="#000" stroke-width=".5"/><path d="M232.942 174.362c26.092 0 47.244-12.222 47.244-27.298 0-15.077-21.152-27.299-47.244-27.299s-47.244 12.222-47.244 27.299c0 15.076 21.152 27.298 47.244 27.298Z" fill="#FFDF57"/><path d="M220.887 79.798h-4.184v65.089h4.184v-65.09Zm28.645 0h-4.184v65.089h4.184v-65.09Z" fill="#D8AA44"/><path d="m232.825 84.034-6.135-5.622-7.529 5.046-2.458-3.65 10.397-6.833 5.959 5.456 7.139-5.543 9.334 6.92-2.916 3.347-6.428-4.831-7.363 5.71Z" fill="#D8AA44"/><path opacity=".69" d="M280.118 148.489c.078-6.13 1.131-24.225 15.517-49.162C312.654 69.823 294.913 0 232.815 0c-62.097 0-79.838 69.823-62.819 99.328 12.435 21.559 15.146 40.689 15.712 49.434" fill="#FFDF57"/><path opacity=".2" d="m200.064 326.121-2.711-2.538a6.323 6.323 0 0 0-1.229-1.327 5.288 5.288 0 0 0-.653-.469l-3.511-2.342-3.833-1.698a6.475 6.475 0 0 0-.722-.284 6.664 6.664 0 0 0-1.746-.331l-3.647-1.191c-.205 0-.088.371 0 .527l.351.146c.439.166.068.108.526.43l2.097.537a6.883 6.883 0 0 1 3.804.976l2.78 1.395 2.672 1.611a6.268 6.268 0 0 1 2.672 2.869l1.414 1.142c.439.41.186.234.839.332l.361.312c.263.069.653.078.536-.097Z" fill="#000"/><path opacity=".1" d="M192.438 320.753c.217-.335.507-.615.848-.82a2.66 2.66 0 0 1 1.658-.381c.684.07 1.347.276 1.951.605h.068l.975.527c.254.137.488.293.722.449l.449.332c.673.537.478 1.591-.117 2.43-.33.469-.709.901-1.132 1.289a2.926 2.926 0 0 1-2.75.595 6.621 6.621 0 0 1-1.258-.546 7.285 7.285 0 0 1-1.044-.742 2.686 2.686 0 0 1-.643-2.997c.063-.256.155-.505.273-.741Zm-8.047-4.88c.527-.81 1.424-1.425 2.185-1.172l.488.186c.247.096.487.207.721.332l.888.458h.058a4.177 4.177 0 0 1 1.415 1.22 1.955 1.955 0 0 1 .361 1.455 2.415 2.415 0 0 1-.43 1.044c-.182.22-.388.42-.614.595a3.267 3.267 0 0 1-3.15.81 6.129 6.129 0 0 1-1.132-.488 6.264 6.264 0 0 1-.975-.741 2.111 2.111 0 0 1-.517-2.333 6.87 6.87 0 0 1 .702-1.357v-.009Z" fill="#000"/><path d="m183.357 317.063 2.088-.195a6.7 6.7 0 0 1 3.823.761l11.518 5.788.673-.976-12.893-5.69a6.6 6.6 0 0 0-2.468-.615l-4.096-.234a.226.226 0 0 0-.232.106.227.227 0 0 0 .017.255l.108.146a1.647 1.647 0 0 0 1.462.654Z" fill="#2B303F"/><path d="m198.26 325.418-.868-1.952a6.32 6.32 0 0 0-2.662-2.879l-10.524-6.305.595-.908 11.128 7.408a6.473 6.473 0 0 1 1.873 1.806l2.389 3.494c.117.175-.058.4-.292.361h-.205a1.84 1.84 0 0 1-1.434-1.025Z" fill="#2B303F"/><path opacity=".3" d="M195.139 319.152a5.172 5.172 0 0 1 1.951.595h.058l.976.518c.253.146.487.292.721.449.234.156.303.224.449.341.663.527.468 1.591-.117 2.421-.327.473-.71.906-1.141 1.288a2.864 2.864 0 0 1-2.741.605 7.238 7.238 0 0 1-1.258-.556 6.01 6.01 0 0 1-1.044-.742 2.662 2.662 0 0 1-.643-2.987c.072-.273.181-.535.322-.78a2.72 2.72 0 0 1 .848-.82 2.623 2.623 0 0 1 1.619-.332Z" fill="url(#b)"/><path d="m184.489 313.169-.507.8a.253.253 0 0 0 0 .342.531.531 0 0 1 .117.634l-.839 1.757a2.57 2.57 0 0 0 .566 3.026 6.523 6.523 0 0 0 2.457 1.376 3.9 3.9 0 0 0 3.902-.976l.78-.791a.979.979 0 0 0 .293-.634.676.676 0 0 1 .356-.507.674.674 0 0 1 .619-.01l.195.097.195.118a.574.574 0 0 1-.068.976 1.131 1.131 0 0 0-.498.527l-.439.976a3.16 3.16 0 0 0 .829 3.679 7.165 7.165 0 0 0 2.565 1.454 3.425 3.425 0 0 0 3.502-.868l1.463-1.542a.765.765 0 0 1 .76-.196.356.356 0 0 0 .4-.117l.595-.82a.408.408 0 0 0 0-.527 12.28 12.28 0 0 0-3.179-2.283l-.976-.527a6.174 6.174 0 0 0-2.33-.723l-.722-.078a.611.611 0 0 1-.439-.156.83.83 0 0 0-.273-.244l-.8-.429-.8-.44a.916.916 0 0 0-.37-.097.63.63 0 0 1-.478-.244l-.39-.527a4.88 4.88 0 0 0-1.707-1.435l-.888-.468a10.726 10.726 0 0 0-3.394-1.299.508.508 0 0 0-.497.176Zm8.144 7.193c.219-.332.509-.611.848-.82a2.622 2.622 0 0 1 1.658-.37 5.154 5.154 0 0 1 1.951.595h.058l.976.517c.253.147.487.293.721.449.234.156.303.225.449.342.663.527.468 1.591-.117 2.42a7.14 7.14 0 0 1-1.141 1.289 2.872 2.872 0 0 1-2.741.605 7.242 7.242 0 0 1-1.258-.557 5.959 5.959 0 0 1-1.043-.741 2.66 2.66 0 0 1-.644-2.987c.063-.258.158-.507.283-.742Zm-8.056-4.88c.536-.8 1.424-1.415 2.194-1.161.166.05.328.108.488.175a9.8 9.8 0 0 1 .721.332l.888.469h.059c.553.3 1.035.716 1.414 1.22a1.946 1.946 0 0 1 .351 1.464c-.056.375-.203.73-.429 1.034-.18.226-.386.429-.615.606a3.28 3.28 0 0 1-3.15.81 5.857 5.857 0 0 1-1.122-.498 5.522 5.522 0 0 1-.975-.732 2.134 2.134 0 0 1-.517-2.343c.184-.477.416-.935.693-1.366v-.01Z" fill="#2B303F"/><path d="M189.57 319.777a3.243 3.243 0 0 1-3.15.81 5.801 5.801 0 0 1-1.112-.459 5.085 5.085 0 0 1-.975-.732 2.105 2.105 0 0 1-.517-2.333c.192-.493.437-.965.731-1.405a7.03 7.03 0 0 0-.673 1.308 2.132 2.132 0 0 0 .517 2.342 5.445 5.445 0 0 0 2.097 1.23 3.277 3.277 0 0 0 3.15-.81c.226-.175.432-.375.615-.595l-.068.019a3.532 3.532 0 0 1-.615.625Zm8.339 5.172a2.865 2.865 0 0 1-2.741.596 6.562 6.562 0 0 1-1.258-.547 7.269 7.269 0 0 1-1.043-.741 2.685 2.685 0 0 1-.644-2.997c.077-.268.185-.527.322-.771l.078-.107c-.134.24-.239.496-.312.761a2.66 2.66 0 0 0 .644 2.987c.32.284.67.532 1.043.741.401.225.822.412 1.258.557a2.875 2.875 0 0 0 2.741-.605 7.36 7.36 0 0 0 1.063-1.181c-.329.481-.716.92-1.151 1.307Z" fill="#1F232D"/><path opacity=".3" d="M190.341 316.556a4.38 4.38 0 0 0-1.415-1.22h-.058l-.888-.469a9.8 9.8 0 0 0-.721-.332 4.973 4.973 0 0 0-.488-.175c-.77-.254-1.658.361-2.194 1.161a7.542 7.542 0 0 0-.732 1.406 2.132 2.132 0 0 0 .517 2.342c.297.28.624.525.975.732a5.83 5.83 0 0 0 1.122.498 3.277 3.277 0 0 0 3.15-.81c.229-.176.435-.38.615-.605a2.31 2.31 0 0 0 .429-1.035 1.96 1.96 0 0 0-.312-1.493Z" fill="url(#c)"/><path d="M326 75a6 6 0 1 0 0-12 6 6 0 0 0 0 12Z" fill="#F7CC38"/><path d="M313 9h-2V7a2 2 0 0 0-4 0v2h-2a2 2 0 0 0 0 4h2v2a2 2 0 0 0 4 0v-2h2a2 2 0 0 0 0-4Zm-4 120h-2v-2a2 2 0 0 0-4 0v2h-2a2 2 0 0 0 0 4h2v2a2 2 0 0 0 4 0v-2h2a2 2 0 0 0 0-4ZM150 15a2 2 0 0 0 4 0v-2h2a2 2 0 0 0 0-4h-2V7a2 2 0 0 0-4 0v2h-2a2 2 0 0 0 0 4h2v2Zm12 114h-2v-2a2 2 0 0 0-4 0v2h-2a2 2 0 0 0 0 4h2v2a2 2 0 0 0 4 0v-2h2a2 2 0 0 0 0-4Z" fill="#FBE36A"/><path d="M140.5 76c3.038 0 5.5-2.686 5.5-6s-2.462-6-5.5-6-5.5 2.686-5.5 6 2.462 6 5.5 6Z" fill="#F7CC38"/><defs><linearGradient id="b" x1="195.9" y1="319.152" x2="195.9" y2="325.555" gradientUnits="userSpaceOnUse"><stop offset=".01" stop-color="#fff"/><stop offset=".88" stop-color="#fff" stop-opacity="0"/></linearGradient><linearGradient id="c" x1="1526.88" y1="2347.37" x2="1526.88" y2="2388.35" gradientUnits="userSpaceOnUse"><stop offset=".01" stop-color="#fff"/><stop offset=".88" stop-color="#fff" stop-opacity="0"/></linearGradient></defs></svg>