<svg width="199" height="63" fill="none" xmlns="http://www.w3.org/2000/svg"><path d="M31.211 58h16.38v5h-21.36V0h4.98v58ZM4.98 0H0v63h4.98V0Zm51.466 31.556C56.446 46.11 68.29 58 82.788 58v5C65.41 63 51.355 48.889 51.355 31.556 51.465 14.11 65.522 0 82.898 0v5c-14.61 0-26.452 11.889-26.452 26.556Z" fill="#3B1D8F"/><path d="M86.44 31.444c0 2-1.55 3.556-3.542 3.556-1.992 0-3.541-1.556-3.541-3.556s1.549-3.555 3.541-3.555c1.882 0 3.542 1.667 3.542 3.555ZM111.609 28h-.961V16.625h.961V28Zm3.766-8.453.031 1.445c.318-.52.714-.916 1.188-1.187a3.062 3.062 0 0 1 1.57-.414c.906 0 1.581.255 2.024.765.442.51.666 1.276.671 2.297V28h-.929v-5.555c-.006-.755-.167-1.317-.485-1.687-.312-.37-.815-.555-1.507-.555a2.37 2.37 0 0 0-1.54.547c-.442.36-.77.846-.984 1.46V28h-.93v-8.453h.891Zm9.359-2.164v2.164h1.75v.765h-1.75v5.633c0 .47.084.818.25 1.047.172.23.456.344.852.344.156 0 .409-.026.758-.078l.039.765c-.245.089-.578.133-1 .133-.641 0-1.107-.185-1.399-.554-.291-.375-.437-.925-.437-1.649v-5.64h-1.555v-.766h1.555v-2.164h.937Zm6.961 10.773a3.692 3.692 0 0 1-1.953-.531 3.635 3.635 0 0 1-1.351-1.477c-.323-.635-.485-1.346-.485-2.132v-.336c0-.813.156-1.545.469-2.196.318-.65.758-1.161 1.32-1.53a3.233 3.233 0 0 1 1.828-.563c1.026 0 1.839.351 2.438 1.054.604.698.906 1.654.906 2.867v.524h-6.031v.18c0 .958.273 1.757.82 2.398.552.635 1.245.953 2.078.953.5 0 .94-.091 1.321-.273.385-.183.734-.474 1.047-.875l.586.445c-.688.995-1.685 1.492-2.993 1.492Zm-.172-7.968a2.35 2.35 0 0 0-1.781.773c-.479.516-.771 1.208-.875 2.078h5.071v-.102c-.027-.812-.258-1.474-.696-1.984-.437-.51-1.01-.765-1.719-.765Zm9.071.156a3.49 3.49 0 0 0-.633-.055c-.583 0-1.078.164-1.484.492-.401.323-.688.795-.86 1.414V28h-.929v-8.453h.914l.015 1.344c.495-1 1.289-1.5 2.383-1.5.26 0 .466.034.617.101l-.023.852Zm2.375-.797.031 1.445c.318-.52.714-.916 1.188-1.187a3.06 3.06 0 0 1 1.57-.414c.906 0 1.581.255 2.023.765.443.51.667 1.276.672 2.297V28h-.93v-5.555c-.005-.755-.166-1.317-.484-1.687-.312-.37-.815-.555-1.508-.555a2.37 2.37 0 0 0-1.539.547c-.443.36-.771.846-.984 1.46V28h-.93v-8.453h.891ZM156.211 28c-.094-.266-.154-.659-.18-1.18a3.283 3.283 0 0 1-1.258.992 3.847 3.847 0 0 1-1.609.344c-.812 0-1.471-.226-1.976-.68-.5-.453-.75-1.025-.75-1.718 0-.823.341-1.474 1.023-1.953.687-.48 1.643-.72 2.867-.72h1.695v-.96c0-.604-.187-1.078-.562-1.422-.37-.349-.912-.523-1.625-.523-.651 0-1.19.166-1.617.5-.427.333-.641.734-.641 1.203l-.937-.008c0-.672.312-1.253.937-1.742.625-.495 1.393-.742 2.305-.742.943 0 1.685.237 2.226.71.547.47.829 1.126.844 1.97v4c0 .817.086 1.429.258 1.835V28h-1Zm-2.938-.672c.625 0 1.183-.15 1.672-.453a2.66 2.66 0 0 0 1.078-1.21v-1.86h-1.671c-.933.01-1.662.182-2.188.515-.526.328-.789.782-.789 1.36 0 .474.174.867.523 1.18.355.312.813.468 1.375.468Zm7.633-9.945v2.164h1.75v.765h-1.75v5.633c0 .47.084.818.25 1.047.172.23.456.344.852.344.156 0 .409-.026.758-.078l.039.765c-.245.089-.578.133-1 .133-.641 0-1.107-.185-1.399-.554-.291-.375-.437-.925-.437-1.649v-5.64h-1.555v-.766h1.555v-2.164h.937ZM165.641 28h-.938v-8.453h.938V28Zm-1.102-10.898c0-.178.057-.326.172-.446a.605.605 0 0 1 .469-.187c.198 0 .354.062.468.187.12.12.18.268.18.446a.615.615 0 0 1-.648.625.619.619 0 0 1-.469-.18.618.618 0 0 1-.172-.445Zm3.133 6.546c0-.812.156-1.544.469-2.195a3.606 3.606 0 0 1 1.336-1.515 3.596 3.596 0 0 1 1.961-.547c1.124 0 2.036.396 2.734 1.187.698.787 1.047 1.83 1.047 3.133v.195c0 .818-.159 1.555-.477 2.211-.312.651-.755 1.154-1.328 1.508-.573.354-1.226.531-1.961.531-1.12 0-2.031-.393-2.734-1.18-.698-.791-1.047-1.838-1.047-3.14v-.188Zm.937.258c0 1.01.261 1.841.782 2.492.526.646 1.213.97 2.062.97.844 0 1.526-.324 2.047-.97.526-.65.789-1.507.789-2.57v-.18a4.31 4.31 0 0 0-.359-1.773c-.24-.537-.576-.95-1.008-1.242a2.558 2.558 0 0 0-1.484-.445c-.834 0-1.514.328-2.04.984-.526.65-.789 1.505-.789 2.562v.172Zm9.438-4.359.031 1.445c.318-.52.714-.916 1.188-1.187a3.062 3.062 0 0 1 1.57-.414c.906 0 1.581.255 2.023.765.443.51.667 1.276.672 2.297V28h-.929v-5.555c-.006-.755-.167-1.317-.485-1.687-.312-.37-.815-.555-1.508-.555a2.37 2.37 0 0 0-1.539.547c-.442.36-.771.846-.984 1.46V28h-.93v-8.453h.891ZM191.289 28c-.094-.266-.154-.659-.18-1.18a3.287 3.287 0 0 1-1.257.992 3.855 3.855 0 0 1-1.61.344c-.812 0-1.471-.226-1.976-.68-.5-.453-.75-1.025-.75-1.718 0-.823.341-1.474 1.023-1.953.688-.48 1.643-.72 2.867-.72h1.696v-.96c0-.604-.188-1.078-.563-1.422-.37-.349-.911-.523-1.625-.523-.651 0-1.19.166-1.617.5-.427.333-.641.734-.641 1.203l-.937-.008c0-.672.312-1.253.937-1.742.625-.495 1.393-.742 2.305-.742.943 0 1.685.237 2.227.71.546.47.828 1.126.843 1.97v4c0 .817.086 1.429.258 1.835V28h-1Zm-2.937-.672c.625 0 1.182-.15 1.671-.453a2.661 2.661 0 0 0 1.079-1.21v-1.86h-1.672c-.933.01-1.662.182-2.188.515-.526.328-.789.782-.789 1.36 0 .474.175.867.524 1.18.354.312.812.468 1.375.468Zm7.226.672h-.937V16h.937v12Zm-84.172 18.188h5.617V47h-6.585V35.625h.968v10.563Zm10.524.968a3.69 3.69 0 0 1-1.953-.531 3.63 3.63 0 0 1-1.352-1.477c-.323-.635-.484-1.346-.484-2.132v-.336c0-.813.156-1.545.468-2.196.318-.65.758-1.161 1.321-1.53a3.23 3.23 0 0 1 1.828-.563c1.026 0 1.838.351 2.437 1.054.604.698.907 1.654.907 2.867v.524h-6.032v.18c0 .958.274 1.757.821 2.398.552.636 1.244.953 2.078.953.5 0 .94-.091 1.32-.273.385-.183.734-.474 1.047-.875l.586.445c-.688.995-1.685 1.492-2.992 1.492Zm-.172-7.968c-.703 0-1.297.257-1.781.773-.48.516-.771 1.208-.875 2.078h5.07v-.102c-.026-.812-.258-1.473-.695-1.984-.438-.51-1.011-.766-1.719-.766Zm4.789 3.507c0-1.323.292-2.37.875-3.14.588-.776 1.385-1.164 2.39-1.164 1.152 0 2.027.458 2.626 1.375l.046-1.22h.875v8.282c0 1.089-.304 1.95-.914 2.586-.609.636-1.435.953-2.476.953a3.758 3.758 0 0 1-1.688-.398c-.531-.26-.95-.61-1.258-1.047l.524-.563c.661.813 1.448 1.22 2.359 1.22.782 0 1.391-.233 1.828-.696.438-.459.664-1.097.68-1.914v-1.063c-.599.834-1.471 1.25-2.617 1.25-.979 0-1.766-.39-2.359-1.172-.594-.78-.891-1.836-.891-3.164v-.125Zm.945.164c0 1.078.216 1.93.649 2.555.432.62 1.041.93 1.828.93 1.151 0 1.966-.516 2.445-1.547v-3.93c-.219-.541-.534-.953-.945-1.234-.412-.287-.907-.43-1.485-.43-.786 0-1.398.31-1.836.93-.437.614-.656 1.523-.656 2.726ZM141.133 47c-.094-.266-.154-.659-.18-1.18a3.283 3.283 0 0 1-1.258.992 3.847 3.847 0 0 1-1.609.344c-.813 0-1.471-.226-1.977-.68-.5-.453-.75-1.026-.75-1.718 0-.823.342-1.474 1.024-1.953.687-.48 1.643-.72 2.867-.72h1.695v-.96c0-.604-.187-1.078-.562-1.422-.37-.349-.912-.523-1.625-.523-.651 0-1.19.166-1.617.5-.427.333-.641.734-.641 1.203l-.938-.008c0-.672.313-1.253.938-1.742.625-.495 1.393-.742 2.305-.742.942 0 1.685.237 2.226.71.547.47.828 1.126.844 1.97v4c0 .817.086 1.429.258 1.835V47h-1Zm-2.938-.672c.625 0 1.183-.15 1.672-.453a2.66 2.66 0 0 0 1.078-1.21v-1.86h-1.672c-.932.01-1.661.182-2.187.515-.526.328-.789.782-.789 1.36 0 .474.174.867.523 1.18.354.312.813.468 1.375.468Zm7.227.672h-.938V35h.938v12Zm14.711-3.547c-.13 1.198-.56 2.115-1.289 2.75-.724.636-1.69.953-2.899.953-.843 0-1.591-.21-2.242-.633-.646-.421-1.146-1.018-1.5-1.789-.354-.776-.534-1.661-.539-2.656v-1.476c0-1.01.177-1.907.531-2.688.354-.781.862-1.383 1.524-1.805.666-.427 1.432-.64 2.297-.64 1.218 0 2.179.33 2.882.992.709.656 1.12 1.565 1.235 2.727h-.969c-.24-1.933-1.289-2.899-3.148-2.899-1.032 0-1.855.386-2.469 1.156-.609.771-.914 1.836-.914 3.196v1.39c0 1.313.297 2.36.89 3.14.599.782 1.407 1.173 2.422 1.173 1.006 0 1.763-.24 2.274-.719.51-.484.825-1.208.945-2.172h.969Zm5.39 3.703a3.692 3.692 0 0 1-1.953-.531 3.635 3.635 0 0 1-1.351-1.477c-.323-.635-.485-1.346-.485-2.132v-.336c0-.813.157-1.545.469-2.196.318-.65.758-1.161 1.32-1.53a3.234 3.234 0 0 1 1.829-.563c1.026 0 1.838.351 2.437 1.054.604.698.906 1.654.906 2.867v.524h-6.031v.18c0 .958.274 1.757.82 2.398.552.636 1.245.953 2.078.953.5 0 .941-.091 1.321-.273.385-.183.734-.474 1.047-.875l.586.445c-.688.995-1.685 1.492-2.993 1.492Zm-.171-7.968a2.35 2.35 0 0 0-1.782.773c-.479.516-.771 1.208-.875 2.078h5.071v-.102c-.026-.812-.258-1.473-.696-1.984-.437-.51-1.01-.766-1.718-.766Zm6.054-.641.032 1.445c.317-.52.713-.916 1.187-1.187a3.062 3.062 0 0 1 1.57-.414c.907 0 1.581.255 2.024.765.442.51.666 1.276.672 2.297V47h-.93v-5.555c-.005-.755-.167-1.317-.484-1.687-.313-.37-.816-.555-1.508-.555a2.37 2.37 0 0 0-1.539.547c-.443.36-.771.846-.985 1.46V47h-.929v-8.453h.89Zm9.36-2.164v2.164h1.75v.766h-1.75v5.632c0 .47.083.818.25 1.047.172.23.455.344.851.344.156 0 .409-.026.758-.078l.039.765c-.245.089-.578.133-1 .133-.641 0-1.107-.185-1.398-.554-.292-.375-.438-.925-.438-1.649v-5.64h-1.555v-.766h1.555v-2.164h.938Zm6.961 10.773c-.719 0-1.37-.177-1.954-.531a3.635 3.635 0 0 1-1.351-1.477c-.323-.635-.484-1.346-.484-2.132v-.336c0-.813.156-1.545.468-2.196.318-.65.758-1.161 1.321-1.53a3.228 3.228 0 0 1 1.828-.563c1.026 0 1.838.351 2.437 1.054.604.698.906 1.654.906 2.867v.524h-6.031v.18c0 .958.274 1.757.821 2.398.552.636 1.244.953 2.078.953.5 0 .94-.091 1.32-.273.385-.183.734-.474 1.047-.875l.586.445c-.688.995-1.685 1.492-2.992 1.492Zm-.172-7.968a2.35 2.35 0 0 0-1.782.773c-.479.516-.77 1.208-.875 2.078h5.071v-.102c-.026-.812-.258-1.473-.696-1.984-.437-.51-1.01-.766-1.718-.766Zm9.07.156a3.49 3.49 0 0 0-.633-.055c-.583 0-1.078.164-1.484.492-.401.323-.688.794-.86 1.414V47h-.929v-8.453h.914l.015 1.344c.495-1 1.29-1.5 2.383-1.5.261 0 .466.034.617.101l-.023.852Z" fill="#3B1D8F"/></svg>