<svg width="71" height="27" fill="none" xmlns="http://www.w3.org/2000/svg"><path d="M6.408 26V6.236l-4.392 1.08L.864 2.78 8.1.62h3.78V26H6.408Z" fill="#7247FF"/><path d="M6.408 26V6.236l-4.392 1.08L.864 2.78 8.1.62h3.78V26H6.408Z" fill="url(#a)"/><path d="M26.168 26.432c-3.648 0-6.793-1.26-9.433-3.78l3.349-3.996c2.015 1.824 4.02 2.736 6.012 2.736 1.32 0 2.352-.312 3.096-.936.744-.624 1.116-1.5 1.116-2.628 0-1.056-.409-1.884-1.224-2.484-.817-.624-1.896-.936-3.24-.936-1.345 0-2.748.312-4.213.936l-3.204-2.124.72-12.42h15.48v4.86H23.9l-.288 4.356a13.653 13.653 0 0 1 3.313-.432c2.616 0 4.74.672 6.371 2.016 1.633 1.344 2.448 3.384 2.448 6.12 0 2.664-.876 4.788-2.628 6.372-1.728 1.56-4.044 2.34-6.948 2.34Z" fill="#7247FF"/><path d="M26.168 26.432c-3.648 0-6.793-1.26-9.433-3.78l3.349-3.996c2.015 1.824 4.02 2.736 6.012 2.736 1.32 0 2.352-.312 3.096-.936.744-.624 1.116-1.5 1.116-2.628 0-1.056-.409-1.884-1.224-2.484-.817-.624-1.896-.936-3.24-.936-1.345 0-2.748.312-4.213.936l-3.204-2.124.72-12.42h15.48v4.86H23.9l-.288 4.356a13.653 13.653 0 0 1 3.313-.432c2.616 0 4.74.672 6.371 2.016 1.633 1.344 2.448 3.384 2.448 6.12 0 2.664-.876 4.788-2.628 6.372-1.728 1.56-4.044 2.34-6.948 2.34Z" fill="url(#b)"/><path d="M45.143 17.424h6.896V26h-2.432v-6.496h-2.176c0 1.13-.042 2.085-.128 2.864-.085.779-.202 1.413-.352 1.904-.149.49-.357.87-.624 1.136a2.107 2.107 0 0 1-.864.544c-.309.096-.693.144-1.152.144-.437 0-.848-.048-1.232-.144l.16-1.968c.192.032.363.048.512.048.256 0 .459-.059.608-.176.15-.128.288-.405.416-.832.139-.437.235-1.104.288-2 .054-.907.08-2.107.08-3.6Z" fill="#7247FF"/><path d="M45.143 17.424h6.896V26h-2.432v-6.496h-2.176c0 1.13-.042 2.085-.128 2.864-.085.779-.202 1.413-.352 1.904-.149.49-.357.87-.624 1.136a2.107 2.107 0 0 1-.864.544c-.309.096-.693.144-1.152.144-.437 0-.848-.048-1.232-.144l.16-1.968c.192.032.363.048.512.048.256 0 .459-.059.608-.176.15-.128.288-.405.416-.832.139-.437.235-1.104.288-2 .054-.907.08-2.107.08-3.6Z" fill="url(#c)"/><path d="M58.277 26.192c-1.301 0-2.373-.41-3.216-1.232-.843-.832-1.264-1.91-1.264-3.232 0-1.248.4-2.304 1.2-3.168.8-.864 1.813-1.296 3.04-1.296 1.355 0 2.39.448 3.104 1.344.715.896 1.072 2 1.072 3.312 0 .128-.01.341-.032.64h-5.968c.117.544.357.96.72 1.248.363.288.821.432 1.376.432.757 0 1.45-.293 2.08-.88l1.392 1.232c-.864 1.067-2.032 1.6-3.504 1.6Zm-2.096-5.152h3.664c-.075-.555-.272-.997-.592-1.328-.31-.33-.715-.496-1.216-.496-.49 0-.901.165-1.232.496-.32.32-.528.763-.624 1.328Z" fill="#7247FF"/><path d="M58.277 26.192c-1.301 0-2.373-.41-3.216-1.232-.843-.832-1.264-1.91-1.264-3.232 0-1.248.4-2.304 1.2-3.168.8-.864 1.813-1.296 3.04-1.296 1.355 0 2.39.448 3.104 1.344.715.896 1.072 2 1.072 3.312 0 .128-.01.341-.032.64h-5.968c.117.544.357.96.72 1.248.363.288.821.432 1.376.432.757 0 1.45-.293 2.08-.88l1.392 1.232c-.864 1.067-2.032 1.6-3.504 1.6Zm-2.096-5.152h3.664c-.075-.555-.272-.997-.592-1.328-.31-.33-.715-.496-1.216-.496-.49 0-.901.165-1.232.496-.32.32-.528.763-.624 1.328Z" fill="url(#d)"/><path d="M70.73 17.424v2.08h-2.544V26H65.72v-6.496h-2.544v-2.08h7.553Z" fill="#7247FF"/><path d="M70.73 17.424v2.08h-2.544V26H65.72v-6.496h-2.544v-2.08h7.553Z" fill="url(#e)"/><defs><linearGradient id="a" x1="29" y1="-6" x2="29" y2="26" gradientUnits="userSpaceOnUse"><stop stop-color="#4614E8"/><stop offset="1" stop-color="#BCA7FF"/></linearGradient><linearGradient id="b" x1="29" y1="-6" x2="29" y2="26" gradientUnits="userSpaceOnUse"><stop stop-color="#4614E8"/><stop offset="1" stop-color="#BCA7FF"/></linearGradient><linearGradient id="c" x1="57" y1="9" x2="57" y2="33" gradientUnits="userSpaceOnUse"><stop stop-color="#4614E8"/><stop offset="1" stop-color="#BCA7FF"/></linearGradient><linearGradient id="d" x1="57" y1="9" x2="57" y2="33" gradientUnits="userSpaceOnUse"><stop stop-color="#4614E8"/><stop offset="1" stop-color="#BCA7FF"/></linearGradient><linearGradient id="e" x1="57" y1="9" x2="57" y2="33" gradientUnits="userSpaceOnUse"><stop stop-color="#4614E8"/><stop offset="1" stop-color="#BCA7FF"/></linearGradient></defs></svg>