<svg width="151" height="36" fill="none" xmlns="http://www.w3.org/2000/svg"><path d="M7.544 35V8.648l-5.856 1.44L.152 4.04 9.8 1.16h5.04V35H7.544Z" fill="#7247FF"/><path d="M7.544 35V8.648l-5.856 1.44L.152 4.04 9.8 1.16h5.04V35H7.544Z" fill="url(#a)"/><path d="M47.522 30.632c-2.784 3.296-6.384 4.944-10.8 4.944s-8-1.648-10.752-4.944c-2.752-3.296-4.128-7.44-4.128-12.432 0-4.96 1.392-9.088 4.176-12.384 2.784-3.328 6.384-4.992 10.8-4.992 4.384 0 7.952 1.648 10.704 4.944 2.784 3.296 4.176 7.44 4.176 12.432 0 4.96-1.392 9.104-4.176 12.432Zm-16.08-4.752c1.376 2.016 3.168 3.024 5.376 3.024s3.968-.992 5.28-2.976c1.344-2.016 2.016-4.592 2.016-7.728 0-3.072-.688-5.616-2.064-7.632-1.376-2.048-3.152-3.072-5.328-3.072s-3.936 1.008-5.28 3.024c-1.344 1.984-2.016 4.544-2.016 7.68 0 3.104.672 5.664 2.016 7.68Z" fill="#7247FF"/><path d="M47.522 30.632c-2.784 3.296-6.384 4.944-10.8 4.944s-8-1.648-10.752-4.944c-2.752-3.296-4.128-7.44-4.128-12.432 0-4.96 1.392-9.088 4.176-12.384 2.784-3.328 6.384-4.992 10.8-4.992 4.384 0 7.952 1.648 10.704 4.944 2.784 3.296 4.176 7.44 4.176 12.432 0 4.96-1.392 9.104-4.176 12.432Zm-16.08-4.752c1.376 2.016 3.168 3.024 5.376 3.024s3.968-.992 5.28-2.976c1.344-2.016 2.016-4.592 2.016-7.728 0-3.072-.688-5.616-2.064-7.632-1.376-2.048-3.152-3.072-5.328-3.072s-3.936 1.008-5.28 3.024c-1.344 1.984-2.016 4.544-2.016 7.68 0 3.104.672 5.664 2.016 7.68Z" fill="url(#b)"/><path d="M82.585 30.632c-2.784 3.296-6.384 4.944-10.8 4.944s-8-1.648-10.752-4.944c-2.752-3.296-4.129-7.44-4.129-12.432 0-4.96 1.392-9.088 4.176-12.384C63.865 2.488 67.466.824 71.88.824c4.385 0 7.953 1.648 10.705 4.944 2.784 3.296 4.175 7.44 4.175 12.432 0 4.96-1.392 9.104-4.175 12.432Zm-16.08-4.752c1.376 2.016 3.168 3.024 5.376 3.024 2.207 0 3.968-.992 5.28-2.976 1.343-2.016 2.016-4.592 2.016-7.728 0-3.072-.689-5.616-2.065-7.632-1.375-2.048-3.151-3.072-5.328-3.072-2.175 0-3.936 1.008-5.28 3.024-1.344 1.984-2.016 4.544-2.016 7.68 0 3.104.672 5.664 2.016 7.68Z" fill="#7247FF"/><path d="M82.585 30.632c-2.784 3.296-6.384 4.944-10.8 4.944s-8-1.648-10.752-4.944c-2.752-3.296-4.129-7.44-4.129-12.432 0-4.96 1.392-9.088 4.176-12.384C63.865 2.488 67.466.824 71.88.824c4.385 0 7.953 1.648 10.705 4.944 2.784 3.296 4.175 7.44 4.175 12.432 0 4.96-1.392 9.104-4.175 12.432Zm-16.08-4.752c1.376 2.016 3.168 3.024 5.376 3.024 2.207 0 3.968-.992 5.28-2.976 1.343-2.016 2.016-4.592 2.016-7.728 0-3.072-.689-5.616-2.065-7.632-1.375-2.048-3.151-3.072-5.328-3.072-2.175 0-3.936 1.008-5.28 3.024-1.344 1.984-2.016 4.544-2.016 7.68 0 3.104.672 5.664 2.016 7.68Z" fill="url(#c)"/><path d="M101.327 30.056v-8.64h-8.688v-6.624h8.688v-8.64h6.816v8.64h8.688v6.624h-8.688v8.64h-6.816Z" fill="#7247FF"/><path d="M101.327 30.056v-8.64h-8.688v-6.624h8.688v-8.64h6.816v8.64h8.688v6.624h-8.688v8.64h-6.816Z" fill="url(#d)"/><path d="M128.526 26.424v2.08h-2.544V35h-2.464v-6.496h-2.544v-2.08h7.552Z" fill="#7247FF"/><path d="M128.526 26.424v2.08h-2.544V35h-2.464v-6.496h-2.544v-2.08h7.552Z" fill="url(#e)"/><path d="M129.854 35v-8.576h2.432v2.832h1.76c1.034 0 1.861.24 2.48.72.629.48.944 1.184.944 2.112 0 .907-.294 1.621-.88 2.144-.576.512-1.382.768-2.416.768h-4.32Zm3.952-3.904h-1.52v1.984h1.536c.8 0 1.2-.341 1.2-1.024 0-.299-.107-.533-.32-.704-.203-.17-.502-.256-.896-.256Zm4.8 3.904v-8.576h2.432V35h-2.432Z" fill="#7247FF"/><path d="M129.854 35v-8.576h2.432v2.832h1.76c1.034 0 1.861.24 2.48.72.629.48.944 1.184.944 2.112 0 .907-.294 1.621-.88 2.144-.576.512-1.382.768-2.416.768h-4.32Zm3.952-3.904h-1.52v1.984h1.536c.8 0 1.2-.341 1.2-1.024 0-.299-.107-.533-.32-.704-.203-.17-.502-.256-.896-.256Zm4.8 3.904v-8.576h2.432V35h-2.432Z" fill="url(#f)"/><path d="M147.261 35.192c-1.28 0-2.347-.432-3.2-1.296-.843-.864-1.264-1.92-1.264-3.168 0-1.237.427-2.288 1.28-3.152.853-.875 1.925-1.312 3.216-1.312 1.376 0 2.512.501 3.408 1.504l-1.424 1.44c-.597-.565-1.264-.848-2-.848-.597 0-1.093.23-1.488.688-.395.459-.592 1.019-.592 1.68 0 .672.197 1.237.592 1.696.405.448.933.672 1.584.672.672 0 1.328-.304 1.968-.912l1.424 1.44c-.469.512-.971.901-1.504 1.168-.533.267-1.2.4-2 .4Z" fill="#7247FF"/><path d="M147.261 35.192c-1.28 0-2.347-.432-3.2-1.296-.843-.864-1.264-1.92-1.264-3.168 0-1.237.427-2.288 1.28-3.152.853-.875 1.925-1.312 3.216-1.312 1.376 0 2.512.501 3.408 1.504l-1.424 1.44c-.597-.565-1.264-.848-2-.848-.597 0-1.093.23-1.488.688-.395.459-.592 1.019-.592 1.68 0 .672.197 1.237.592 1.696.405.448.933.672 1.584.672.672 0 1.328-.304 1.968-.912l1.424 1.44c-.469.512-.971.901-1.504 1.168-.533.267-1.2.4-2 .4Z" fill="url(#g)"/><defs><linearGradient id="a" x1="77" y1="-1" x2="77" y2="53" gradientUnits="userSpaceOnUse"><stop stop-color="#4614E8"/><stop offset="1" stop-color="#BCA7FF"/></linearGradient><linearGradient id="b" x1="77" y1="-1" x2="77" y2="53" gradientUnits="userSpaceOnUse"><stop stop-color="#4614E8"/><stop offset="1" stop-color="#BCA7FF"/></linearGradient><linearGradient id="c" x1="77" y1="-1" x2="77" y2="53" gradientUnits="userSpaceOnUse"><stop stop-color="#4614E8"/><stop offset="1" stop-color="#BCA7FF"/></linearGradient><linearGradient id="d" x1="77" y1="-1" x2="77" y2="53" gradientUnits="userSpaceOnUse"><stop stop-color="#4614E8"/><stop offset="1" stop-color="#BCA7FF"/></linearGradient><linearGradient id="e" x1="136" y1="18" x2="136" y2="42" gradientUnits="userSpaceOnUse"><stop stop-color="#4614E8"/><stop offset="1" stop-color="#BCA7FF"/></linearGradient><linearGradient id="f" x1="136" y1="18" x2="136" y2="42" gradientUnits="userSpaceOnUse"><stop stop-color="#4614E8"/><stop offset="1" stop-color="#BCA7FF"/></linearGradient><linearGradient id="g" x1="136" y1="18" x2="136" y2="42" gradientUnits="userSpaceOnUse"><stop stop-color="#4614E8"/><stop offset="1" stop-color="#BCA7FF"/></linearGradient></defs></svg>