<svg width="80" height="13" fill="none" xmlns="http://www.w3.org/2000/svg"><path d="M10.981 3.953a8.69 8.69 0 0 0-1.14-.36c-.36-.088-.787-.169-1.282-.241a10.562 10.562 0 0 0-1.64-.118c-.755 0-1.341.06-1.758.18-.412.115-.617.32-.617.617 0 .151.047.279.14.383.094.099.245.185.454.258.213.068.49.13.828.187.338.052.75.105 1.234.157 1.063.12 1.966.273 2.71.46.746.183 1.35.417 1.813.704.464.28.8.625 1.008 1.03.214.402.32.879.32 1.43 0 .672-.158 1.243-.476 1.712-.313.463-.75.84-1.313 1.132-.562.292-1.234.503-2.015.633-.776.13-1.63.195-2.563.195-.51 0-.987-.018-1.43-.054a14.515 14.515 0 0 1-1.21-.149 10.53 10.53 0 0 1-1-.203 9.587 9.587 0 0 1-.805-.242c-.552-.193-1.013-.411-1.383-.656L2.403 8.75c.328.151.706.286 1.133.406.36.104.792.198 1.297.281.51.084 1.075.126 1.695.126.51 0 .964-.014 1.36-.04.395-.03.729-.08 1-.148.27-.073.476-.167.617-.281a.57.57 0 0 0 .21-.453.465.465 0 0 0-.132-.344c-.084-.089-.242-.164-.477-.227a6.41 6.41 0 0 0-.96-.18 58.296 58.296 0 0 0-1.587-.195c-1.083-.114-1.971-.284-2.664-.508-.692-.229-1.24-.5-1.64-.812-.396-.318-.67-.674-.82-1.07a3.542 3.542 0 0 1-.227-1.274c0-.49.101-.948.305-1.375.203-.432.526-.807.968-1.125C2.924 1.208 3.497.953 4.2.766 4.908.578 5.763.484 6.763.484c.968 0 1.812.065 2.53.196.725.125 1.326.263 1.805.414a7.567 7.567 0 0 1 1.43.601l-1.547 2.258Z" fill="#7247FF"/><path d="M10.981 3.953a8.69 8.69 0 0 0-1.14-.36c-.36-.088-.787-.169-1.282-.241a10.562 10.562 0 0 0-1.64-.118c-.755 0-1.341.06-1.758.18-.412.115-.617.32-.617.617 0 .151.047.279.14.383.094.099.245.185.454.258.213.068.49.13.828.187.338.052.75.105 1.234.157 1.063.12 1.966.273 2.71.46.746.183 1.35.417 1.813.704.464.28.8.625 1.008 1.03.214.402.32.879.32 1.43 0 .672-.158 1.243-.476 1.712-.313.463-.75.84-1.313 1.132-.562.292-1.234.503-2.015.633-.776.13-1.63.195-2.563.195-.51 0-.987-.018-1.43-.054a14.515 14.515 0 0 1-1.21-.149 10.53 10.53 0 0 1-1-.203 9.587 9.587 0 0 1-.805-.242c-.552-.193-1.013-.411-1.383-.656L2.403 8.75c.328.151.706.286 1.133.406.36.104.792.198 1.297.281.51.084 1.075.126 1.695.126.51 0 .964-.014 1.36-.04.395-.03.729-.08 1-.148.27-.073.476-.167.617-.281a.57.57 0 0 0 .21-.453.465.465 0 0 0-.132-.344c-.084-.089-.242-.164-.477-.227a6.41 6.41 0 0 0-.96-.18 58.296 58.296 0 0 0-1.587-.195c-1.083-.114-1.971-.284-2.664-.508-.692-.229-1.24-.5-1.64-.812-.396-.318-.67-.674-.82-1.07a3.542 3.542 0 0 1-.227-1.274c0-.49.101-.948.305-1.375.203-.432.526-.807.968-1.125C2.924 1.208 3.497.953 4.2.766 4.908.578 5.763.484 6.763.484c.968 0 1.812.065 2.53.196.725.125 1.326.263 1.805.414a7.567 7.567 0 0 1 1.43.601l-1.547 2.258Z" fill="url(#a)"/><path d="M17.264.797h3.305V12h-3.305V.797Z" fill="#7247FF"/><path d="M17.264.797h3.305V12h-3.305V.797Z" fill="url(#b)"/><path d="M25.25 12V.797h7.367c.724 0 1.395.073 2.015.219.62.14 1.154.37 1.602.687.453.318.807.732 1.062 1.242.255.506.383 1.12.383 1.844 0 .458-.073.862-.219 1.211a3.27 3.27 0 0 1-.539.898c-.218.25-.46.456-.726.618-.26.161-.508.283-.742.367L37.78 12h-3.547l-1.961-3.46h-3.719V12H25.25Zm3.304-8.445v2.468h4.063c.599 0 1.036-.093 1.312-.28.276-.194.414-.511.414-.954 0-.437-.138-.753-.414-.945-.276-.193-.714-.29-1.312-.29h-4.063Z" fill="#7247FF"/><path d="M25.25 12V.797h7.367c.724 0 1.395.073 2.015.219.62.14 1.154.37 1.602.687.453.318.807.732 1.062 1.242.255.506.383 1.12.383 1.844 0 .458-.073.862-.219 1.211a3.27 3.27 0 0 1-.539.898c-.218.25-.46.456-.726.618-.26.161-.508.283-.742.367L37.78 12h-3.547l-1.961-3.46h-3.719V12H25.25Zm3.304-8.445v2.468h4.063c.599 0 1.036-.093 1.312-.28.276-.194.414-.511.414-.954 0-.437-.138-.753-.414-.945-.276-.193-.714-.29-1.312-.29h-4.063Z" fill="url(#c)"/><path d="M42.141.797h3.305V12H42.14V.797Z" fill="#7247FF"/><path d="M42.141.797h3.305V12H42.14V.797Z" fill="url(#d)"/><path d="M56.432 9.563c.588 0 1.08-.063 1.476-.188.396-.125.711-.305.945-.54.24-.233.41-.52.508-.858.1-.339.149-.72.149-1.141V.796h3.304v6.04c0 .87-.12 1.646-.359 2.328a4.09 4.09 0 0 1-1.125 1.719c-.51.463-1.17.818-1.977 1.062-.807.245-1.78.367-2.921.367-1.12 0-2.079-.122-2.875-.367-.797-.245-1.45-.599-1.961-1.062a4.227 4.227 0 0 1-1.117-1.719c-.235-.682-.352-1.458-.352-2.328V.796h3.305v6.04c0 .422.044.802.132 1.14.094.34.253.626.477.86.23.234.536.414.922.539.39.125.88.188 1.469.188Z" fill="#7247FF"/><path d="M56.432 9.563c.588 0 1.08-.063 1.476-.188.396-.125.711-.305.945-.54.24-.233.41-.52.508-.858.1-.339.149-.72.149-1.141V.796h3.304v6.04c0 .87-.12 1.646-.359 2.328a4.09 4.09 0 0 1-1.125 1.719c-.51.463-1.17.818-1.977 1.062-.807.245-1.78.367-2.921.367-1.12 0-2.079-.122-2.875-.367-.797-.245-1.45-.599-1.961-1.062a4.227 4.227 0 0 1-1.117-1.719c-.235-.682-.352-1.458-.352-2.328V.796h3.305v6.04c0 .422.044.802.132 1.14.094.34.253.626.477.86.23.234.536.414.922.539.39.125.88.188 1.469.188Z" fill="url(#e)"/><path d="M77.066 3.953a8.683 8.683 0 0 0-1.141-.36 13.85 13.85 0 0 0-1.281-.241 10.562 10.562 0 0 0-1.64-.118c-.756 0-1.342.06-1.759.18-.411.115-.617.32-.617.617 0 .151.047.279.14.383.094.099.246.185.454.258.213.068.49.13.828.187.339.052.75.105 1.234.157 1.063.12 1.966.273 2.711.46.745.183 1.35.417 1.813.704.463.28.8.625 1.008 1.03.213.402.32.879.32 1.43 0 .672-.159 1.243-.477 1.712-.312.463-.75.84-1.312 1.132-.563.292-1.234.503-2.016.633-.776.13-1.63.195-2.562.195-.51 0-.987-.018-1.43-.054a14.517 14.517 0 0 1-1.21-.149 10.535 10.535 0 0 1-1-.203 9.585 9.585 0 0 1-.806-.242c-.552-.193-1.013-.411-1.382-.656l1.546-2.258a7.75 7.75 0 0 0 1.133.406c.36.104.792.198 1.297.281.51.084 1.076.126 1.695.126.51 0 .964-.014 1.36-.04.396-.03.73-.08 1-.148.27-.073.477-.167.617-.281a.57.57 0 0 0 .211-.453.465.465 0 0 0-.133-.344c-.083-.089-.242-.164-.476-.227a6.407 6.407 0 0 0-.961-.18 58.287 58.287 0 0 0-1.586-.195c-1.084-.114-1.972-.284-2.664-.508-.693-.229-1.24-.5-1.64-.812-.397-.318-.67-.674-.821-1.07a3.54 3.54 0 0 1-.227-1.274c0-.49.102-.948.305-1.375.203-.432.526-.807.969-1.125.442-.323 1.015-.578 1.718-.765.709-.188 1.563-.282 2.563-.282.969 0 1.812.065 2.531.196.724.125 1.326.263 1.805.414a7.567 7.567 0 0 1 1.43.601l-1.547 2.258Z" fill="#7247FF"/><path d="M77.066 3.953a8.683 8.683 0 0 0-1.141-.36 13.85 13.85 0 0 0-1.281-.241 10.562 10.562 0 0 0-1.64-.118c-.756 0-1.342.06-1.759.18-.411.115-.617.32-.617.617 0 .151.047.279.14.383.094.099.246.185.454.258.213.068.49.13.828.187.339.052.75.105 1.234.157 1.063.12 1.966.273 2.711.46.745.183 1.35.417 1.813.704.463.28.8.625 1.008 1.03.213.402.32.879.32 1.43 0 .672-.159 1.243-.477 1.712-.312.463-.75.84-1.312 1.132-.563.292-1.234.503-2.016.633-.776.13-1.63.195-2.562.195-.51 0-.987-.018-1.43-.054a14.517 14.517 0 0 1-1.21-.149 10.535 10.535 0 0 1-1-.203 9.585 9.585 0 0 1-.806-.242c-.552-.193-1.013-.411-1.382-.656l1.546-2.258a7.75 7.75 0 0 0 1.133.406c.36.104.792.198 1.297.281.51.084 1.076.126 1.695.126.51 0 .964-.014 1.36-.04.396-.03.73-.08 1-.148.27-.073.477-.167.617-.281a.57.57 0 0 0 .211-.453.465.465 0 0 0-.133-.344c-.083-.089-.242-.164-.476-.227a6.407 6.407 0 0 0-.961-.18 58.287 58.287 0 0 0-1.586-.195c-1.084-.114-1.972-.284-2.664-.508-.693-.229-1.24-.5-1.64-.812-.397-.318-.67-.674-.821-1.07a3.54 3.54 0 0 1-.227-1.274c0-.49.102-.948.305-1.375.203-.432.526-.807.969-1.125.442-.323 1.015-.578 1.718-.765.709-.188 1.563-.282 2.563-.282.969 0 1.812.065 2.531.196.724.125 1.326.263 1.805.414a7.567 7.567 0 0 1 1.43.601l-1.547 2.258Z" fill="url(#f)"/><defs><linearGradient id="a" x1="40" y1="-14" x2="40" y2="25" gradientUnits="userSpaceOnUse"><stop stop-color="#4614E8"/><stop offset="1" stop-color="#BCA7FF"/></linearGradient><linearGradient id="b" x1="40" y1="-14" x2="40" y2="25" gradientUnits="userSpaceOnUse"><stop stop-color="#4614E8"/><stop offset="1" stop-color="#BCA7FF"/></linearGradient><linearGradient id="c" x1="40" y1="-14" x2="40" y2="25" gradientUnits="userSpaceOnUse"><stop stop-color="#4614E8"/><stop offset="1" stop-color="#BCA7FF"/></linearGradient><linearGradient id="d" x1="40" y1="-14" x2="40" y2="25" gradientUnits="userSpaceOnUse"><stop stop-color="#4614E8"/><stop offset="1" stop-color="#BCA7FF"/></linearGradient><linearGradient id="e" x1="40" y1="-14" x2="40" y2="25" gradientUnits="userSpaceOnUse"><stop stop-color="#4614E8"/><stop offset="1" stop-color="#BCA7FF"/></linearGradient><linearGradient id="f" x1="40" y1="-14" x2="40" y2="25" gradientUnits="userSpaceOnUse"><stop stop-color="#4614E8"/><stop offset="1" stop-color="#BCA7FF"/></linearGradient></defs></svg>