<svg width="69" height="27" fill="none" xmlns="http://www.w3.org/2000/svg"><path d="M9.98 26.432c-3.648 0-6.792-1.26-9.432-3.78l3.348-3.996c2.016 1.824 4.02 2.736 6.012 2.736 1.32 0 2.352-.312 3.096-.936.744-.624 1.116-1.5 1.116-2.628 0-1.056-.408-1.884-1.224-2.484-.816-.624-1.896-.936-3.24-.936-1.344 0-2.748.312-4.212.936L2.24 13.22 2.96.8h15.48v4.86H7.712l-.288 4.356a13.654 13.654 0 0 1 3.312-.432c2.616 0 4.74.672 6.372 2.016 1.632 1.344 2.448 3.384 2.448 6.12 0 2.664-.876 4.788-2.628 6.372-1.728 1.56-4.044 2.34-6.948 2.34Z" fill="#7247FF"/><path d="M9.98 26.432c-3.648 0-6.792-1.26-9.432-3.78l3.348-3.996c2.016 1.824 4.02 2.736 6.012 2.736 1.32 0 2.352-.312 3.096-.936.744-.624 1.116-1.5 1.116-2.628 0-1.056-.408-1.884-1.224-2.484-.816-.624-1.896-.936-3.24-.936-1.344 0-2.748.312-4.212.936L2.24 13.22 2.96.8h15.48v4.86H7.712l-.288 4.356a13.654 13.654 0 0 1 3.312-.432c2.616 0 4.74.672 6.372 2.016 1.632 1.344 2.448 3.384 2.448 6.12 0 2.664-.876 4.788-2.628 6.372-1.728 1.56-4.044 2.34-6.948 2.34Z" fill="url(#a)"/><path d="M42.88 22.724c-2.088 2.472-4.788 3.708-8.1 3.708-3.312 0-6-1.236-8.064-3.708-2.064-2.472-3.096-5.58-3.096-9.324 0-3.72 1.044-6.816 3.132-9.288C28.84 1.616 31.54.368 34.852.368c3.288 0 5.964 1.236 8.028 3.708 2.088 2.472 3.132 5.58 3.132 9.324 0 3.72-1.044 6.828-3.132 9.324ZM30.82 19.16c1.032 1.512 2.376 2.268 4.032 2.268 1.656 0 2.976-.744 3.96-2.232 1.008-1.512 1.512-3.444 1.512-5.796 0-2.304-.516-4.212-1.548-5.724-1.032-1.536-2.364-2.304-3.996-2.304-1.632 0-2.952.756-3.96 2.268-1.008 1.488-1.512 3.408-1.512 5.76 0 2.328.504 4.248 1.512 5.76Z" fill="#7247FF"/><path d="M42.88 22.724c-2.088 2.472-4.788 3.708-8.1 3.708-3.312 0-6-1.236-8.064-3.708-2.064-2.472-3.096-5.58-3.096-9.324 0-3.72 1.044-6.816 3.132-9.288C28.84 1.616 31.54.368 34.852.368c3.288 0 5.964 1.236 8.028 3.708 2.088 2.472 3.132 5.58 3.132 9.324 0 3.72-1.044 6.828-3.132 9.324ZM30.82 19.16c1.032 1.512 2.376 2.268 4.032 2.268 1.656 0 2.976-.744 3.96-2.232 1.008-1.512 1.512-3.444 1.512-5.796 0-2.304-.516-4.212-1.548-5.724-1.032-1.536-2.364-2.304-3.996-2.304-1.632 0-2.952.756-3.96 2.268-1.008 1.488-1.512 3.408-1.512 5.76 0 2.328.504 4.248 1.512 5.76Z" fill="url(#b)"/><path d="M56.937 22.292v-6.48H50.42v-4.968h6.516v-6.48h5.112v6.48h6.516v4.968h-6.516v6.48h-5.112Z" fill="#7247FF"/><path d="M56.937 22.292v-6.48H50.42v-4.968h6.516v-6.48h5.112v6.48h6.516v4.968h-6.516v6.48h-5.112Z" fill="url(#c)"/><defs><linearGradient id="a" x1="39.5" y1="-6" x2="39.5" y2="48" gradientUnits="userSpaceOnUse"><stop stop-color="#4614E8"/><stop offset="1" stop-color="#BCA7FF"/></linearGradient><linearGradient id="b" x1="39.5" y1="-6" x2="39.5" y2="48" gradientUnits="userSpaceOnUse"><stop stop-color="#4614E8"/><stop offset="1" stop-color="#BCA7FF"/></linearGradient><linearGradient id="c" x1="39.5" y1="-6" x2="39.5" y2="48" gradientUnits="userSpaceOnUse"><stop stop-color="#4614E8"/><stop offset="1" stop-color="#BCA7FF"/></linearGradient></defs></svg>