<svg width="218" height="119" fill="none" xmlns="http://www.w3.org/2000/svg"><g clip-path="url(#a)"><path d="m144.987 32.263-5.197-.924-5.308 14.385-9.063 13.558a3.221 3.221 0 0 0-3.032 3.97 3.23 3.23 0 0 0 .947 1.624 3.204 3.204 0 0 0 4.931-.714 3.24 3.24 0 0 0 .452-1.826l11.069-12.816 5.201-17.257Z" fill="#fff"/><path fill-rule="evenodd" clip-rule="evenodd" d="m134.931 45.952-9.24 13.823-.258.007a2.703 2.703 0 0 0-1.498.506 2.724 2.724 0 0 0-1.061 2.85 2.722 2.722 0 0 0 2.224 2.06 2.715 2.715 0 0 0 2.738-1.292 2.74 2.74 0 0 0 .382-1.544l-.011-.2 11.131-12.888 5.008-16.617-4.232-.753-5.183 14.048Zm4.859-14.613 5.197.924-5.201 17.257-11.069 12.816a3.24 3.24 0 0 1-.452 1.826 3.198 3.198 0 0 1-4.931.714 3.23 3.23 0 0 1 .31-4.994 3.2 3.2 0 0 1 1.775-.6l9.063-13.558 5.308-14.385Z" fill="#000"/><path d="M162.774 14.34c0 5.171-4.763 4.39-10.637 4.39-5.875 0-10.637.781-10.637-4.39C141.5 9.168 143.826 0 152.137 0c8.597 0 10.637 9.168 10.637 14.34Z" fill="#7247FF"/><path d="m182.329 59.337-9.387-16.217-4.371-14.7-5.246.586 4.08 17.559 10.449 13.807a3.225 3.225 0 0 0 .142 3.555 3.192 3.192 0 0 0 4.923.33 3.23 3.23 0 0 0 .61-3.506 3.215 3.215 0 0 0-1.2-1.414Z" fill="#fff"/><path fill-rule="evenodd" clip-rule="evenodd" d="m172.479 43.32-4.268-14.356-4.272.477 3.929 16.907 10.59 13.992-.176.29a2.733 2.733 0 0 0 .12 3.005 2.7 2.7 0 0 0 1.241.951 2.691 2.691 0 0 0 2.912-.673 2.725 2.725 0 0 0-.498-4.156l.272-.42c.53.343.947.835 1.2 1.414a3.23 3.23 0 0 1-.61 3.504 3.192 3.192 0 0 1-4.923-.33 3.225 3.225 0 0 1-.142-3.553l-10.449-13.807-4.08-17.559 5.246-.585 4.371 14.699 9.387 16.217-.433.25-9.417-16.268Z" fill="#000"/><path d="m173.015 85.16 10.783 29.556h4.435l-7.609-30.617-7.609 1.06Z" fill="#fff"/><path fill-rule="evenodd" clip-rule="evenodd" d="m184.148 114.216-10.451-28.647 6.55-.913 7.347 29.56h-3.446Zm-3.524-30.117-7.609 1.06 10.783 29.557h4.435l-7.609-30.617Z" fill="#000"/><path d="m149.411 86.769-10.782 29.556h-4.436l7.609-30.617 7.609 1.06Z" fill="#fff"/><path fill-rule="evenodd" clip-rule="evenodd" d="m149.411 86.769-7.609-1.06-7.609 30.616h4.436l10.782-29.556Zm-.682.41-6.55-.913-7.347 29.559h3.447l10.45-28.647Z" fill="#000"/><path d="M160.485 22.534s4.371-1.464 5.536.585c1.166 2.048 4.08 8.487 4.08 8.487l-5.828.877 5.245 13.17s7.286 5.56 9.034 18.143a834.449 834.449 0 0 0 3.497 22.826s-30.307 4.975-41.963 2.927c0 0 .874-6.146 3.205-6.438-1.748-1.756.555-3.22.555-3.22l5.273-19.021 1.166-9.365s-2.03-9.576-4.663-11.413c-2.632-1.837-1.748-7.023-1.748-7.023l-5.245.292s.582-9.364 3.205-9.364h3.206l15.445-1.463Z" fill="#fff"/><path fill-rule="evenodd" clip-rule="evenodd" d="m160.589 23.026-15.526 1.47h-3.229c-.165 0-.343.07-.545.264-.207.199-.414.506-.612.917-.396.822-.705 1.944-.939 3.101a35.852 35.852 0 0 0-.48 3.174c-.038.345-.066.644-.087.878l5.301-.295-.105.618v.001l-.002.01-.006.038-.022.158a12.845 12.845 0 0 0-.077 2.496c.106 1.501.532 3.047 1.649 3.826.771.539 1.438 1.586 2.002 2.75.576 1.187 1.085 2.581 1.506 3.904a58.07 58.07 0 0 1 1.263 4.643l.07.31.018.083.005.022.001.007-.489.104s-2.03-9.576-4.663-11.413c-2.131-1.487-1.957-5.17-1.814-6.519.034-.316.066-.504.066-.504l-5.245.292s.011-.185.038-.502c.166-1.945.913-8.862 3.167-8.862h3.206l15.445-1.463s4.371-1.464 5.536.585c.975 1.712 3.17 6.49 3.865 8.013l.215.474-5.828.877 5.245 13.17s7.286 5.56 9.034 18.143a850.74 850.74 0 0 0 3.497 22.826l-.493.08c-3.961.63-30.691 4.741-41.47 2.847 0 0 .742-5.217 2.682-6.267.166-.09.34-.148.523-.171a2.789 2.789 0 0 1-.358-.435c-1.02-1.556.913-2.784.913-2.784l5.273-19.022 1.166-9.365.489-.104.018.083-1.181 9.484-5.334 19.242-.161.103h-.001l-.001.001-.013.008a2.63 2.63 0 0 0-.258.202c-.167.145-.36.345-.503.58-.142.232-.221.475-.201.724.019.242.135.557.506.93l.719.722-1.011.127c-.364.046-.747.334-1.13.91-.373.562-.684 1.309-.933 2.077-.248.763-.425 1.52-.541 2.09-.035.17-.064.322-.088.452 5.834.89 15.927.182 24.723-.78a354.505 354.505 0 0 0 16.088-2.147l-.217-1.302a863.13 863.13 0 0 1-3.198-21.042c-.862-6.205-3.087-10.669-5.089-13.576a23.675 23.675 0 0 0-2.639-3.22 15.422 15.422 0 0 0-1.044-.963l-.055-.044-.013-.01-.002-.002-.11-.084-5.53-13.883 5.797-.873-.199-.434c-.291-.635-.691-1.502-1.127-2.433-.877-1.871-1.888-3.973-2.459-4.977-.205-.36-.56-.59-1.05-.72-.495-.13-1.086-.142-1.677-.09a11.339 11.339 0 0 0-2.175.438l-.033.01-.007.003h-.002l-.054.019Z" fill="#000"/><path d="m188.78 118.547-11.52-.001v-.146c0-1.194.472-2.339 1.313-3.184a4.482 4.482 0 0 1 3.171-1.319l7.036.001v4.649Z" fill="#fff"/><path fill-rule="evenodd" clip-rule="evenodd" d="m188.78 118.547-11.52-.001v-.153a4.512 4.512 0 0 1 1.313-3.177 4.482 4.482 0 0 1 3.171-1.319l7.036.001v4.649Zm-7.036-4.15 6.536.001Zm6.536.001v3.649l-10.505-.001a4.016 4.016 0 0 1 1.153-2.477 3.98 3.98 0 0 1 2.816-1.172" fill="#000"/><path d="m139.822 118.547-11.52-.001v-.146c0-1.194.473-2.339 1.314-3.184a4.478 4.478 0 0 1 3.17-1.319l7.036.001v4.649Z" fill="#fff"/><path fill-rule="evenodd" clip-rule="evenodd" d="m139.822 118.547-11.52-.001v-.153a4.514 4.514 0 0 1 1.314-3.177 4.478 4.478 0 0 1 3.17-1.319l7.036.001v4.649Zm-7.036-4.15 6.536.001Zm6.536.001v3.649l-10.504-.001a4.01 4.01 0 0 1 1.152-2.477 3.98 3.98 0 0 1 2.816-1.172" fill="#000"/><path d="M152.605 18.198c3.953 0 7.157-3.219 7.157-7.188 0-3.97-3.204-7.188-7.157-7.188s-7.157 3.218-7.157 7.188c0 3.97 3.204 7.188 7.157 7.188Z" fill="#fff"/><path fill-rule="evenodd" clip-rule="evenodd" d="M152.605 17.698c3.675 0 6.657-2.993 6.657-6.688 0-3.696-2.982-6.688-6.657-6.688s-6.657 2.992-6.657 6.688c0 3.695 2.982 6.688 6.657 6.688Zm7.157-6.688c0 3.97-3.204 7.188-7.157 7.188s-7.157-3.219-7.157-7.188c0-3.97 3.204-7.188 7.157-7.188s7.157 3.218 7.157 7.188Z" fill="#000"/><path d="M143.832 10.828h2.831l1.249-3.512.249 3.512h1.353l.729-2.049.146 2.049h10.053a7.624 7.624 0 0 0-2.219-5.38 7.56 7.56 0 0 0-5.357-2.229h-1.458a7.56 7.56 0 0 0-5.357 2.229 7.624 7.624 0 0 0-2.219 5.38Z" fill="#7247FF"/><path d="M217.709 119H106.68a.292.292 0 0 1 0-.585h111.029a.29.29 0 0 1 .291.292.292.292 0 0 1-.291.293ZM125.382 9.977H0v52.872h125.382V9.977Z" fill="#CBCBCB"/><path d="M2.623 60.215h120.136V12.61H2.623v47.605Z" fill="#fff"/><path d="M104.246 29.738v20.3a1.007 1.007 0 0 1-1.005 1.01H81.489a1.013 1.013 0 0 1-1.005-1.01v-20.3a1.012 1.012 0 0 1 1.005-1.01h21.752a1.009 1.009 0 0 1 1.005 1.01Z" fill="#6C63FF"/><path d="M104.246 29.738v20.3a1.007 1.007 0 0 1-1.005 1.01H81.489a1.013 1.013 0 0 1-1.005-1.01v-20.3a1.012 1.012 0 0 1 1.005-1.01h21.752a1.009 1.009 0 0 1 1.005 1.01Z" fill="url(#b)"/><path d="M93.902 51.149h-3.074a1 1 0 0 1-1.005-.983V29.108a1 1 0 0 1 1.005-.983h3.074a.991.991 0 0 1 1.004.983v21.058a1 1 0 0 1-1.004.983Zm-2.17-28.774c1.58 1.372 1.08 4.55 1.08 4.55s-3.059.951-4.639-.422-1.08-4.55-1.08-4.55 3.06-.952 4.639.422Z" fill="#3F3D56"/><path d="M96.979 26.24c-1.362 1.591-4.528 1.1-4.528 1.1s-.957-3.07.405-4.66c1.362-1.591 4.528-1.1 4.528-1.1s.957 3.07-.405 4.66Z" fill="#3F3D56"/><path opacity=".2" d="M104.246 29.738v3.417l-23.761-.1v-3.317a1.012 1.012 0 0 1 1.004-1.01h21.752a1.01 1.01 0 0 1 1.005 1.01Z" fill="#000"/><path d="M106.804 31.816a1.006 1.006 0 0 1-.803.397l-26.48-.111a1 1 0 0 1-.926-.627 1.014 1.014 0 0 1-.075-.387l.013-2.968a1.011 1.011 0 0 1 1.009-1.004l26.48.111a1.002 1.002 0 0 1 1 1.014l-.012 2.967c-.001.22-.073.433-.206.608Z" fill="#6C63FF"/><path d="M106.804 31.816a1.006 1.006 0 0 1-.803.397l-26.48-.111a1 1 0 0 1-.926-.627 1.014 1.014 0 0 1-.075-.387l.013-2.968a1.011 1.011 0 0 1 1.009-1.004l26.48.111a1.002 1.002 0 0 1 1 1.014l-.012 2.967c-.001.22-.073.433-.206.608Z" fill="url(#c)"/><path d="m89.887 26.922-.022 5.342 5.084.02.021-5.341-5.083-.02Z" fill="#3F3D56"/><path d="M47.896 28.435H18.502v2.356h29.394v-2.356Z" fill="#E5E5E5"/><path d="M63.893 37.03h-45.39v2.357h45.39v-2.356Z" fill="url(#d)"/><path d="M55.495 45.129H18.502v2.357h36.993v-2.357Z" fill="#E5E5E5"/><path d="M36.786 101.994a7.025 7.025 0 0 0 6.814-1.205c2.387-2.012 3.135-5.325 3.744-8.393l1.8-9.077-3.77 2.607c-2.711 1.875-5.483 3.81-7.36 6.525-1.878 2.716-2.697 6.423-1.19 9.361" fill="#E6E6E6"/><path d="M37.368 113.616c-.474-3.472-.963-6.989-.629-10.498.296-3.116 1.243-6.16 3.17-8.656a14.36 14.36 0 0 1 3.68-3.348c.367-.233.706.352.34.584a13.676 13.676 0 0 0-5.393 6.534c-1.174 2.998-1.363 6.267-1.16 9.452.122 1.926.382 3.84.642 5.751a.352.352 0 0 1-.235.417.34.34 0 0 1-.415-.237v.001Z" fill="#F2F2F2"/><path d="M40.784 108.045a5.205 5.205 0 0 0 1.957 1.768c.792.411 1.677.61 2.569.578 2.292-.109 4.201-1.715 5.92-3.239l5.086-4.51-3.365-.161c-2.421-.117-4.904-.226-7.21.524-2.305.751-4.431 2.554-4.853 4.951" fill="#E6E6E6"/><path d="M36.027 115.612c2.284-4.06 4.934-8.571 9.67-10.013 1.316-.4 2.696-.543 4.066-.422.432.037.324.706-.107.668a9.995 9.995 0 0 0-6.49 1.725c-1.83 1.251-3.255 2.99-4.461 4.834-.739 1.13-1.4 2.307-2.062 3.483-.212.376-.83.105-.616-.275Z" fill="#F2F2F2"/><path d="M60.928 116.366H21.294a.29.29 0 0 1-.291-.293c0-.077.03-.152.085-.207a.294.294 0 0 1 .206-.085h39.633c.077 0 .15.031.206.085a.295.295 0 0 1 0 .414.29.29 0 0 1-.206.086Z" fill="#CBCBCB"/></g><defs><linearGradient id="b" x1="80.356" y1="29.822" x2="105.122" y2="30.007" gradientUnits="userSpaceOnUse"><stop stop-color="#4614E8"/><stop offset="1" stop-color="#BCA7FF"/></linearGradient><linearGradient id="c" x1="78.367" y1="27.366" x2="108.029" y2="28.529" gradientUnits="userSpaceOnUse"><stop stop-color="#4614E8"/><stop offset="1" stop-color="#BCA7FF"/></linearGradient><linearGradient id="d" x1="18.257" y1="37.146" x2="64.722" y2="43.422" gradientUnits="userSpaceOnUse"><stop stop-color="#4614E8"/><stop offset="1" stop-color="#BCA7FF"/></linearGradient><clipPath id="a"><path fill="#fff" d="M0 0h218v119H0z"/></clipPath></defs></svg>