<svg width="219" height="159" fill="none" xmlns="http://www.w3.org/2000/svg"><g clip-path="url(#a)"><path d="M139.558 119.197v38.329H43.687c-10.923 0-19.81-8.598-19.81-19.165 0-10.566 8.887-19.164 19.81-19.164h95.871Z" fill="#F2F2F2"/><path d="M141.913 157.231a1.479 1.479 0 0 1-1.472 1.474H41.979a20.148 20.148 0 0 1-14.257-5.915 20.214 20.214 0 0 1-5.906-14.281 20.214 20.214 0 0 1 5.906-14.281 20.148 20.148 0 0 1 14.257-5.915h98.462a1.47 1.47 0 0 1 1.472 1.474 1.473 1.473 0 0 1-1.472 1.474H41.979a17.208 17.208 0 0 0-12.176 5.052 17.263 17.263 0 0 0-5.044 12.196 17.26 17.26 0 0 0 5.044 12.196 17.204 17.204 0 0 0 12.176 5.052h98.462a1.479 1.479 0 0 1 1.472 1.474Z" fill="url(#b)"/><path d="M139.558 128.042H36.534a.295.295 0 0 1 0-.589h103.024a.294.294 0 1 1 0 .589Zm0 7.076H36.534a.295.295 0 0 1 0-.589h103.024a.294.294 0 1 1 0 .589Zm0 7.077H36.534a.294.294 0 1 1 0-.59h103.024a.294.294 0 1 1 0 .59Zm0 7.075H36.534a.295.295 0 0 1 0-.589h103.024a.294.294 0 1 1 0 .589Z" fill="#CCC"/><path d="m213.652 126.412-24.009 29.846-74.653-60.25c-8.506-6.864-10.04-19.144-3.421-27.372 6.619-8.228 18.924-9.338 27.43-2.473l74.653 60.249Z" fill="#F2F2F2"/><path fill-rule="evenodd" clip-rule="evenodd" d="m214.894 126.279-76.67-61.878a20.143 20.143 0 0 0-28.352 3.055 20.22 20.22 0 0 0 3.05 28.398l76.67 61.877a1.471 1.471 0 0 0 2.386-1.305 1.473 1.473 0 0 0-.539-.991l-76.67-61.877a17.244 17.244 0 0 1-6.322-11.587 17.26 17.26 0 0 1 8.868-16.986 17.206 17.206 0 0 1 13.108-1.41 17.22 17.22 0 0 1 5.954 3.122l76.67 61.877a1.474 1.474 0 0 0 1.629.147 1.466 1.466 0 0 0 .707-.879 1.46 1.46 0 0 0-.121-1.122 1.463 1.463 0 0 0-.368-.441ZM114.455 93.947l76.67 61.877a.978.978 0 0 1 .147 1.371.972.972 0 0 1-1.366.147l-76.67-61.877a19.719 19.719 0 0 1-2.975-27.695 19.642 19.642 0 0 1 27.649-2.98l76.67 61.878a.974.974 0 0 1-1.219 1.518v-.001l-76.67-61.877a17.713 17.713 0 0 0-13.015-3.831 17.702 17.702 0 0 0-11.907 6.511 17.756 17.756 0 0 0-3.819 13.037 17.763 17.763 0 0 0 6.505 11.922Z" fill="#000"/><path d="m208.111 133.299-80.222-64.744a.284.284 0 0 1-.108-.198.301.301 0 0 1 .151-.29.293.293 0 0 1 .326.028l80.223 64.745a.301.301 0 0 1 .098.313.301.301 0 0 1-.142.176.297.297 0 0 1-.326-.029v-.001Zm-4.432 5.511-80.223-64.745a.296.296 0 0 1 .153-.523.296.296 0 0 1 .217.064l80.222 64.744a.286.286 0 0 1 .074.089.285.285 0 0 1 .025.224.3.3 0 0 1-.252.21.293.293 0 0 1-.216-.063Zm-4.432 5.51-80.223-64.745a.293.293 0 0 1-.108-.198.292.292 0 0 1 .261-.325.293.293 0 0 1 .216.063l80.223 64.745a.301.301 0 0 1 .098.313.3.3 0 0 1-.251.21.297.297 0 0 1-.216-.063Zm-4.433 5.51-80.223-64.745a.304.304 0 0 1-.108-.198.296.296 0 0 1 .478-.261l80.223 64.745c.03.024.055.054.073.088a.284.284 0 0 1 .025.224.279.279 0 0 1-.054.102.303.303 0 0 1-.197.109.297.297 0 0 1-.217-.064Zm23.892 9.17H.294a.294.294 0 1 1 0-.59h218.412a.294.294 0 0 1 0 .59Z" fill="#CCC"/><path d="m99.516 115.169-3.365-.001-1.6-13.001 4.966.001-.001 13.001Z" fill="#F4F7FA"/><path fill-rule="evenodd" clip-rule="evenodd" d="m99.516 115.169-3.365-.001-1.6-13.001 4.966.001-.001 13.001Zm-4.4-12.501 1.477 12.001h2.423v-12.001h-3.9Z" fill="#000"/><path d="M93.747 114.206h6.49v4.092H89.661a4.102 4.102 0 0 1 1.196-2.894 4.09 4.09 0 0 1 2.89-1.198Z" fill="#F4F7FA"/><path fill-rule="evenodd" clip-rule="evenodd" d="M99.737 114.706h-5.99a3.57 3.57 0 0 0-2.536 1.052 3.585 3.585 0 0 0-1.016 2.04h9.542v-3.092Zm-10.076 3.592a4.1 4.1 0 0 1 1.196-2.894 4.09 4.09 0 0 1 2.89-1.198h6.49v4.092H89.661Z" fill="#000"/><path d="m65.137 115.169-3.365-.001-1.6-13.001 4.966.001-.001 13.001Z" fill="#F4F7FA"/><path fill-rule="evenodd" clip-rule="evenodd" d="m65.137 115.169-3.365-.001-1.6-13.001 4.966.001-.001 13.001Zm-4.4-12.501 1.477 12.001h2.423v-12.001h-3.9Z" fill="#000"/><path d="M59.368 114.206h6.49v4.092H55.28a4.1 4.1 0 0 1 2.523-3.781 4.074 4.074 0 0 1 1.564-.311Z" fill="#F4F7FA"/><path fill-rule="evenodd" clip-rule="evenodd" d="M65.358 114.706h-5.99a3.57 3.57 0 0 0-2.536 1.052 3.583 3.583 0 0 0-1.016 2.04h9.542v-3.092Zm-10.077 3.592a4.12 4.12 0 0 1 .312-1.566 4.1 4.1 0 0 1 2.211-2.215 4.074 4.074 0 0 1 1.564-.311h6.49v4.092H55.28Z" fill="#000"/><path d="M76.377 18.732v-1.475c0-2.521 1-4.94 2.78-6.723a9.485 9.485 0 0 1 13.425 0 9.516 9.516 0 0 1 2.78 6.723v1.475a6.861 6.861 0 0 1-2.004 4.847 6.838 6.838 0 0 1-4.84 2.008H83.22a6.834 6.834 0 0 1-4.839-2.008 6.854 6.854 0 0 1-2.004-4.847Z" fill="#7247FF"/><path d="M85.87 26.094c3.992 0 7.23-3.242 7.23-7.241 0-4-3.238-7.242-7.23-7.242-3.993 0-7.23 3.242-7.23 7.242s3.237 7.241 7.23 7.241Z" fill="#F4F7FA"/><path fill-rule="evenodd" clip-rule="evenodd" d="M85.87 25.594c3.715 0 6.73-3.017 6.73-6.741 0-3.724-3.015-6.742-6.73-6.742-3.717 0-6.73 3.018-6.73 6.742s3.013 6.741 6.73 6.741Zm7.23-6.741c0 4-3.238 7.241-7.23 7.241-3.993 0-7.23-3.242-7.23-7.241 0-4 3.237-7.242 7.23-7.242 3.992 0 7.23 3.242 7.23 7.242Z" fill="#000"/><path d="M46.545 43.74a2.759 2.759 0 0 1 4.203.495l6.198-1.174 1.63 3.598-8.775 1.535a2.77 2.77 0 0 1-3.603-.778 2.783 2.783 0 0 1 .347-3.676Z" fill="#F4F7FA"/><path fill-rule="evenodd" clip-rule="evenodd" d="M46.545 43.74a2.774 2.774 0 0 0-.87 1.772 2.783 2.783 0 0 0 2.177 2.979 2.77 2.77 0 0 0 1.95-.297l8.775-1.535-1.631-3.598-6.198 1.174a2.764 2.764 0 0 0-1.986-1.23 2.757 2.757 0 0 0-2.217.735Zm.318.388a2.282 2.282 0 0 0 1.095 3.874 2.271 2.271 0 0 0 1.597-.243l.075-.042 8.225-1.44-1.202-2.652-6.14 1.163-.183-.28a2.262 2.262 0 0 0-2.6-.907 2.255 2.255 0 0 0-.842.503l-.025.024Z" fill="#000"/><path d="m80.233 30.654.081.123-10.163 6.706-17.148 5.485a1.034 1.034 0 0 0-.71 1.102l.374 3.227a1.033 1.033 0 0 0 1.239.89l16.14-3.465a5.827 5.827 0 0 0 2.17-.956l11.417-8.137a2.953 2.953 0 0 0 1.224-2.638 2.944 2.944 0 0 0-1.642-2.403 2.931 2.931 0 0 0-2.901.19l-.081-.124Zm15.977 80.825a1.332 1.332 0 0 1-1.217-.796L79.566 72.502a.442.442 0 0 0-.827.046L66.153 109.72a1.33 1.33 0 0 1-.682.801 1.322 1.322 0 0 1-1.05.052l-4.22-1.586a1.317 1.317 0 0 1-.853-1.092c-1.898-16.567 14.66-58.386 14.827-58.806l.046-.117 15.094 3.344.031.035c6.022 6.58 10.972 48.082 11.903 56.335a1.318 1.318 0 0 1-.875 1.399l-3.725 1.32c-.14.05-.289.075-.438.075Z" fill="#F4F7FA"/><path fill-rule="evenodd" clip-rule="evenodd" d="M96.21 110.979a.806.806 0 0 0 .272-.046l3.727-1.321a.816.816 0 0 0 .543-.869v-.002c-.465-4.123-1.934-16.55-4.038-28.766-1.052-6.109-2.262-12.154-3.582-17.078-.66-2.462-1.345-4.635-2.048-6.39-.683-1.705-1.367-2.974-2.034-3.738l-14.52-3.217c-.692 1.761-4.487 11.556-8.066 23.033-1.959 6.28-3.85 13.057-5.134 19.291-1.286 6.247-1.95 11.902-1.485 15.961a.826.826 0 0 0 .53.681h.002l4.22 1.585a.824.824 0 0 0 1.078-.531l.002-.006 12.586-37.172a.942.942 0 0 1 1.761-.092l.005.012 15.424 38.174a.828.828 0 0 0 .758.491Zm-1.217-.296L79.566 72.502a.442.442 0 0 0-.827.046L66.153 109.72a1.33 1.33 0 0 1-.682.801 1.322 1.322 0 0 1-1.05.052l-4.22-1.586a1.317 1.317 0 0 1-.853-1.092c-1.898-16.567 14.66-58.386 14.827-58.806l.046-.117 15.094 3.344.031.035c6.022 6.58 10.972 48.082 11.903 56.335a1.318 1.318 0 0 1-.875 1.399l-3.725 1.32a1.332 1.332 0 0 1-1.656-.721Z" fill="#000"/><path d="M83.206 53.662c-3.657 0-7.734-.73-8.989-3.745l-.029-.07.04-.063c.99-1.628 2.299-4.405 1.595-4.927-1.386-1.026-2.058-2.715-1.999-5.02.13-5.001 3.533-9.442 8.468-11.05a37.517 37.517 0 0 1 4.198-1.083 7.135 7.135 0 0 1 5.926 1.466 7.228 7.228 0 0 1 2.678 5.563c.051 5.346-.77 12.791-4.979 17.903a1.309 1.309 0 0 1-.775.451 35.918 35.918 0 0 1-6.134.575Z" fill="#F4F7FA"/><path fill-rule="evenodd" clip-rule="evenodd" d="M74.217 49.917c1.255 3.014 5.332 3.745 8.99 3.745a35.918 35.918 0 0 0 6.133-.575c.304-.054.578-.214.775-.451 4.209-5.112 5.03-12.557 4.979-17.903a7.24 7.24 0 0 0-2.678-5.563 7.14 7.14 0 0 0-5.926-1.466c-1.42.28-2.82.641-4.198 1.083-4.935 1.608-8.338 6.049-8.468 11.05-.06 2.305.613 3.994 2 5.02.703.522-.606 3.299-1.597 4.927l-.039.064.03.07Zm.533-.032c.483-.813 1.025-1.865 1.379-2.803.187-.496.332-.989.378-1.41a1.94 1.94 0 0 0-.022-.632.983.983 0 0 0-.364-.584c-1.213-.899-1.854-2.404-1.797-4.605.124-4.779 3.376-9.04 8.117-10.587l.003-.001a37.002 37.002 0 0 1 4.143-1.069h.002a6.636 6.636 0 0 1 5.511 1.363l.001.001a6.73 6.73 0 0 1 2.493 5.18c.051 5.322-.774 12.611-4.864 17.579a.809.809 0 0 1-.478.278 35.418 35.418 0 0 1-6.048.567c-1.802 0-3.673-.181-5.231-.715-1.493-.512-2.644-1.326-3.223-2.562Z" fill="#000"/><path d="M81.846 53.462a2.817 2.817 0 0 1 3.437-1.965c.146.04.289.093.427.158l4.705-4.29 3.273 2.209-6.73 5.964a2.81 2.81 0 0 1-3.183 1.353 2.763 2.763 0 0 1-2.016-2.346 2.774 2.774 0 0 1 .087-1.084Z" fill="#F4F7FA"/><path fill-rule="evenodd" clip-rule="evenodd" d="M85.71 51.655a2.768 2.768 0 0 0-.427-.158 2.81 2.81 0 0 0-3.437 1.965 2.774 2.774 0 0 0 .959 2.941 2.763 2.763 0 0 0 2.794.36 2.81 2.81 0 0 0 1.36-1.225l6.729-5.964-3.273-2.209-4.706 4.29ZM90.462 48 85.8 52.249l-.302-.141a2.274 2.274 0 0 0-.347-.13 2.309 2.309 0 0 0-2.824 1.617l-.481-.133.48.136a2.274 2.274 0 0 0 1.58 2.81 2.303 2.303 0 0 0 2.615-1.112l.041-.075 6.312-5.594L90.462 48Z" fill="#000"/><path d="M89.67 53.516a1.32 1.32 0 0 1-.838-.3l-1.855-1.518a1.326 1.326 0 0 1 .032-2.08l7.783-5.98a.443.443 0 0 0 .083-.617l-4.804-6.361a3.921 3.921 0 0 1 .261-5.046 3.897 3.897 0 0 1 5.266-.422l.03.032 5.017 7.195a4.482 4.482 0 0 1-.106 7.13l-10.08 7.707c-.229.169-.505.26-.79.26Z" fill="#F4F7FA"/><path fill-rule="evenodd" clip-rule="evenodd" d="M89.67 53.016a.826.826 0 0 0 .488-.16l10.084-7.71a3.982 3.982 0 0 0 .094-6.334l-.059-.046-5.028-7.212a3.395 3.395 0 0 0-4.55.399l-.366-.34.365.342a3.42 3.42 0 0 0-.228 4.403l4.805 6.363a.944.944 0 0 1-.178 1.313v.001l-7.784 5.98a.827.827 0 0 0-.02 1.296l1.856 1.519c.147.12.331.186.52.186Zm-2.694-1.318a1.326 1.326 0 0 1 .033-2.08l7.783-5.98a.443.443 0 0 0 .083-.617l-4.804-6.361a3.921 3.921 0 0 1 .262-5.046 3.897 3.897 0 0 1 5.265-.422l.03.032 5.017 7.195a4.482 4.482 0 0 1-.106 7.13l-10.08 7.707a1.325 1.325 0 0 1-1.627-.04l-1.855-1.518Z" fill="#000"/><path d="M79.466 16.815v-3.593l6.403-2.8 6.107 2.8v3.593a.59.59 0 0 1-.59.59H80.055a.588.588 0 0 1-.588-.59Z" fill="#7247FF"/><path d="M85.575 8.226c-.941-3.019 1.036-6.478 3.96-7.673 2.923-1.195 6.42-.36 8.887 1.614 2.467 1.974 3.998 4.931 4.809 7.988.81 3.056.964 6.243 1.114 9.402 3.592.661 6.035 4.928 4.791 8.367-1.244 3.44-5.85 5.148-9.03 3.35-3.18-1.797-4.102-6.63-1.806-9.474a7.787 7.787 0 0 0 .172-9.554 7.752 7.752 0 0 0-9.205-2.508c-1.77.742-3.992-1.185-3.692-1.512Z" fill="#7247FF"/><path d="M45.217 29.802c-4.3-.028-8.547-.96-12.465-2.734a1.318 1.318 0 0 1-.781-1.21V15.121a1.33 1.33 0 0 1 1.325-1.327h23.842a1.325 1.325 0 0 1 1.325 1.327v10.737a1.32 1.32 0 0 1-.78 1.21 30.701 30.701 0 0 1-12.466 2.734Z" fill="url(#c)"/><path d="M45.214 21.104c-.177 0-.352-.035-.515-.103l-18.907-7.99a1.325 1.325 0 0 1-.568-1.986c.152-.217.366-.383.613-.477l18.907-7.184c.305-.117.642-.116.946.002l18.654 7.184a1.324 1.324 0 0 1 .849 1.214 1.329 1.329 0 0 1-.804 1.244l-18.654 7.99c-.165.07-.342.106-.521.106Z" fill="url(#d)"/><path d="M34.179 27.799c.975 0 1.766-.792 1.766-1.77a1.767 1.767 0 1 0-3.532.001c0 .977.79 1.769 1.766 1.769Z" fill="#3F3D56"/><path opacity=".2" d="M64.453 11.874 45.8 19.864a1.176 1.176 0 0 1-.92.002l-18.907-7.99a1.156 1.156 0 0 1-.563-.495 1.18 1.18 0 0 0 .563 1.675l18.907 7.99a1.177 1.177 0 0 0 .92-.003l18.654-7.99a1.177 1.177 0 0 0 .558-1.672 1.157 1.157 0 0 1-.558.493Z" fill="#000"/><path d="M34.327 26.023a.294.294 0 0 0 .295-.295v-9.865l9.708-3.543a.294.294 0 0 0 .215-.5.294.294 0 0 0-.206-.09l-9.709 3.543a.576.576 0 0 0-.422.17.587.587 0 0 0-.175.42v9.865a.295.295 0 0 0 .294.295Z" fill="#3F3D56"/></g><defs><linearGradient id="b" x1="21.168" y1="120.292" x2="146.292" y2="122.901" gradientUnits="userSpaceOnUse"><stop stop-color="#4614E8"/><stop offset="1" stop-color="#BCA7FF"/></linearGradient><linearGradient id="c" x1="31.828" y1="14.578" x2="59.437" y2="14.899" gradientUnits="userSpaceOnUse"><stop stop-color="#4614E8"/><stop offset="1" stop-color="#BCA7FF"/></linearGradient><linearGradient id="d" x1="24.765" y1="4.15" x2="66.667" y2="4.813" gradientUnits="userSpaceOnUse"><stop stop-color="#4614E8"/><stop offset="1" stop-color="#BCA7FF"/></linearGradient><clipPath id="a"><path fill="#fff" d="M0 0h219v159H0z"/></clipPath></defs></svg>