<svg width="186" height="127" fill="none" xmlns="http://www.w3.org/2000/svg"><g clip-path="url(#a)"><path d="M182.674 115.49c-1.273 4.411-4.988 7.498-8.864 10.121-.541.366-1.083.724-1.624 1.074l-.012.006-.076.05-.334.216.06.027s.06.032-.005.005c-.02-.008-.04-.015-.059-.024-2.252-.907-4.544-1.881-6.269-3.581-1.791-1.765-2.837-4.533-1.867-6.852.127-.304.288-.592.479-.86.079-.113.164-.22.252-.326a4.747 4.747 0 0 1 6.751-.607 4.746 4.746 0 0 1 1.407 2.049c.284-2.649-1.902-4.868-4.006-6.505-2.105-1.636-4.496-3.418-4.903-6.052-.228-1.466.283-2.886 1.212-4.027l.087-.103a6.934 6.934 0 0 1 4.455-2.388c3.228-.335 6.363 1.372 8.707 3.614 3.774 3.607 6.056 9.148 4.609 14.163Z" fill="#F2F2F2"/><path d="M176.608 109.721a11.76 11.76 0 0 1 1.411 3.111c.268.983.387 2.001.354 3.019a13.093 13.093 0 0 1-1.717 5.961 18.852 18.852 0 0 1-2.846 3.799c-.541.367-1.083.725-1.624 1.074l-.012.007a217.612 217.612 0 0 0-.41.265s.12.059.055.033l-.059-.024a10.416 10.416 0 0 0-3.338-8.972 10.52 10.52 0 0 0-4.318-2.322c.078-.112.163-.22.251-.325.619.173 1.221.401 1.8.68a10.69 10.69 0 0 1 4.832 4.654 10.906 10.906 0 0 1 1.189 5.99c.093-.084.186-.169.275-.254 1.711-1.594 3.231-3.423 4.26-5.534a12.178 12.178 0 0 0 1.277-5.765c-.084-2.178-.953-4.195-2.21-5.951a25.5 25.5 0 0 0-4.839-4.983 29.035 29.035 0 0 0-6.018-3.712.208.208 0 0 1-.105-.267.175.175 0 0 1 .087-.103.175.175 0 0 1 .068-.013.153.153 0 0 1 .066.019 29.32 29.32 0 0 1 6.852 4.369c1.784 1.52 3.464 3.256 4.719 5.244Z" fill="#fff"/><path d="M155.094 0H2.196A2.2 2.2 0 0 0 0 2.194v103.513a2.194 2.194 0 0 0 2.196 2.194h152.898a2.186 2.186 0 0 0 1.718-.83c.131-.16.237-.339.314-.531.111-.264.167-.547.167-.833V2.194A2.199 2.199 0 0 0 155.094 0Zm1.571 105.707c.001.306-.09.605-.259.861a1.632 1.632 0 0 1-.595.533 1.555 1.555 0 0 1-.717.174H2.196a1.574 1.574 0 0 1-1.569-1.568V2.194A1.569 1.569 0 0 1 2.197.627h152.897a1.572 1.572 0 0 1 1.571 1.567v103.513Z" fill="#3F3D56"/><path d="M156.978 8.795H.313v.628h156.665v-.628Z" fill="#3F3D56"/><path fill-rule="evenodd" clip-rule="evenodd" d="M5.65 6.087a1.383 1.383 0 1 0 .002-2.765 1.383 1.383 0 0 0-.002 2.765Zm1.884-1.382a1.883 1.883 0 1 1-3.766-.001 1.883 1.883 0 0 1 3.766.001Zm3.532 1.382a1.383 1.383 0 1 0 .002-2.766 1.383 1.383 0 0 0-.002 2.766Zm1.884-1.382a1.883 1.883 0 1 1-3.766-.002 1.883 1.883 0 0 1 3.766.002Zm3.532 1.382a1.383 1.383 0 1 0 .002-2.766 1.383 1.383 0 0 0-.002 2.766Zm1.884-1.382a1.883 1.883 0 1 1-3.766-.002 1.883 1.883 0 0 1 3.766.002Z" fill="#000"/><path d="M101.464 44.131a5.085 5.085 0 0 1-4.695-3.134 5.074 5.074 0 0 1 3.704-6.922 5.086 5.086 0 0 1 5.217 2.158c.558.835.856 1.817.856 2.821a5.077 5.077 0 0 1-1.49 3.588 5.09 5.09 0 0 1-3.592 1.49Zm0-9.673a4.604 4.604 0 0 0-4.25 2.837 4.593 4.593 0 0 0 3.353 6.267 4.604 4.604 0 0 0 4.722-1.955 4.588 4.588 0 0 0-.573-5.801 4.61 4.61 0 0 0-3.252-1.348Z" fill="#6C63FF"/><path d="M100.985 40.899a.501.501 0 0 1-.302-.1l-.006-.004-1.138-.87a.505.505 0 1 1 .616-.801l.737.564 1.741-2.27a.505.505 0 0 1 .708-.093h.001l-.011.015.011-.015a.504.504 0 0 1 .093.708l-2.048 2.668a.499.499 0 0 1-.402.197v.001Z" fill="#6C63FF"/><path d="M116.005 44.131a5.077 5.077 0 1 1 1.944-9.768 5.078 5.078 0 0 1 3.137 4.691 5.088 5.088 0 0 1-5.081 5.077Zm0-9.673a4.603 4.603 0 0 0-4.25 2.837 4.59 4.59 0 0 0 .997 5.009 4.6 4.6 0 0 0 7.853-3.25 4.603 4.603 0 0 0-4.6-4.596Z" fill="#E6E6E6"/><path d="M117.834 40.811a.326.326 0 0 1-.46 0l-1.22-1.218a.145.145 0 0 0-.205 0l-1.219 1.218a.326.326 0 0 1-.555-.23c0-.086.034-.169.095-.23l1.219-1.218a.142.142 0 0 0 .043-.102.142.142 0 0 0-.043-.103l-1.219-1.218a.325.325 0 1 1 .46-.46l1.219 1.219a.144.144 0 0 0 .205 0l1.22-1.218a.324.324 0 0 1 .46 0 .324.324 0 0 1 0 .46l-1.22 1.217a.145.145 0 0 0 0 .205l1.22 1.218a.324.324 0 0 1 0 .46Z" fill="#E6E6E6"/><path d="M101.464 60.25a5.084 5.084 0 0 1-4.695-3.134 5.074 5.074 0 0 1 3.704-6.923 5.085 5.085 0 0 1 5.217 2.16c.558.834.856 1.816.856 2.82a5.077 5.077 0 0 1-1.49 3.588 5.09 5.09 0 0 1-3.592 1.489Zm0-9.673a4.604 4.604 0 0 0-4.25 2.837 4.592 4.592 0 0 0 3.353 6.266 4.605 4.605 0 0 0 4.722-1.954 4.588 4.588 0 0 0-.573-5.801 4.61 4.61 0 0 0-3.252-1.348Z" fill="#6C63FF"/><path d="M100.985 57.018a.501.501 0 0 1-.302-.1l-.006-.005-1.138-.87a.505.505 0 1 1 .616-.8l.737.564 1.741-2.27a.505.505 0 0 1 .708-.093h.001l-.011.015.011-.015a.504.504 0 0 1 .093.708l-2.048 2.668a.5.5 0 0 1-.402.197Z" fill="#6C63FF"/><path d="M116.005 60.25a5.077 5.077 0 1 1 1.944-9.767 5.077 5.077 0 0 1 3.137 4.69 5.088 5.088 0 0 1-5.081 5.077Zm0-9.673a4.602 4.602 0 0 0-4.25 2.837 4.589 4.589 0 0 0 .997 5.008 4.601 4.601 0 0 0 7.853-3.25 4.603 4.603 0 0 0-4.6-4.595Z" fill="#E6E6E6"/><path d="M117.834 56.93a.326.326 0 0 1-.46 0l-1.22-1.22a.145.145 0 0 0-.205 0l-1.219 1.22a.326.326 0 0 1-.46-.46l1.219-1.219a.146.146 0 0 0 .043-.102.146.146 0 0 0-.043-.102l-1.219-1.219a.324.324 0 0 1 .23-.555c.086 0 .169.035.23.096l1.219 1.218a.145.145 0 0 0 .205 0l1.22-1.218a.324.324 0 0 1 .555.23.325.325 0 0 1-.095.23l-1.22 1.218a.145.145 0 0 0 0 .204l1.22 1.219a.325.325 0 0 1 0 .46Zm-16.37 19.438a5.085 5.085 0 0 1-4.695-3.134 5.074 5.074 0 0 1 3.704-6.922 5.086 5.086 0 0 1 5.217 2.159c.558.835.856 1.816.856 2.82a5.077 5.077 0 0 1-1.49 3.589 5.09 5.09 0 0 1-3.592 1.488Zm0-9.672a4.604 4.604 0 0 0-4.25 2.837 4.593 4.593 0 0 0 3.353 6.266 4.604 4.604 0 0 0 4.722-1.954 4.588 4.588 0 0 0-.573-5.802 4.61 4.61 0 0 0-3.252-1.348Z" fill="#E6E6E6"/><path d="M100.985 73.136a.503.503 0 0 1-.302-.1l-.006-.004-1.138-.87a.505.505 0 1 1 .616-.801l.737.564 1.741-2.27a.505.505 0 0 1 .708-.093h.001l-.011.015.011-.015a.504.504 0 0 1 .093.708l-2.048 2.669a.5.5 0 0 1-.402.197Zm15.02 3.232a5.077 5.077 0 1 1 1.944-9.768 5.078 5.078 0 0 1 3.137 4.691 5.088 5.088 0 0 1-5.081 5.077Zm0-9.672a4.603 4.603 0 0 0-4.25 2.837 4.59 4.59 0 0 0 .997 5.008 4.6 4.6 0 0 0 7.853-3.25 4.603 4.603 0 0 0-4.6-4.596Z" fill="#E6E6E6"/><path d="M117.834 73.048a.326.326 0 0 1-.46 0l-1.22-1.219a.144.144 0 0 0-.205 0l-1.219 1.219a.326.326 0 0 1-.555-.23c0-.086.034-.169.095-.23l1.219-1.218a.146.146 0 0 0 .043-.103.146.146 0 0 0-.043-.102l-1.219-1.218a.324.324 0 1 1 .46-.46l1.219 1.219a.145.145 0 0 0 .205 0l1.22-1.219a.324.324 0 0 1 .554.23.324.324 0 0 1-.094.23l-1.22 1.218a.145.145 0 0 0 0 .205l1.22 1.218a.325.325 0 0 1 0 .46Z" fill="#E6E6E6"/><path d="M185.748 126.926h-95.97a.253.253 0 0 1-.252-.252.25.25 0 0 1 .252-.252h95.97a.252.252 0 0 1 0 .504Z" fill="#3F3D56"/><path d="M103.441 58.244a2.534 2.534 0 0 0 3.674-1.257l8.997.3-2.444-3.985-8.168.327a2.548 2.548 0 0 0-3.082 1.394 2.541 2.541 0 0 0 1.023 3.222Z" fill="#F4F7FA"/><path fill-rule="evenodd" clip-rule="evenodd" d="m103.672 57.8.027.016a2.041 2.041 0 0 0 1.711.184 2.035 2.035 0 0 0 1.239-1.192l.128-.332 8.423.28-1.805-2.943-7.961.319-.083-.026a2.047 2.047 0 0 0-2.558 2.57c.149.468.461.867.879 1.124Zm-.731.055c.149.149.316.28.5.39a2.526 2.526 0 0 0 2.131.228 2.54 2.54 0 0 0 1.543-1.486l8.997.3-2.444-3.985-8.168.327a2.548 2.548 0 0 0-3.082 1.394 2.538 2.538 0 0 0 .523 2.832Z" fill="#000"/><path d="M154.165 77.712a2.525 2.525 0 0 0 .598-2.056 2.522 2.522 0 0 0-1.193-1.778l1.87-8.797-4.355 1.706-1.108 8.092a2.543 2.543 0 0 0 2.595 3.69 2.548 2.548 0 0 0 1.593-.857Z" fill="#F4F7FA"/><path fill-rule="evenodd" clip-rule="evenodd" d="m153.007 74.122 1.751-8.237-3.217 1.26-1.081 7.887-.039.077a2.04 2.04 0 0 0 .67 2.631 2.05 2.05 0 0 0 2.696-.355l.378.327a2.548 2.548 0 0 1-4.394-1.037 2.543 2.543 0 0 1 .206-1.796l1.108-8.092 4.355-1.706-1.87 8.797a2.527 2.527 0 0 1 1.122 2.873 2.525 2.525 0 0 1-.527.961l-.376-.33a2.03 2.03 0 0 0-.478-3.076l-.304-.184Z" fill="#000"/><path d="M133.091 123.558h-3.088l-1.469-11.901h4.557v11.901Z" fill="#F4F7FA"/><path fill-rule="evenodd" clip-rule="evenodd" d="M133.091 123.558h-3.088l-1.469-11.901h4.557v11.901Zm-.5-11.401h-3.492l1.346 10.901h2.146v-10.901Z" fill="#000"/><path d="M133.878 126.549h-9.957v-.126a3.865 3.865 0 0 1 1.135-2.738 3.878 3.878 0 0 1 2.741-1.134h6.081v3.998Z" fill="#F4F7FA"/><path fill-rule="evenodd" clip-rule="evenodd" d="M127.797 122.551a3.878 3.878 0 0 0-3.858 3.498 3.747 3.747 0 0 0-.018.368v.132h9.957v-3.998h-6.081Zm0 .5c-.444 0-.883.087-1.292.257a3.36 3.36 0 0 0-1.827 1.825 3.34 3.34 0 0 0-.236.916h8.936v-2.998h-5.581Z" fill="#000"/><path d="M148.204 123.558h-3.088l-1.469-11.901h4.558l-.001 11.901Z" fill="#F4F7FA"/><path fill-rule="evenodd" clip-rule="evenodd" d="M148.204 123.558h-3.088l-1.469-11.901h4.558l-.001 11.901Zm-.499-11.401h-3.493l1.346 10.901h2.146l.001-10.901Z" fill="#000"/><path d="M148.992 126.549h-9.958v-.126a3.883 3.883 0 0 1 1.135-2.738 3.87 3.87 0 0 1 2.741-1.134h6.082v3.998Z" fill="#F4F7FA"/><path fill-rule="evenodd" clip-rule="evenodd" d="M142.91 122.551a3.87 3.87 0 0 0-2.741 1.134 3.88 3.88 0 0 0-1.135 2.732v.132h9.958v-3.998h-6.082Zm0 .5a3.373 3.373 0 0 0-3.355 2.998h8.937v-2.998h-5.582Z" fill="#000"/><path d="m133.412 117.344-4.371-.175a1.14 1.14 0 0 1-1.088-1.166l1.232-40.36.08-.03c7.662-2.769 14-2.56 19.377.64l.06.035.738 39.31a1.125 1.125 0 0 1-.324.815 1.143 1.143 0 0 1-.809.339h-3.686a1.139 1.139 0 0 1-1.113-.914l-5.021-25.52a.378.378 0 0 0-.746.027l-3.158 26.004a1.138 1.138 0 0 1-1.126.996l-.045-.001Z" fill="#F4F7FA"/><path fill-rule="evenodd" clip-rule="evenodd" d="m129.265 75.613-.08.03-1.232 40.36a1.14 1.14 0 0 0 1.088 1.166l4.371.175.045.001a1.143 1.143 0 0 0 1.126-.996l3.158-26.004a.38.38 0 0 1 .361-.332.38.38 0 0 1 .385.304l5.021 25.521a1.137 1.137 0 0 0 1.113.914h3.686a1.143 1.143 0 0 0 .809-.339 1.122 1.122 0 0 0 .324-.815m-5.441.143a.63.63 0 0 0 .623.511h-.001v.499l.001-.499h3.685a.641.641 0 0 0 .452-.19.622.622 0 0 0 .181-.454v-.001l-.732-39.03.178.105m.234-.392-.418.008.006.28c-5.119-2.97-11.162-3.193-18.534-.58l-1.221 40.019a.638.638 0 0 0 .609.653l4.367.174h.001a.638.638 0 0 0 .657-.557v-.001l3.158-26m6.754 25.454-5.021-25.519Zm4.621-39.45.022-.038-.022.038m-.233.392.059.036.256-.43-.082.002" fill="#000"/><path d="M137.665 40.247a6.184 6.184 0 0 0 6.187-6.181 6.184 6.184 0 0 0-6.187-6.181 6.184 6.184 0 0 0-6.186 6.18 6.184 6.184 0 0 0 6.186 6.182Z" fill="#F4F7FA"/><path fill-rule="evenodd" clip-rule="evenodd" d="M137.665 39.747a5.684 5.684 0 0 0 5.687-5.681 5.684 5.684 0 0 0-5.687-5.681 5.683 5.683 0 0 0-5.686 5.68 5.683 5.683 0 0 0 5.686 5.682Zm6.187-5.681a6.184 6.184 0 0 1-6.187 6.18 6.184 6.184 0 0 1-6.186-6.18 6.184 6.184 0 0 1 6.186-6.181 6.184 6.184 0 0 1 6.187 6.18Z" fill="#000"/><path d="M108.58 56.783a1.129 1.129 0 0 1 0-.675l.641-2.052a1.134 1.134 0 0 1 1.032-.794l8.117-.359 13.168-6.744a3.656 3.656 0 0 1 3.902 1.123 3.65 3.65 0 0 1 .451 4.032 3.654 3.654 0 0 1-2.14 1.799l-8.07 4.676a11.69 11.69 0 0 1-8.11 1.358l-8.127-1.59a1.134 1.134 0 0 1-.864-.774Z" fill="#F4F7FA"/><path fill-rule="evenodd" clip-rule="evenodd" d="M109.058 56.635a.64.64 0 0 0 .482.431l8.127 1.59a11.19 11.19 0 0 0 7.763-1.3l8.118-4.703.052-.017a3.151 3.151 0 0 0 2.053-3.955 3.158 3.158 0 0 0-1.557-1.843 3.154 3.154 0 0 0-2.368-.214l-13.227 6.774-8.225.363a.638.638 0 0 0-.578.444l-.641 2.052m1.196-2.995a1.135 1.135 0 0 0-1.032.794l-.641 2.052a1.129 1.129 0 0 0 .864 1.449l8.127 1.59a11.69 11.69 0 0 0 8.11-1.358l8.07-4.676a3.654 3.654 0 0 0 2.536-3.168 3.65 3.65 0 0 0-4.749-3.786l-13.168 6.744-8.117.359Zm-1.195 3.373a.633.633 0 0 1-.001-.378Z" fill="#000"/><path d="M153.901 72.017a1.137 1.137 0 0 1-.676.03l-2.079-.553a1.14 1.14 0 0 1-.838-.996l-.705-8.087-7.305-12.857a3.648 3.648 0 0 1 3.584-4.901 3.654 3.654 0 0 1 3.275 2.396l5.021 7.856a11.66 11.66 0 0 1 1.703 8.037l-1.244 8.18a1.133 1.133 0 0 1-.736.895Z" fill="#F4F7FA"/><path fill-rule="evenodd" clip-rule="evenodd" d="m149.603 62.411.705 8.087a1.137 1.137 0 0 0 .838.996l2.079.553a1.137 1.137 0 0 0 1.245-.483c.086-.134.143-.284.167-.442l1.244-8.18a11.66 11.66 0 0 0-1.703-8.037l-5.021-7.856a3.646 3.646 0 0 0-4.684-2.178 3.648 3.648 0 0 0-2.175 4.683l7.305 12.857Zm-6.849-13.066a3.149 3.149 0 0 1 3.106-4.192 3.152 3.152 0 0 1 2.828 2.068l.018.051 5.051 7.903a11.163 11.163 0 0 1 1.63 7.692l-1.244 8.18a.645.645 0 0 1-.279.434.635.635 0 0 1-.511.082m0 0-2.078-.552a.633.633 0 0 1-.469-.557l-.714-8.195-7.338-12.914" fill="#000"/><path d="M130.898 45.043a10.542 10.542 0 0 1 8.757-3.391 10.515 10.515 0 0 1 7.597 4.19 10.657 10.657 0 0 1 1.896 8.592 33.284 33.284 0 0 0 .88 17.082l1.66 5.148a1.137 1.137 0 0 1-.145.99 1.134 1.134 0 0 1-.873.488l-8.485.456-2.171-3.747v3.863l-10.313.554a1.133 1.133 0 0 1-1.191-1.222l1.166-14.44-1.462-9.808a10.586 10.586 0 0 1 2.684-8.755Z" fill="#F4F7FA"/><path fill-rule="evenodd" clip-rule="evenodd" d="M139.315 42.13a10.046 10.046 0 0 0-8.047 3.25l-.37-.337a10.542 10.542 0 0 1 8.757-3.391 10.515 10.515 0 0 1 7.597 4.19 10.657 10.657 0 0 1 1.896 8.592 33.284 33.284 0 0 0 .88 17.082l1.66 5.148a1.137 1.137 0 0 1-.145.99 1.134 1.134 0 0 1-.873.488l-8.485.456-2.171-3.747v3.863l-10.313.554a1.133 1.133 0 0 1-1.191-1.222l1.166-14.44-1.462-9.808a10.586 10.586 0 0 1 2.684-8.755l.368.339a10.093 10.093 0 0 0-2.558 8.342l1.471 9.865-1.17 14.498a.64.64 0 0 0 .165.48.645.645 0 0 0 .466.203m9.874-.53v-5.25l2.95 5.092 8.179-.44a.637.637 0 0 0 .593-.539.628.628 0 0 0-.024-.285l-1.66-5.15a33.792 33.792 0 0 1-.894-17.338 10.151 10.151 0 0 0-1.806-8.19 10.008 10.008 0 0 0-7.227-3.989h-.009c-.1-.008-.201-.016-.301-.022m.199 36.111-9.84.529h-.003l-.031.001" fill="#000"/><path d="M141.965 39.967c-.573.329-2.837.547-2.998-.093l-.004-.014c-.112-.47-.019-.959.013-1.44.033-.482-.014-1.01-.343-1.364-.611-.66-1.699-.31-2.584-.477a2.18 2.18 0 0 1-1.697-2.328c.012-.1.032-.2.054-.3a1.676 1.676 0 0 0-.987-1.905 1.68 1.68 0 0 0-.758-.13c-.893.052-1.858.322-2.597-.34-.572-.51-.712-1.842-.461-2.567.423-1.217 3.127-1.855 4.308-2.205a10.243 10.243 0 0 1 8.673 1.422c.746.525 1.442 1.185 1.76 2.04.318.854.165 1.933-.552 2.497a4.613 4.613 0 0 1 1.07 4.48c-.355 1.14-2.044 2.234-2.897 2.724Z" fill="#7247FF"/><path d="M56.58 40.284H16.968a1.927 1.927 0 0 1-1.925-1.925 1.923 1.923 0 0 1 1.925-1.924H56.58a1.927 1.927 0 0 1 1.924 1.924 1.924 1.924 0 0 1-1.924 1.925Z" fill="#6C63FF"/><path d="M56.58 40.284H16.968a1.927 1.927 0 0 1-1.925-1.925 1.923 1.923 0 0 1 1.925-1.924H56.58a1.927 1.927 0 0 1 1.924 1.924 1.924 1.924 0 0 1-1.924 1.925Z" fill="url(#b)"/><path d="M81.036 41.925h-68.01a.252.252 0 1 1 0-.503h68.01a.252.252 0 1 1 0 .503Z" fill="#3F3D56"/><path d="M56.58 56.402H16.968a1.927 1.927 0 0 1-1.927-1.924 1.924 1.924 0 0 1 1.927-1.925H56.58a1.927 1.927 0 0 1 1.924 1.925 1.924 1.924 0 0 1-1.924 1.924Z" fill="#6C63FF"/><path d="M56.58 56.402H16.968a1.927 1.927 0 0 1-1.927-1.924 1.924 1.924 0 0 1 1.927-1.925H56.58a1.927 1.927 0 0 1 1.924 1.925 1.924 1.924 0 0 1-1.924 1.924Z" fill="url(#c)"/><path d="M81.036 58.044h-68.01a.252.252 0 1 1 0-.503h68.01a.252.252 0 1 1 0 .503Z" fill="#3F3D56"/><path d="M56.58 72.521H16.968a1.927 1.927 0 0 1-1.927-1.924 1.923 1.923 0 0 1 1.927-1.925H56.58a1.927 1.927 0 0 1 1.924 1.925 1.924 1.924 0 0 1-1.924 1.924Z" fill="#F2F2F2"/><path d="M81.036 74.162h-68.01a.252.252 0 1 1 0-.503h68.01a.252.252 0 1 1 0 .503Z" fill="#3F3D56"/></g><defs><linearGradient id="b" x1="14.809" y1="36.623" x2="59.827" y2="40.187" gradientUnits="userSpaceOnUse"><stop stop-color="#4614E8"/><stop offset="1" stop-color="#BCA7FF"/></linearGradient><linearGradient id="c" x1="14.807" y1="52.742" x2="59.827" y2="56.306" gradientUnits="userSpaceOnUse"><stop stop-color="#4614E8"/><stop offset="1" stop-color="#BCA7FF"/></linearGradient><clipPath id="a"><path fill="#fff" d="M0 0h186v127H0z"/></clipPath></defs></svg>