<svg width="219" height="106" fill="none" xmlns="http://www.w3.org/2000/svg"><g clip-path="url(#a)"><path d="M29.796 84.747H194.5V1.36H29.796v83.388Z" fill="#fff"/><path d="M195.859 86.106H28.437V0H195.86v86.106ZM31.155 83.388h161.987V2.718H31.155v80.67Z" fill="#E5E5E5"/><path d="M101.667 19a5 5 0 0 1 5 5v18.303a5 5 0 0 1-5 5H65.528l-7.6 9.12.868-9.12a3.698 3.698 0 0 1-3.698-3.698V24a5 5 0 0 1 5-5h41.569Z" fill="url(#b)"/><path d="M131.564 20.68v18.146h26.376l4.873 5.847-.556-5.847h2.371V20.679h-33.064Z" fill="#F0F0F0"/><path d="M22.706 103.323h2.38l1.132-9.18h-3.512v9.18Z" fill="#F4F7FA"/><path fill-rule="evenodd" clip-rule="evenodd" d="m24.643 102.823 1.01-8.18h-2.447v8.18h1.438Zm-1.937-8.68h3.512l-1.132 9.18h-2.38v-9.18Z" fill="#000"/><path d="m22.099 102.547 4.686-.001a2.987 2.987 0 0 1 2.987 2.987v.097l-7.673.001v-3.084Z" fill="#F4F7FA"/><path fill-rule="evenodd" clip-rule="evenodd" d="m22.099 102.547 4.686-.001a2.988 2.988 0 0 1 2.987 2.983v.101l-7.673.001v-3.084Zm.5 2.584 6.64-.001a2.485 2.485 0 0 0-2.453-2.084l-4.187.001v2.084Z" fill="#000"/><path d="m51.296 103.245 2.311-.569-1.094-9.184-3.41.84 2.193 8.913Z" fill="#F4F7FA"/><path fill-rule="evenodd" clip-rule="evenodd" d="m53.059 102.297-1.397.343-1.954-7.942 2.376-.585.974 8.184Zm-.546-8.805 1.094 9.184-2.31.569-2.194-8.913 3.41-.84Z" fill="#000"/><path d="m50.521 102.636 4.551-1.12a2.984 2.984 0 0 1 3.614 2.186l.023.095-7.45 1.833-.738-2.994Z" fill="#F4F7FA"/><path fill-rule="evenodd" clip-rule="evenodd" d="m55.072 101.516-4.55 1.12.736 2.994 7.451-1.833-.023-.095-.002-.006a2.982 2.982 0 0 0-3.612-2.18Zm3 1.922a2.488 2.488 0 0 0-2.88-1.437l-4.066 1.001.498 2.023 6.448-1.587Z" fill="#000"/><path d="m21.243 101.135.494-2.53s.91-9.766 7.44-19.514l2.126-10.588s-.631-8.015 5.462-12.353l1.878-1.294 6.587.377 1.52 8.329 3.066 19.706s.79.074 1.087 2.353c.603.957.96 2.048 1.038 3.177 0 0 1.569 4.327 1.989 7.513l-.05 3.118-3.312 1.765-6.903-19.525-4.937-10.915s-2.377 7.69-6.017 14.279c0 0-4.985 10.792-5.981 12.984l-1.088 3.589-4.4-.471Z" fill="#F4F7FA"/><path fill-rule="evenodd" clip-rule="evenodd" d="m21.737 98.605-.494 2.53 4.4.471 1.087-3.589a5269.36 5269.36 0 0 1 5.981-12.984c2.98-5.392 5.112-11.523 5.788-13.571.15-.455.229-.708.229-.708l4.937 10.915 6.903 19.525 3.313-1.765.049-3.118c-.42-3.186-1.989-7.513-1.989-7.513a6.854 6.854 0 0 0-1.038-3.177c-.297-2.279-1.087-2.353-1.087-2.353L46.75 63.562l-1.521-8.329-6.587-.377-1.878 1.294c-6.093 4.338-5.462 12.353-5.462 12.353L29.177 79.09c-6.53 9.748-7.44 19.514-7.44 19.514Zm10.065-30.141.005.069-2.159 10.754-.055.083c-3.23 4.82-5.07 9.647-6.104 13.27a43.49 43.49 0 0 0-1.015 4.373 29.174 29.174 0 0 0-.228 1.536 14.27 14.27 0 0 0-.009.079l-.002.019v.004l-.003.026-.394 2.019 3.446.368.977-3.223.014-.03c.498-1.099 1.995-4.346 3.365-7.318l1.823-3.95.794-1.72.454.21-.454-.21.008-.016.009-.016c1.804-3.266 3.299-6.812 4.343-9.547a95.247 95.247 0 0 0 1.526-4.3l.08-.253.02-.064.005-.016.392-1.265 5.49 12.136 6.716 18.997 2.54-1.353.043-2.785c-.207-1.545-.69-3.376-1.13-4.838a57.965 57.965 0 0 0-.712-2.205h-.112l-.033-.466a6.354 6.354 0 0 0-.962-2.944l-.058-.094-.015-.108c-.142-1.093-.394-1.583-.554-1.79a.57.57 0 0 0-.137-.135l-.335-.031-3.123-20.085-1.45-7.935-6.022-.346-1.734 1.195c-2.913 2.075-4.23 5.035-4.816 7.51a16.97 16.97 0 0 0-.437 3.136 13.877 13.877 0 0 0-.002 1.18l.003.062.001.014v.003Z" fill="#000"/><path d="M43.264 38.096a4.708 4.708 0 1 0 0-9.415 4.708 4.708 0 0 0 0 9.415Z" fill="#FFB7B7"/><path d="M43.264 38.096a4.708 4.708 0 1 0 0-9.415 4.708 4.708 0 0 0 0 9.415Z" fill="#F4F7FA"/><path fill-rule="evenodd" clip-rule="evenodd" d="M43.264 37.596a4.208 4.208 0 1 0 0-8.415 4.208 4.208 0 0 0 0 8.415Zm4.707-4.207a4.708 4.708 0 1 1-9.415 0 4.708 4.708 0 0 1 9.415 0Z" fill="#000"/><path d="m36.779 56.2 1.554-3.883a17.461 17.461 0 0 1 .192-10.886l.297-.245c2.59-2.133 4.864-1.745 6.973.864.34.425.737.8 1.18 1.114.931.652 2.407 4.2.458 6.278l-1.559 9.097c.164 5.022-3.48 3.13-9.095-2.34Z" fill="#F4F7FA"/><path fill-rule="evenodd" clip-rule="evenodd" d="M38.333 52.318 36.779 56.2c5.615 5.47 9.26 7.36 9.095 2.339l1.56-9.097c1.948-2.079.472-5.626-.458-6.279a5.83 5.83 0 0 1-1.18-1.113c-2.11-2.61-4.384-2.997-6.974-.864l-.297.245a17.461 17.461 0 0 0-.192 10.887Zm.619-10.591a16.962 16.962 0 0 0-.142 10.443l.053.169-1.495 3.735c1.301 1.257 2.485 2.306 3.529 3.109 1.115.857 2.039 1.409 2.754 1.646.716.238 1.081.125 1.292-.106.265-.288.472-.934.431-2.168l-.001-.05 1.593-9.295.102-.11c.823-.877.95-2.092.726-3.235a5.68 5.68 0 0 0-.523-1.506c-.226-.43-.447-.691-.583-.786l-.001-.002a6.332 6.332 0 0 1-1.281-1.207c-1.014-1.254-2.006-1.896-2.984-2.029-.97-.131-2.05.222-3.282 1.237l-.188.155Z" fill="#000"/><path d="M59.061 50.92a1.724 1.724 0 0 0-2.575.592l-3.927-.305-.768 2.34 5.551.355a1.734 1.734 0 0 0 1.72-2.982Z" fill="#F4F7FA"/><path d="m55.302 54.717-11.19-2.089-3.639-6.102a2.6 2.6 0 0 1 4.89-1.763l1.706 4.72 8.85 1.465-.617 3.77Z" fill="#F4F7FA"/><path fill-rule="evenodd" clip-rule="evenodd" d="M45.363 44.763a2.6 2.6 0 0 0-4.89 1.763l3.64 6.102 11.189 2.09.616-3.77-8.849-1.465-1.706-4.72Zm9.528 9.369.453-2.772-8.645-1.431-1.807-4.996a2.1 2.1 0 0 0-3.963 1.38l3.497 5.865 10.465 1.954Z" fill="#000"/><path d="M34.872 32.357a4.516 4.516 0 1 0 0-9.033 4.516 4.516 0 0 0 0 9.033Z" fill="#7247FF"/><path d="M30.977 31.58a4.516 4.516 0 0 0 6.974-2.37 4.517 4.517 0 1 1-8.81-1.853 4.515 4.515 0 0 0 1.836 4.224Z" fill="#7247FF"/><path d="M48.8 31.585c-.788-1.411-1.09-2-2.107-2.86-.899-.758-2.004-.981-2.896-.262a5.34 5.34 0 0 0-7.45 4.591 5.342 5.342 0 1 0 10.672.312c0-.202-.012-.403-.036-.604.775-.109 1.042-1.068 1.817-1.177Z" fill="#7247FF"/><path d="M187.637 65.376a2.125 2.125 0 0 1 .84-1.598 2.132 2.132 0 0 1 1.764-.381l2.821-3.976 2.834 1.125-4.062 5.559a2.146 2.146 0 0 1-4.197-.729Z" fill="#F4F7FA"/><path fill-rule="evenodd" clip-rule="evenodd" d="m190.456 63.959-.326-.075a1.63 1.63 0 0 0-1.808.833 1.647 1.647 0 0 0-.186.683l-.499-.024a2.125 2.125 0 0 1 .84-1.598 2.132 2.132 0 0 1 1.764-.381l2.821-3.976 2.834 1.125-4.062 5.559a2.146 2.146 0 0 1-4.197-.729l.499.027a1.643 1.643 0 0 0 1.361 1.71 1.643 1.643 0 0 0 1.858-1.151l.024-.083 3.733-5.107-1.869-.741-2.787 3.928Z" fill="#000"/><path d="m190.731 61.956 5.016-8.436-2.043-5.45 2.783-7.422.103.043c.067.03 1.648.735 1.883 3.262l3.198 10.053-8.536 11.075-2.404-3.125Zm-27.24-31.014a2.133 2.133 0 0 1 1.772 2.75l3.745 3.12-1.341 2.739-5.227-4.48a2.146 2.146 0 0 1 1.051-4.13Z" fill="#F4F7FA"/><path fill-rule="evenodd" clip-rule="evenodd" d="m164.686 33.862.099-.319a1.636 1.636 0 0 0-.69-1.867 1.634 1.634 0 0 0-.666-.238l.062-.496a2.133 2.133 0 0 1 1.772 2.75l3.745 3.12-1.341 2.739-5.227-4.48a2.146 2.146 0 0 1 1.051-4.13l-.066.497a1.644 1.644 0 0 0-.806 3.165l.081.032 4.802 4.116.884-1.806-3.7-3.083Z" fill="#000"/><path d="m166.66 34.291 8.023 5.654 5.591-1.616 7.185 3.349-.052.099c-.034.065-.86 1.587-3.398 1.625l-10.269 2.412-10.381-9.368 3.301-2.154Zm14.68 68.749h-2.789l-1.326-10.759h4.116l-.001 10.759Z" fill="#F4F7FA"/><path fill-rule="evenodd" clip-rule="evenodd" d="m180.84 102.54.001-9.759h-3.051l1.203 9.759h1.847Zm-2.289.5h2.789l.001-10.759h-4.116l1.326 10.759Z" fill="#000"/><path d="M176.559 102.243h5.379v3.387h-8.766a3.39 3.39 0 0 1 3.387-3.387Z" fill="#F4F7FA"/><path fill-rule="evenodd" clip-rule="evenodd" d="M181.438 102.743h-4.879a2.893 2.893 0 0 0-2.667 1.782 2.85 2.85 0 0 0-.176.605h7.722v-2.387Zm-8.266 2.887a3.399 3.399 0 0 1 .992-2.395 3.396 3.396 0 0 1 2.395-.992h5.379v3.387h-8.766Z" fill="#000"/><path d="M192.488 103.04h-2.789l-1.327-10.759h4.116v10.759Z" fill="#F4F7FA"/><path fill-rule="evenodd" clip-rule="evenodd" d="M191.988 102.54v-9.759h-3.051l1.204 9.759h1.847Zm-2.289.5h2.789V92.281h-4.116l1.327 10.759Z" fill="#000"/><path d="M187.706 102.243h5.379v3.387h-8.765a3.389 3.389 0 0 1 2.09-3.129c.411-.17.852-.258 1.296-.258Z" fill="#F4F7FA"/><path fill-rule="evenodd" clip-rule="evenodd" d="M192.585 102.743h-4.879a2.884 2.884 0 0 0-2.667 1.782c-.08.195-.139.398-.176.605h7.722v-2.387Zm-8.265 2.887a3.349 3.349 0 0 1 .257-1.296 3.4 3.4 0 0 1 1.833-1.833c.411-.17.852-.258 1.296-.258h5.379v3.387h-8.765Z" fill="#000"/><path d="m193.48 63.77-.228 15.926-.227 20.931-5.005-.455-2.503-28.894-3.185 28.894h-5.167l-.52-29.122 1.82-6.37 15.015-.91Z" fill="#F4F7FA"/><path fill-rule="evenodd" clip-rule="evenodd" d="m193.252 79.696.228-15.926-15.015.91-1.82 6.37.52 29.122h5.167l3.185-28.894 2.503 28.894 5.005.455.227-20.931Zm-.721 20.384.221-20.391.22-15.388-14.124.856-1.702 5.959.51 28.556h4.228l3.136-28.45.995.013 2.467 28.477 4.049.368Z" fill="#000"/><path d="m177.966 64.776-.763-.033 3.542-19.511-1.45-5.898a1.29 1.29 0 0 1 .8-1.516l2.609-.979.922-2.535 7.272.784.179 1.981c.788.253 7.278 2.414 6.83 4.877-.442 2.431-3.051 10.08-3.184 10.467l-.457 10.968-.056.028c-.068.034-5.081 2.5-10.526 2.499a13.844 13.844 0 0 1-5.718-1.132Z" fill="#F4F7FA"/><path fill-rule="evenodd" clip-rule="evenodd" d="m180.745 45.231-3.542 19.512.763.033a13.844 13.844 0 0 0 5.718 1.132c5.445 0 10.458-2.465 10.526-2.499l.056-.028.457-10.968c.133-.388 2.742-8.036 3.184-10.467.448-2.462-6.042-4.624-6.83-4.877l-.179-1.981-7.272-.784-.922 2.535-2.609.979a1.289 1.289 0 0 0-.8 1.516l1.45 5.897Zm-.964-6.016 1.475 6-3.458 19.054.19.008-.022.5.198-.46a13.346 13.346 0 0 0 5.511 1.09h.009c2.652 0 5.213-.6 7.127-1.212a28.606 28.606 0 0 0 2.299-.842 20.924 20.924 0 0 0 .669-.293l.447-10.74.024-.069c.066-.192.75-2.198 1.473-4.457.727-2.275 1.478-4.76 1.692-5.937.068-.371-.111-.809-.627-1.321-.507-.502-1.25-.984-2.066-1.415-1.625-.859-3.411-1.452-3.798-1.576l-.315-.1-.172-1.904-6.475-.698-.867 2.384-2.825 1.059s.001 0 0 0a.79.79 0 0 0-.489.929Z" fill="#000"/><path d="M186.977 33.05a5.236 5.236 0 1 0 0-10.473 5.236 5.236 0 0 0 0 10.473Z" fill="#F4F7FA"/><path fill-rule="evenodd" clip-rule="evenodd" d="M186.977 32.55a4.736 4.736 0 1 0 0-9.473 4.736 4.736 0 0 0 0 9.473Zm5.236-4.737a5.236 5.236 0 1 1-10.473.001 5.236 5.236 0 0 1 10.473-.001Z" fill="#000"/><path d="M191.218 32.883c-.998 1.063-2.851.492-2.981-.96a1.826 1.826 0 0 1 .002-.34c.067-.643.439-1.227.35-1.906a.997.997 0 0 0-.183-.468c-.795-1.065-2.662.476-3.412-.488-.46-.59.08-1.521-.273-2.182-.466-.872-1.846-.442-2.712-.92-.963-.531-.906-2.009-.272-2.908.774-1.096 2.13-1.681 3.468-1.766 1.339-.084 2.669.278 3.919.765 1.42.554 2.829 1.319 3.703 2.568 1.062 1.518 1.165 3.56.633 5.336-.323 1.08-1.427 2.4-2.242 3.268Z" fill="#7247FF"/><path d="m134.486 101.593.778-2-7.348-3.954-1.148 2.954 7.718 3Z" fill="#F4F7FA"/><path fill-rule="evenodd" clip-rule="evenodd" d="m134.638 99.823-.437 1.123-6.786-2.638.762-1.96 6.461 3.475Zm-6.722-4.184 7.348 3.953-.778 2.001-7.718-3 1.148-2.954Z" fill="#000"/><path d="M138.654 96.373a2.695 2.695 0 0 0-3.488 1.535l-.524 1.35-.809 2.081-.198.511 2.593 1.009 2.507-6.454-.081-.032Z" fill="#F4F7FA"/><path fill-rule="evenodd" clip-rule="evenodd" d="m135.166 97.908-1.531 3.942 2.593 1.009 2.507-6.454-.081-.032a2.697 2.697 0 0 0-2.923.648 2.687 2.687 0 0 0-.565.887Zm2.908-1.182a2.182 2.182 0 0 0-1.281.15 2.197 2.197 0 0 0-1.16 1.213l-1.352 3.476 1.662.646 2.131-5.485Z" fill="#000"/><path d="m133.833 97.742-.338.898-.845 2.239-.02.056c-2.151.277-4.51-.265-6.691-1.107a27.228 27.228 0 0 1-2.561-1.143 37.362 37.362 0 0 1-3.219-1.844c-1.326-.851-2.147-1.49-2.147-1.49s-.216.195-.609.53a66.292 66.292 0 0 1-2.429 1.98c-.406.317-.841.65-1.307.996-3.432 2.546-7.837-4.248-7.837-4.248s1.239-.788 1.562-.942a516.526 516.526 0 0 0 5.603-2.69 107.427 107.427 0 0 0 2.756-1.39c2.372-1.262 5.32 1.127 5.32 1.127l12.762 7.028Z" fill="#F4F7FA"/><path fill-rule="evenodd" clip-rule="evenodd" d="m133.833 97.742-12.762-7.028s-2.948-2.39-5.32-1.126c-.67.355-1.668.855-2.756 1.389a516.526 516.526 0 0 1-5.603 2.69c-.2.095-.749.432-1.139.676-.242.15-.423.266-.423.266s.101.156.284.412c1.028 1.432 4.64 5.997 7.553 3.836.466-.347.901-.679 1.307-.996a66.292 66.292 0 0 0 2.429-1.98c.393-.335.609-.53.609-.53s.821.639 2.147 1.49a37.44 37.44 0 0 0 3.219 1.844c.834.425 1.688.806 2.561 1.143 2.181.842 4.54 1.384 6.691 1.107l.02-.056 1.183-3.137Zm-1.564 2.73c-1.955.178-4.107-.322-6.15-1.11a26.757 26.757 0 0 1-2.514-1.122l-.001-.001a36.765 36.765 0 0 1-5.143-3.176 47.695 47.695 0 0 1-.107-.08l-.027-.021-.006-.005-.001-.001-.332-.258-.311.281m14.592 5.493.758-2.009.185-.492-12.421-6.84-.034-.028-.005-.004-.021-.016a6.923 6.923 0 0 0-.431-.303 7.873 7.873 0 0 0-1.195-.642c-.986-.42-2.135-.633-3.119-.109-.678.36-1.682.863-2.771 1.397a513.144 513.144 0 0 1-5.609 2.693c-.13.062-.492.279-.854.502l-.214.133c.113.157.257.351.428.57a16.064 16.064 0 0 0 1.83 1.993c.742.669 1.551 1.225 2.347 1.473.773.24 1.519.19 2.226-.334.462-.345.895-.674 1.297-.99h.001a65.823 65.823 0 0 0 2.857-2.351l.115-.102.029-.026.007-.006.002-.002" fill="#000"/><path opacity=".14" d="m133.833 97.742-.338.898-.845 2.239-.02.056c-2.151.277-4.51-.265-6.691-1.107a27.228 27.228 0 0 1-2.561-1.143 37.362 37.362 0 0 1-3.219-1.844c-1.326-.851-2.147-1.49-2.147-1.49s-.216.195-.609.53a66.292 66.292 0 0 1-2.429 1.98c-.406.317-.841.65-1.307.996-3.432 2.546-7.837-4.248-7.837-4.248s1.239-.788 1.562-.942a516.526 516.526 0 0 0 5.603-2.69 107.427 107.427 0 0 0 2.756-1.39c2.372-1.262 5.32 1.127 5.32 1.127l12.762 7.028Z" fill="#F4F7FA"/><path opacity=".14" fill-rule="evenodd" clip-rule="evenodd" d="m133.833 97.742-12.762-7.028s-2.948-2.39-5.32-1.126c-.67.355-1.668.855-2.756 1.389a516.526 516.526 0 0 1-5.603 2.69c-.2.095-.749.432-1.139.676-.242.15-.423.266-.423.266s.101.156.284.412c1.028 1.432 4.64 5.997 7.553 3.836.466-.347.901-.679 1.307-.996a66.292 66.292 0 0 0 2.429-1.98c.393-.335.609-.53.609-.53s.821.639 2.147 1.49a37.44 37.44 0 0 0 3.219 1.844c.834.425 1.688.806 2.561 1.143 2.181.842 4.54 1.384 6.691 1.107l.02-.056 1.183-3.137Zm-1.564 2.73c-1.955.178-4.107-.322-6.15-1.11a26.757 26.757 0 0 1-2.514-1.122l-.001-.001a36.765 36.765 0 0 1-5.143-3.176 47.695 47.695 0 0 1-.107-.08l-.027-.021-.006-.005-.001-.001-.332-.258-.311.281m14.592 5.493.758-2.009.185-.492-12.421-6.84-.034-.028-.005-.004-.021-.016a6.923 6.923 0 0 0-.431-.303 7.873 7.873 0 0 0-1.195-.642c-.986-.42-2.135-.633-3.119-.109-.678.36-1.682.863-2.771 1.397a513.144 513.144 0 0 1-5.609 2.693c-.13.062-.492.279-.854.502l-.214.133c.113.157.257.351.428.57a16.064 16.064 0 0 0 1.83 1.993c.742.669 1.551 1.225 2.347 1.473.773.24 1.519.19 2.226-.334.462-.345.895-.674 1.297-.99h.001a65.823 65.823 0 0 0 2.857-2.351l.115-.102.029-.026.007-.006.002-.002" fill="#000"/><path d="M99.5 78.907H89.345a.789.789 0 0 1-.788-.788v-4.378a5.867 5.867 0 1 1 11.733 0v4.378a.79.79 0 0 1-.788.788Z" fill="#7247FF"/><path d="M109.159 84.407a1.639 1.639 0 0 0-1.138.796 1.646 1.646 0 0 0-.12 1.385l-2.762 2.54 1.135 2.055 3.849-3.642a1.647 1.647 0 0 0 .91-1.995 1.652 1.652 0 0 0-1.874-1.14Z" fill="#F4F7FA"/><path fill-rule="evenodd" clip-rule="evenodd" d="M109.159 84.407a1.654 1.654 0 0 1 1.874 1.139 1.649 1.649 0 0 1-.91 1.995l-3.849 3.642-1.135-2.055 2.762-2.54a1.646 1.646 0 0 1 1.258-2.181Zm.069.495a1.144 1.144 0 0 0-.923 1.023 1.14 1.14 0 0 0 .066.491l.114.314-2.718 2.5.632 1.146 3.443-3.258.079-.034a1.149 1.149 0 0 0 .634-1.392 1.15 1.15 0 0 0-1.306-.793l-.021.003Z" fill="#000"/><path d="M100.849 95.956a4.412 4.412 0 0 1-3.929-2.39l-4.424-8.517a2.444 2.444 0 0 1 4.225-2.445l4.082 9.16 5.554-4.514 3.216 1.252-5.431 5.997a4.458 4.458 0 0 1-3.293 1.457Z" fill="#F4F7FA"/><path fill-rule="evenodd" clip-rule="evenodd" d="M100.516 95.442h.001c.111.01.222.014.332.014m-3.485-2.12v.001a3.912 3.912 0 0 0 3.152 2.105m-3.795-12.838a2.444 2.444 0 0 0-4.225 2.445l4.424 8.517a4.412 4.412 0 0 0 3.929 2.39 4.462 4.462 0 0 0 3.293-1.457l5.431-5.997-3.216-1.252-5.554 4.513-4.082-9.16Zm9.726 5.218-5.835 4.741-4.332-9.72a1.943 1.943 0 0 0-3.34 1.976l4.424 8.517m9.083-5.514 2.268.883-4.943 5.457c.001 0 0 0 0 0a3.96 3.96 0 0 1-2.923 1.294" fill="#000"/><path d="m133.865 104.408.929-1.935-7.022-4.506-1.371 2.856 7.464 3.585Z" fill="#F4F7FA"/><path fill-rule="evenodd" clip-rule="evenodd" d="m134.152 102.655-.521 1.086-6.563-3.152.91-1.896 6.174 3.962Zm-6.38-4.688 7.022 4.506-.929 1.935-7.464-3.585 1.371-2.856Z" fill="#000"/><path d="M138.422 99.523a2.694 2.694 0 0 0-3.595 1.263l-.627 1.305-.967 2.014-.236.493 2.508 1.205 2.996-6.241-.079-.039Z" fill="#F4F7FA"/><path fill-rule="evenodd" clip-rule="evenodd" d="m135.278 101.002-1.614 3.362 1.606.772 2.547-5.305a2.19 2.19 0 0 0-2.539 1.171Zm2.759-1.629a2.705 2.705 0 0 0-1.674.036 2.687 2.687 0 0 0-1.536 1.377l-1.83 3.812 2.507 1.205 2.997-6.241-.079-.039a2.77 2.77 0 0 0-.385-.15Z" fill="#000"/><path d="m133.51 100.518-.406.869-1.014 2.168-.025.054c-2.166.111-4.475-.611-6.586-1.618a27.38 27.38 0 0 1-2.465-1.336 37.255 37.255 0 0 1-3.068-2.086c-1.257-.95-2.026-1.651-2.026-1.651s-.231.178-.648.483a67.577 67.577 0 0 1-2.574 1.786 66.37 66.37 0 0 1-1.38.894c-3.618 2.274-8.763 5.045-13.139 5.63-7.685 1.028-5.876-9.23-5.876-9.23l6.116-3.176 2.597.527 2.891.585 1.025.208.528-.201a513.333 513.333 0 0 0 5.793-2.252 105.01 105.01 0 0 0 2.854-1.174c2.462-1.077 5.219 1.533 5.219 1.533l12.184 7.987Z" fill="#F4F7FA"/><path fill-rule="evenodd" clip-rule="evenodd" d="m132.09 103.555 1.42-3.037-12.184-7.987s-2.757-2.61-5.219-1.533c-.695.303-1.728.725-2.854 1.174-2.185.868-4.716 1.84-5.793 2.252l-.528.201-1.025-.208-5.488-1.112-6.116 3.177s-1.81 10.257 5.876 9.229c4.376-.585 9.521-3.356 13.139-5.63.491-.31.951-.608 1.38-.894a67.577 67.577 0 0 0 2.574-1.786c.417-.305.648-.483.648-.483s.769.7 2.026 1.651c.835.629 1.886 1.37 3.068 2.086a27.38 27.38 0 0 0 2.465 1.336c2.111 1.007 4.42 1.729 6.586 1.618l.025-.054Zm-.349-.435c-1.963.027-4.07-.637-6.046-1.58a26.542 26.542 0 0 1-2.421-1.312l-.001-.001a36.826 36.826 0 0 1-4.49-3.223 22.25 22.25 0 0 1-.494-.427l-.025-.022-.006-.006h-.001m13.484 6.571.91-1.945.223-.476-11.86-7.775-.032-.03-.004-.004-.02-.018-.082-.073a7.855 7.855 0 0 0-1.467-.995c-.95-.493-2.079-.795-3.101-.347-.703.306-1.743.73-2.87 1.18-2.188.87-4.722 1.842-5.799 2.254m9.975 1.631-.002.002-.007.005-.031.024-.123.093a66.856 66.856 0 0 1-3.029 2.124l-.001.001c-.425.283-.882.579-1.37.886-3.614 2.273-8.679 4.989-12.938 5.558-1.806.242-2.979-.184-3.76-.885-.8-.717-1.261-1.785-1.505-2.95-.242-1.16-.257-2.363-.209-3.286a15.947 15.947 0 0 1 .12-1.286l5.734-2.978 6.48 1.314.136-.051.139-.053.391-.149" fill="#000"/><path d="M83.11 105.956a1.642 1.642 0 0 0 1.144-2.244l2.627-2.679-1.24-1.994-3.656 3.837a1.648 1.648 0 0 0-.805 2.039 1.647 1.647 0 0 0 1.93 1.041Z" fill="#F4F7FA"/><path fill-rule="evenodd" clip-rule="evenodd" d="m83.001 105.495-.003-.027a1.146 1.146 0 0 0 .762-.594 1.141 1.141 0 0 0 .034-.966l-.13-.307 2.585-2.638-.691-1.111-3.27 3.431-.077.039a1.15 1.15 0 0 0 .784 2.147l.006.026Zm.166.447-.057.014-.055.012a1.652 1.652 0 0 1-1.07-3.092l3.657-3.837 1.239 1.994-2.627 2.679a1.643 1.643 0 0 1-1.087 2.23Z" fill="#000"/><path d="M95.86 79.103a4.095 4.095 0 1 0 0-8.191 4.095 4.095 0 0 0 0 8.19Z" fill="#F4F7FA"/><path fill-rule="evenodd" clip-rule="evenodd" d="M95.86 78.603a3.595 3.595 0 1 0 0-7.191 3.595 3.595 0 0 0 0 7.19Zm4.095-3.596a4.095 4.095 0 1 1-8.19 0 4.095 4.095 0 0 1 8.19 0Z" fill="#000"/><path d="M90.533 86.376 94.1 96.491l-.021.035c-.497.82-.659 1.482-.47 1.914a.833.833 0 0 0 .53.456l8.441-5.901-.295-2.366.016-.026c.816-1.306 1.08-2.488.785-3.514a3.39 3.39 0 0 0-1.61-1.943l-.029-.023-4.21-5.125-5.63 1-1.074 5.378Z" fill="#F4F7FA"/><path fill-rule="evenodd" clip-rule="evenodd" d="m101.447 85.123-4.21-5.125-5.63 1-1.074 5.378L94.1 96.491l-.021.035c-.497.82-.659 1.482-.47 1.914a.833.833 0 0 0 .53.456l8.441-5.901-.295-2.366.016-.026c.816-1.306 1.08-2.488.785-3.514a3.39 3.39 0 0 0-1.61-1.943l-.029-.023Zm.6 7.634-.281-2.242.111-.177c.772-1.235.969-2.267.731-3.104a2.893 2.893 0 0 0-1.37-1.648l-.038-.02-.105-.084-4.06-4.94-5.004.889-.981 4.908 3.6 10.208-.144.238c-.232.383-.37.706-.433.963-.063.256-.041.407-.007.488a.334.334 0 0 0 .044.07l7.937-5.549Z" fill="#000"/><path d="m85.108 104.13-2.39-2.942 5.76-9.51 2.687-8.304.083.027-.083-.027a3.335 3.335 0 1 1 5.947 2.878l-4.93 7.389-7.074 10.489Z" fill="#F4F7FA"/><path fill-rule="evenodd" clip-rule="evenodd" d="m88.479 91.677-5.761 9.511 2.39 2.942 7.073-10.49 4.931-7.388a3.336 3.336 0 1 0-5.947-2.88c0 .001 0 0 0 0l-2.686 8.305Zm3.286 1.686.002-.002 4.93-7.386a2.835 2.835 0 1 0-5.056-2.447l-2.704 8.358-5.61 9.26 1.743 2.145 6.695-9.928Z" fill="#000"/><path d="M101.676 74.18h-6.21l-.064-.893-.318.892h-.957l-.126-1.767-.63 1.767H91.52v-.088a4.646 4.646 0 0 1 4.64-4.64h.876a4.647 4.647 0 0 1 4.64 4.64v.088Z" fill="#7247FF"/><path d="M95.415 79.724a.816.816 0 0 1-.14-.012l-4.547-.803v-7.516h5.006l-.124.145c-1.724 2.01-.425 5.272.503 7.037a.777.777 0 0 1-.062.824.785.785 0 0 1-.636.325Z" fill="#7247FF"/><path d="M163.357 66.258v10.59h-46.905l-6.774 8.127.774-8.128h-3.296V66.258h56.201Z" fill="#F0F0F0"/><path d="M126.657 73.455a1.919 1.919 0 1 0 0-3.838 1.919 1.919 0 0 0 0 3.838Zm-6.476 0a1.919 1.919 0 1 0 0-3.838 1.919 1.919 0 0 0 0 3.838Zm-6.477 0a1.919 1.919 0 1 0 0-3.838 1.919 1.919 0 0 0 0 3.838Z" fill="#fff"/><path d="M218.76 105.84H.24a.24.24 0 1 1 0-.48h218.52a.24.24 0 0 1 .17.41.24.24 0 0 1-.17.07Z" fill="#CACACA"/></g><defs><linearGradient id="b" x1="54.819" y1="20.834" x2="108.566" y2="21.353" gradientUnits="userSpaceOnUse"><stop stop-color="#4614E8"/><stop offset="1" stop-color="#BCA7FF"/></linearGradient><clipPath id="a"><path fill="#fff" d="M0 0h219v106H0z"/></clipPath></defs></svg>