<svg width="50" height="50" fill="none" xmlns="http://www.w3.org/2000/svg"><path d="M0 7a7 7 0 0 1 7-7h36a7 7 0 0 1 7 7v36a7 7 0 0 1-7 7H7a7 7 0 0 1-7-7V7Z" fill="url(#a)"/><g clip-path="url(#b)" fill-rule="evenodd" clip-rule="evenodd" fill="#fff"><path d="M19.18 17.667a2.52 2.52 0 0 1 2.522-2.521h7.333a2.52 2.52 0 0 1 2.52 2.52v14.667a2.52 2.52 0 0 1-2.52 2.521h-7.333a2.52 2.52 0 0 1-2.521-2.52V17.666Zm2.522-1.146c-.633 0-1.146.513-1.146 1.146v14.666c0 .633.513 1.146 1.146 1.146h7.333c.633 0 1.146-.513 1.146-1.146V17.667c0-.633-.513-1.146-1.146-1.146h-7.333Z"/><path d="M22.618 15.146a.687.687 0 0 0-.687.687v.917c0 .886.718 1.604 1.604 1.604h3.667c.886 0 1.604-.718 1.604-1.604v-.917a.687.687 0 0 0-.688-.687h-5.5Z"/></g><defs><linearGradient id="a" x1="38.176" y1="48.311" x2="13.851" y2="12.162" gradientUnits="userSpaceOnUse"><stop stop-color="#2641D1"/><stop offset="1" stop-color="#3333A3"/></linearGradient><clipPath id="b"><path fill="#fff" transform="translate(19 14)" d="M0 0h12.737v22H0z"/></clipPath></defs></svg>