<svg width="18" height="18" fill="none" xmlns="http://www.w3.org/2000/svg"><path d="M12.579 0h-1.875C9.269 0 8.239.34 7.613 1.021c-.626.681-.94 1.684-.94 3.01v1.263c0 .334-.27.604-.604.604h-.648a.604.604 0 0 0-.604.605v1.893c0 .333.27.604.604.604h.648c.334 0 .605.27.605.604v7.791c0 .334.27.605.604.605h2.516c.333 0 .604-.27.604-.605v-7.79c0-.334.27-.605.604-.605h1.271c.334 0 .633-.27.668-.601l.2-1.9a.532.532 0 0 0-.54-.6h-1.599a.604.604 0 0 1-.604-.605v-.947c0-.233.01-.413.033-.54.022-.128.07-.253.147-.377a.6.6 0 0 1 .372-.257 2.65 2.65 0 0 1 .682-.071h.947c.333 0 .604-.27.604-.605V.604A.604.604 0 0 0 12.579 0Z" fill="#273895"/></svg>