<svg width="18" height="18" fill="none" xmlns="http://www.w3.org/2000/svg"><path d="M13.127 0H4.872A4.878 4.878 0 0 0 0 4.872v8.256A4.878 4.878 0 0 0 4.872 18h8.256A4.878 4.878 0 0 0 18 13.128V4.872A4.878 4.878 0 0 0 13.127 0ZM9 13.922A4.927 4.927 0 0 1 4.078 9 4.927 4.927 0 0 1 9 4.078 4.927 4.927 0 0 1 13.922 9 4.927 4.927 0 0 1 9 13.922Zm5.04-8.683a1.456 1.456 0 0 1-1.455-1.454c0-.802.652-1.455 1.454-1.455.802 0 1.455.653 1.455 1.455s-.653 1.454-1.455 1.454Z" fill="#273895"/><path d="M9 5.134A3.87 3.87 0 0 0 5.134 9 3.871 3.871 0 0 0 9 12.867 3.87 3.87 0 0 0 12.867 9 3.87 3.87 0 0 0 9 5.134Zm5.04-1.748a.4.4 0 1 0 0 .799.4.4 0 0 0 0-.8Z" fill="#273895"/></svg>